<?xml version="1.0" encoding="UTF-8" standalone="no"?>
<!-- Created with Inkscape (http://www.inkscape.org/) -->

<svg
   xmlns:dc="http://purl.org/dc/elements/1.1/"
   xmlns:cc="http://creativecommons.org/ns#"
   xmlns:rdf="http://www.w3.org/1999/02/22-rdf-syntax-ns#"
   xmlns:svg="http://www.w3.org/2000/svg"
   xmlns="http://www.w3.org/2000/svg"
   xmlns:sodipodi="http://sodipodi.sourceforge.net/DTD/sodipodi-0.dtd"
   xmlns:inkscape="http://www.inkscape.org/namespaces/inkscape"
   viewBox="0 0 1000 1000"
   id="svg4239"
   version="1.1"
   inkscape:version="0.91 r13725"
   sodipodi:docname="whale-1.svg">
  <defs
     id="defs4241" />
  <sodipodi:namedview
     id="base"
     pagecolor="#ffffff"
     bordercolor="#666666"
     borderopacity="1.0"
     inkscape:pageopacity="0.0"
     inkscape:pageshadow="2"
     inkscape:zoom="0.35"
     inkscape:cx="352.01336"
     inkscape:cy="530.29926"
     inkscape:document-units="px"
     inkscape:current-layer="layer1"
     showgrid="false"
     inkscape:window-width="1366"
     inkscape:window-height="689"
     inkscape:window-x="0"
     inkscape:window-y="30"
     inkscape:window-maximized="1" />
  <metadata
     id="metadata4244">
    <rdf:RDF>
      <cc:Work
         rdf:about="">
        <dc:format>image/svg+xml</dc:format>
        <dc:type
           rdf:resource="http://purl.org/dc/dcmitype/StillImage" />
        <dc:title />
      </cc:Work>
    </rdf:RDF>
  </metadata>
  <g
     inkscape:label="Layer 1"
     inkscape:groupmode="layer"
     id="layer1"
     sodipodi:insensitive="true">
    <path
       style="opacity:1;fill:#afc6e9;fill-opacity:1;stroke:none;stroke-width:10;stroke-linecap:round;stroke-linejoin:round;stroke-miterlimit:4;stroke-dasharray:none;stroke-dashoffset:0;stroke-opacity:1"
       d="m 203.03484,349.76639 a 161.49535,134.95661 85.943368 0 0 -5.43064,1.11875 161.49535,134.95661 85.943368 0 0 -87.39288,73.78708 c -22.864823,25.65946 -67.394003,45.70725 -42.409483,83.76121 -26.44719,30.93848 22.06041,67.02082 55.066733,100.24211 a 161.49535,134.95661 85.943368 0 0 20.90183,25.00259 c 0.0451,0.074 0.0948,0.14851 0.1393,0.22246 l -0.0107,-0.0884 a 161.49535,134.95661 85.943368 0 0 103.30085,35.37504 l -0.0414,0.56502 264.36769,-54.51041 c 39.81018,-5.5903 72.06385,-178.84447 -28.44408,-200.42101 -68.06074,-10.06894 -138.63629,-12.59332 -213.29067,-58.33668 l -0.092,1.28436 a 161.49535,134.95661 85.943368 0 0 -66.66402,-8.00217 z"
       id="path4914-2"
       inkscape:connector-curvature="0"
       inkscape:transform-center-x="183.26178"
       inkscape:transform-center-y="-0.99083456" />
    <path
       style="opacity:1;fill:#d7eef4;fill-opacity:1;stroke:none;stroke-width:10;stroke-linecap:round;stroke-linejoin:round;stroke-miterlimit:4;stroke-dasharray:none;stroke-dashoffset:0;stroke-opacity:1"
       d="m 175.08377,504.75902 c -32.89142,0.011 -69.32699,2.265 -110.089834,7.3184 -19.96638,30.11089 26.0701,64.68759 57.796864,96.62109 a 161.49535,134.95661 85.943368 0 0 20.90235,25.0019 c 0.0451,0.074 0.0942,0.1488 0.13867,0.2227 l -0.01,-0.088 a 161.49535,134.95661 85.943368 0 0 103.30078,35.375 l -0.041,0.5644 264.3672,-54.5097 c 6.75105,-0.948 13.28049,-6.7278 18.98632,-15.7617 C 424.0584,565.75461 347.8095,504.70292 175.08355,504.75892 Z"
       id="path4914-2-3"
       inkscape:connector-curvature="0" />
    <path
       style="opacity:1;fill:#ac9393;fill-rule:evenodd;stroke:none;stroke-width:1px;stroke-linecap:butt;stroke-linejoin:miter;stroke-opacity:1"
       d="m 117.17773,517.65234 c -18.7354,26.12197 0.83213,53.93465 8.08204,81.31641 -6.25912,-27.7039 -17.0403,-54.99076 -8.08204,-81.31641 z m 39.39649,0 c -16.32764,41.78649 5.56854,81.66182 13.63672,122.22852 -6.58081,-40.96894 -18.21352,-82.49931 -13.63672,-122.22852 z m -69.701173,0.50586 c -11.656098,15.10351 -2.37839,28.59611 2.525391,42.42578 -3.188099,-14.14213 -7.143011,-28.28365 -2.525391,-42.42578 z m 114.146483,3.53516 c -19.29605,35.28605 7.64273,83.5168 34.85156,131.82422 C 220.73593,610.83252 191.992,573.00795 201.01953,521.69336 Z m 90.41016,2.52539 c 19.13244,42.2041 85.41444,60.83203 135.86523,87.37695 -49.49888,-27.97778 -105.93119,-54.0633 -135.86523,-87.37695 z m -42.42774,1.00977 c -5.73281,37.32795 44.6522,71.98252 75.25782,107.58007 -27.62202,-34.93803 -66.53459,-65.76975 -75.25782,-107.58007 z"
       id="path4159"
       inkscape:connector-curvature="0" />
    <ellipse
       style="opacity:1;fill:#ffffff;fill-opacity:1;stroke:none;stroke-width:10;stroke-linecap:round;stroke-linejoin:round;stroke-miterlimit:4;stroke-dasharray:none;stroke-dashoffset:0;stroke-opacity:1"
       id="path4172"
       cx="215.71428"
       cy="437.85715"
       rx="21.428572"
       ry="17.857143" />
    <ellipse
       style="opacity:1;fill:#4d4d4d;fill-opacity:1;stroke:none;stroke-width:10;stroke-linecap:round;stroke-linejoin:round;stroke-miterlimit:4;stroke-dasharray:none;stroke-dashoffset:0;stroke-opacity:1"
       id="path4174"
       cx="215.71428"
       cy="444.28571"
       rx="11.428572"
       ry="11.071428"
       inkscape:transform-center-x="-8.9285714"
       inkscape:transform-center-y="-2.8571429" />
  </g>
</svg>
