<svg xmlns="http://www.w3.org/2000/svg" viewBox="0 0 1000 1000" version="1.1"><g fill-rule="evenodd"><path d="M517.3 435.7c41.2-30.3 154.4-84.7 195.6-11.2 41.2 73.5-121.7 214.7-176.4 255-54.8 40-56.5 34.3-93 28.8-36.6-5.6-86.8-36.7-102.6-70.6-15.8-34-7-71.8 9.6-99.4 16.7-27.6 50.8-34 78.6-51.3 27.7-17 47-21 88-51.3z" opacity="1" fill="#de8787"/><path d="M437.8 673.8c-13.8-47.4 72-42.2 62.3-6.8-13.5 29.2-29.7 58.3-16.7 99.4L467 769c-5.6-32.4 3.7-65.5-29.2-95.2z" fill="#de8787"/><path d="M465.3 766.5c19.4 103.7-48.8 47-44 83.3 35.5-14.2 52-7.7 67.2 0 15.5-13.5 37.6-8 59.3-.8 22-20.3-59.3-2.4-63.3-84-9-7-15-6-19.2 1.5z" opacity="1" fill="#e5ff80"/><path d="M469 775.8c3.2 35.3-1.3 63.5-39.5 59.8 33 8 52.3-3.5 39.6-59.8z" fill="#decd87"/></g></svg>