<svg xmlns="http://www.w3.org/2000/svg" viewBox="0 0 1000 1000" version="1.1"><g transform="rotate(-3.92 832.158 453.813)"><path d="M766 282.3c-51.7 27.2-92.5 83.3-159.4 71.4-15-1.5-13.2 16.2 21 24-21.5 9.4-43.3 18.7 20.8 15.5-58.6 32.7-55.4 40 9.6 22-68.6 47.4-15 35.7 14 36-47.8 38.7-36 45 12 31.4-25.7 31-36.7 50 8.8 24.2-23.2 53.5 18 41.3 20.6 19 5-73.6 51-140 104.6-205 16-42-25.7-50-52-38.5z" opacity="1" fill="#e9afaf" fill-rule="evenodd"/><path d="M809.6 314c-23-20.7-58-24.4-46.7 13.6 11.2 38-2.5 25.3-20 31-17.4 5.7-66.2 79 27 32-65.4 78.2 17.7 48.3 23.3-7.6 5.7-56 39.3-48.2 16.3-69z" opacity="1" fill="#f55" fill-rule="evenodd"/><path d="M781 364.2c-.3-9.5-10.8-15 15.8-33.7 31.7-14 50.3-5 61 18-13.8-4.5-29-14.8-39-3.6 15.2.8 18.8 9.7 25.6 16.3-25-8-43.6-1-63.5 3z" opacity="1" fill="#e5ff80" fill-rule="evenodd"/><path d="M770 281.3c-12.6-22.5-54-54.6 11-51.2-1.8-53 15.7-21.4 38.7 35 13.2-16 32-51.5 15.8 33.4 54.8 20.2-4.3 20.2-16 18.7-17-33.7-33-26.8-49.6-35.7z" opacity="1" fill="#f55" fill-rule="evenodd"/><ellipse ry="9.4" rx="10" cy="316.3" cx="781" opacity="1" fill="#fff" fill-opacity="1"/><ellipse ry="6.6" rx="7.2" cy="318.1" cx="781" opacity="1" fill="#1a1a1a" fill-opacity="1"/></g></svg>