<svg xmlns="http://www.w3.org/2000/svg" viewBox="0 0 1000 1000" version="1.1"><g fill-rule="evenodd"><path d="M408 540c-90.7-8.4-174.3 7.6-237 95 39.6-127 131.7-127 237-95z" opacity="1" fill="#afe9c6"/><path d="M412 530c-78.4-46.6-160.7-68.2-255-16.3 90.5-97.7 173.6-58 255 16.3z" opacity="1" fill="#5fd38d"/><path d="M404.3 537.7c-21.6-29-50-49.7-57.8-95.2-18.2-41.8-36.3-21-54.4 2.2-68.5 50.6-78.8 11.5-112.2 8 24.6-12 59-9 61.2-54.4 9-72.2 10.7-115.2 112.3-58 101.5 57.4 37.4 131.6 51 197.4z" opacity="1" fill="#87deaa"/><path d="M399.8 546.8c23-88.2 20.6-173.3-55.6-249.4C463.4 357 448.5 448 399.8 546.8z" opacity="1" fill="#afe9c6"/><path d="M403.2 537.7c-173.2 22.6-176.5 123-65.8 275.5-45-132-10-216 65.8-275.5z" opacity="1" fill="#afe9c6"/><path d="M403.2 540c-60.7 9-164.4 37.6-141.7 222.2C200 702 226.8 403 403.2 540z" opacity="1" fill="#87deaa"/><path d="M402 535c-69.2-73.3-132-45-192.5 17.8-43.3 79.8-86.6 48-130 72C131 594 185 574 224 498.3c126.5-110 140.2-14.7 178 37z" opacity="1" fill="#5fd38d"/></g></svg>