<svg xmlns="http://www.w3.org/2000/svg" viewBox="0 0 1000 1000" version="1.1"><g fill-rule="evenodd"><path d="M453.3 695c-29.5-39.5 52.8-64.6 56-28-2.5 32-7.6 64.3 19 98.2l-13 10.3c-16.7-28.3-20.8-64-62-80.4z" fill="#de8787"/><path d="M511.4 772.4c54.4 90.4-29.3 61-12.2 93.5 28.4-26 46-25.6 63-23.6 10-18 32.5-20.7 55.4-21.5 13.6-26.8-56.4 18.4-88.7-56.8-13-3.4-17 1-17.6 8.2z" opacity="1" fill="#e5ff80"/><path d="M515.7 778.4c18 30.5 26 57.8-10 71 33.5-7 45.7-25.7 10-71z" fill="#decd87"/></g></svg>