<svg xmlns="http://www.w3.org/2000/svg" version="1.1" viewBox="0 0 1000 1000"><path d="M292.2 915.7c-12.2-67.3-99.6-138.2 34.2-198.5.2-45.8 18.7-91.5 41.5-137.2l237-1.4c30.8 44 52 68.2 57.2 148.6 125.4 42.3 59 125.6 37 182.8-131.8 25-267.6 26.4-407 5.7z" fill="#e9c6af" fill-rule="evenodd"/><path d="M279.2 929.2c-11-24 4.4-28.8 26-29.2 7-12.7 15.7-20 31.7 0 28-3.7 28.4 11 30.4 24.7-4.5 23.2-54.3 29.5-88.2 4.5zM707.2 915.6c11.2-24-4.3-28.8-26-29.2-7-12.6-15.6-20-31.6 0-28.2-3.7-28.6 11-30.5 24.7 4.6 23.3 54.4 29.6 88.2 4.6z" fill="#a05a2c" fill-rule="evenodd"/><path d="M362.2 581.4c-18 122.4-10 244.8-4.3 367.2l88.4 1.4C440 849 420 748 435 647.2l120-3c13 102-8.4 202.5-12.8 304.4H635c-3-120 11-230.2-27-371.4z" fill="#e9c6af" fill-rule="evenodd"/><path d="M290.7 401.4C185 71.7 784.3 166 652.2 410c-19.4 178.2-302 286-361.5-8.6z" fill="#e9c6af" fill-rule="evenodd"/><path d="M350.3 953.5c-14-30.6 5.5-36.7 33-37 8.8-16.3 19.6-25.4 40 0 35.6-5 36 14 38.4 31.3-5.7 29.6-68.6 37.5-111.4 5.7zM644 955.5c14.2-30.7-5.4-36.7-32.8-37.2-9-16-19.7-25.3-40 0-35.7-4.7-36 14-38.5 31.5 5.7 29.5 68.6 37.5 111.4 5.7z" fill="#a05a2c" fill-rule="evenodd"/><path d="M355 920.7l7.5-235.7 6 232.5zM544 921.7l-1.2-225 12.2 221c-3 .8-8.8 3-11 4zM289.3 900.7h13c-52-82.4-54.4-148 24-182.8-46.7 26.8-111 36.8-37 182.7z" fill="#deaa87" fill-rule="evenodd"/><path d="M707 890l-16.2-2c41-56.2 78.3-112.3-28.3-160.6 89 26.6 92.8 85 44.4 162.6zM429 916h10.6l-10.4-210.8zM616 918.7l10.8.6-10.5-210.5z" fill="#f4e3d7" fill-rule="evenodd"/><path d="M464.4 654.3c-5.3-3.8-9.8-9.6-14.2-18.2-2-3.5-4-6.6-4.8-7-.8 0-5 3.7-9.7 8.6-4.6 5-10 9.8-12 11-4.2 2.7-10 3-13.4.5-6-4-11.7-19.3-13.6-36.4-1.3-11.7-2.3-14.5-5.3-14.5-2.7 0-4.2 4.3-5 14-1 14.5-8.6 38.8-12 38.8-2 0-5.5-6.6-7.8-14.2-1-3.4-2.5-13.5-3.4-22.6-2-22.7-3-24.6-11.2-23-6 1-13.7 9.2-20 20.8-6 11.8-8 12.7-13.4 6.5-6.7-7.7-10.4-20-12.8-43.8-1-9-2-17.4-2.5-18.4-.5-1.3-2.2 1.8-6 10.7-5.2 12.6-10.4 21-13.5 22.3-2.5 1-5.7-2.7-9.8-11.2-7-14.6-11-34.5-12-59.3-1-19.7-1.7-25.3-3.4-27.6-1.5-2-1.6-2-3.2 0-1 1.2-3.2 7-5.2 13-4 12-7 17-9 15-3.4-3.2-1.8-40.3 2.6-62 1.2-5.8 2-11 1.5-11.4-.7-.7-1.7.4-13.5 13.6l-6 6.6.7-12.7c1-19 7.4-43 15.6-57.7 2.3-4 3.8-7.4 3.5-7.8-.4-.3-4.4 0-9 .8-10.5 1.8-11.3 1.2-8.7-6.7 3-9 23.4-48.5 31.6-61.3 7.4-11.3 8.7-14.3 6.2-14.3-.8 0-6.7 2.4-13.2 5.4-6.5 3-13 5.7-14.4 5.8-4.2.5-4-4.7.6-14 7-14.2 16.5-22.8 38.8-35 13.6-7.7 17.7-10.7 16.6-12.5-.4-.6-5.5-4-11.4-7.4-13.4-8-27-18-26.5-19.6.8-2 7.2-2.6 32.3-3.4 31.6-1 43-2.8 44.4-7 .2-.7-1.8-2.3-4.8-3.6-10.4-4.4-32.5-22.5-31-25.2 1-1.5 26.4-1.3 56.8.5 13.7.8 25.2 1 25.6.8.4-.4 1-12.8 1-27.6.6-28 1.4-33.4 5.4-34.6 3.3-1 8.7 2.4 17.6 11.4 10 10.2 18.2 21.8 26.6 38 3.6 6.8 6.5 11.3 6.8 10.4.3-1 1.6-10 2.8-20.3 2.3-19 4.5-29.4 6.6-31.4 2-2 7.5 1 13 7 7.2 8.3 13.4 19.3 19.2 34.6 2.8 7.5 5.6 13.6 6 13.6.6 0 11-9.3 23-20.7 23.2-21.8 28.8-26.3 37.5-30.5 6.2-3 10.2-3.3 11-1 .4.8-1 6.6-3.2 12.8-3.7 11-6.4 25-5.6 29.2L549 192c.6 4.7 1.5 8.5 2 8.5.2 0 3-4 6.3-8.5 11.7-17.5 39.7-49.7 43-49.7 2.4 0 2.8 8.7 1.5 30.2-1.8 31.6-.2 36 10.3 29.7 13.3-8 25-11.4 34.8-9.6 4.8 1 5 1 4.6 4.7 0 2-3 10.2-6.4 18-7.2 17-7.2 19 .2 26.3 2.7 2.7 11.6 9.6 19.8 15.5 8.2 6 18.2 14 22.2 18 12.8 12.7 21.6 28.6 19.8 35.8-1 3.5-6 5-17.6 5h-8.6l8.3 9.4c10.3 11.4 16 22.3 21.2 40.2 2 7.3 3.8 14 3.8 14.8 0 1.3-2.7 1.5-14.3 1.5-8 0-14.3.3-14.3.7 0 .4 3.5 4.5 8 9.2 11.3 12 21.7 31.3 21.7 40.2 0 2.7-.2 3-3.5 2.4-2-.4-7-2.6-11.4-5-14.6-8.6-18.4-7.4-15.4 5 1.8 7.7 3.8 21.3 6.8 46.4 1 8.2 2.6 18.5 3.5 23 2.2 11.2 2.2 13.3 0 14.7-2.7 1.8-10.6-.6-19.3-6-8.7-5-12.6-5.5-15.4-1.3-2 3.3-2.2 5.8-1.3 42.6.4 17 .2 21-1.6 28.3l-2.2 8.3-4.8-6.8c-5-7.3-9-18.2-9-25 0-13.6-10 8.8-15 34-3 14.5-5.2 21-7 21-1.4 0-2-2.6-2.8-12.6-.8-10-3-13.2-9.3-13.7-6-.4-12 3-22.3 12.7-10.7 10-15.3 19.5-16 33-.7 12.7-2 16.7-5.3 16.7-1.3 0-5.6-1.6-9.5-3.5-8.7-4.4-11-8.2-14.3-22.8-4-17.6-3.4-17.7-9.8 1.2-6.7 19.2-8.7 23.5-12.6 27.2-6.3 5.8-11.8-.2-19.6-21.8-2.7-7.2-5-13.2-5.4-13.2-.3 0-3.3 6.2-6.6 13.8-6.7 15.4-13.5 26.8-15.8 26.8-.8 0-3.4-1.4-5.8-3zm27.4-74.8c15-3.8 31-13 50.4-29.5 25.3-21 54.4-56.2 66.5-80.3 12.6-25 15-59.5 6.6-92.2-4.6-17.5-11.8-31-22.8-42.7-4.8-5-5.2-5.8-3.4-6.5 1.3-.4 5.2-2 9-3.8 13.8-6.5 29.3-27.4 30.8-41.7 1-8-3.6-19.3-13.2-33.8-7.4-11-13-17-18-19-8-3-23.3 6-44.2 26-12.8 12.2-9.8 12-27.2.5-20.4-13.6-26-15.3-51.2-15.3-25.6 0-30.7 1.2-57.5 13.8-25.2 12-21.8 11.7-29 1.6-11-15.7-28-28.4-40.2-30.4-8.8-1.4-22.4 9.3-29 23-6.6 13.2-7.8 26.8-3.3 38.3 5.2 13.4 22 33 32 37.3 2.6 1.2 4.7 2.8 4.7 3.6 0 .8-3 5-6.6 9.5-16 19.5-25 49.7-23.8 79.8.8 19.8 6.3 34.2 22.4 58.6 16.6 25.2 83.6 85.8 109 98.7 13.2 6.8 24.3 8 38.2 4.5z" opacity="1" fill="#a05a2c" fill-opacity="1"/><path d="M357.3 230c-22.7-22.3-82.2 51-5.2 97.3C316 293 307 245 357.4 230z" fill="#deaa87" fill-rule="evenodd" fill-opacity="1"/><path d="M585.8 233.5c22.7-22.2 83.8 61 2.6 95.7 36-34.2 48-80.6-2.6-95.7z" fill="#f4e3d7" fill-opacity="1" fill-rule="evenodd"/></svg>