<svg xmlns="http://www.w3.org/2000/svg" version="1.1" viewBox="0 0 1000 1000"><path d="M441.8 343.3a23.6 21 0 0 1-23.6 21 23.6 21 0 0 1-23.5-21 23.6 21 0 0 1 23.5-21 23.6 21 0 0 1 23.6 21z" opacity="1" fill="#fff" fill-opacity="1"/><path d="M429 352a10 10.4 0 0 1-10 10.2 10 10.4 0 0 1-10-10.3 10 10.4 0 0 1 10-10.5 10 10.4 0 0 1 10 10.4z" opacity="1" fill="#000" fill-opacity="1"/><path d="M552.5 343a23.6 21 0 0 1-23.5 21 23.6 21 0 0 1-23.6-21 23.6 21 0 0 1 23.6-21 23.6 21 0 0 1 23.5 21z" opacity="1" fill="#fff" fill-opacity="1"/><path d="M538.6 350.7a10 10.4 0 0 1-10 10.4 10 10.4 0 0 1-10-10.3 10 10.4 0 0 1 10-10.3 10 10.4 0 0 1 10 10.3z" opacity="1" fill="#000" fill-opacity="1"/></svg>