<svg xmlns="http://www.w3.org/2000/svg" version="1.1" viewBox="0 0 1000 1000"><g fill-rule="evenodd"><path d="M526 475l-26.2 3.8 10 29.2c4.8 12.4 14 16 16.2-3.8z" fill="#e6e6e6"/><path d="M519.8 518c-9 1.3-12.3-17-15-24.6 4 8.6 9.7 21.7 15 24.6z" fill="#c8b7b7"/><path d="M427.4 476l26.3 3.8-10 29.3c-4.8 12.5-14 16-16.3-3.7z" fill="#e6e6e6"/><path d="M427.4 495.3c-.2 9.2 0 25 7.8 23.7-4.8-4.8-6.7-14-7.8-23.7z" fill="#c8b7b7"/><path d="M423.2 386.3c-161.2 59-11 173.7 45.5 78.8zM530.2 384c161.2 59 11 173.8-45.5 79z" fill="#d38d5f"/><path d="M399 390.4c63.7-37 109-23.5 151.5-2-5.2 39.6-43 60.2-75.7 84.8-30-22-66.8-45.2-75.8-82.8z" fill="#784421"/><path d="M421.7 400.7c5.4-6 11.7-8.6 19-8l15.3 51c-10.3-14.7-10.5-31.8-34.3-43zM526 404c-5.4-6-11.7-8.6-19-8L491.8 447c10.3-14.5 10.5-31.6 34.3-42.8z" fill="#28170b"/><path d="M398.4 396.8c-27 16-65 65.7 4 104-78.6-21.4-59.4-77-4-104z" fill="#c87137"/><path d="M391.7 417.5c3.6 3 7 6 0 9-41.6-16.4-81.3-6-121.7-5.4 39.6-2.4 70.2-17.7 121.7-3.5zM400 436.8c4 2.3 8 4.5 2 9-44.2-7.7-81 10.6-120.4 19.4 38.3-10.6 65-31.7 118.4-28.4zM407.3 460.7c4.5 1 9 2 4.3 8-44.5 5.3-74.5 33.2-109.8 53 33.6-21 53.3-49 105.5-61z" fill="#502d16"/><path d="M556.7 395.5c27 16 65 65.7-4 104 78.6-21.4 59.4-77 4-104z" fill="#deaa87"/><path d="M547.7 442.8c-4 2.3-8 4.6-2 9 44.2-7.7 81 10.6 120.4 19.4-38.2-10.6-65-31.7-118.3-28.4zM556 423.6c-3.6 3-7 6 0 9 41.6-16.4 81.3-6 121.7-5.5-39.6-2.4-70.2-17.6-121.7-3.4zM540.4 466.8c-4.5 1-9 2-4.3 8 44.6 5.2 74.6 33.2 110 52.8-33.7-21-53.4-49-105.6-60.8z" fill="#502d16"/></g></svg>