<svg xmlns="http://www.w3.org/2000/svg" viewBox="0 0 1000 1000" version="1.1"><path opacity="1" fill="#e9c6af" fill-opacity="1" d="M424.3 468.2h104.3v133.4H424.3z"/><path opacity="1" fill="#e9afaf" fill-opacity="1" d="M431 468.4h90v127.4h-90z"/><path d="M427.8 548h97l-27 46.4h-41.4z" fill="#de8787" fill-rule="evenodd"/><path d="M427.8 548c15.2-2.5 34.8-16.4 50 0 27.8-15.7 30.6-.7 48-.7-28.4 20.2-73.2 27-98 .7z" fill="#d35f5f" fill-rule="evenodd"/><path d="M459.5 540c-10.8.4-22 6.4-31.5 8 6.5 7 14.4 11.5 23 14.2-2.8-8.5 1.8-15.3 9-22h-.5zM493 541.6l-2.6.7-10 4.3-2.3 1.3v-.3l-.6.2c6.8 1.4 13.4 3.3 19.3 6.7-1.7-4.3-4.7-8.3-3.7-13z" fill="#c83737" fill-rule="evenodd"/><path d="M521.5 594.4l-26.2-2.5 10-19.3c4.8-8 14-10.4 16.2 2.5zM435.8 594.6L462 592l-10-19c-4.8-8.2-14-10.5-16.2 2.4z" fill="#e6e6e6" fill-rule="evenodd"/><path d="M427.7 586c25.6-6.7 61.6-6.8 110 1 4.3 9.4 5.5 17.8-1 24.4l-10 20.2-10-14.2-11.3 22.3-10-24.3L483 672 466 618.4l-9 24.3-9-30.3-13.3 21.2-8.4-20c-6.5-9-5.6-18.7 1.4-27.5z" fill="#d38d5f" fill-rule="evenodd"/><path d="M428.7 585.7c-.5 0-1 .3-1.5.4-7 8.8-7.8 18.7-1.4 27.4l8.5 20.2.4-.7-6-47.3zm20.2 23.5l-1.5 3.5 8.7 29-1-28.6-6.3-3.8zm73 4l-8 1.7 1.7 3.2.4-.8 10.2 14-4-18.3zm-56.4.6l.4 6 16.8 52.2.6-3-5.3-47.3-12.4-8zm28.6 1l.5 1.3.2-.6 10 24.2 1-2-1-19-10.8-3.7z" fill="#c87137" fill-rule="evenodd"/><path d="M435.8 582c-.2-6 0-16.3 7.7-15.6-4.7 3.2-6.6 9.3-7.7 15.5zM515.3 566.2c-9-1-12.3 11-15 16 4-5.6 9.7-14 15-16z" fill="#c8b7b7" fill-rule="evenodd"/></svg>