<?xml version="1.0" encoding="UTF-8" standalone="no"?>
<!-- Created with Inkscape (http://www.inkscape.org/) -->

<svg
   xmlns:dc="http://purl.org/dc/elements/1.1/"
   xmlns:cc="http://creativecommons.org/ns#"
   xmlns:rdf="http://www.w3.org/1999/02/22-rdf-syntax-ns#"
   xmlns:svg="http://www.w3.org/2000/svg"
   xmlns="http://www.w3.org/2000/svg"
   xmlns:sodipodi="http://sodipodi.sourceforge.net/DTD/sodipodi-0.dtd"
   xmlns:inkscape="http://www.inkscape.org/namespaces/inkscape"
   viewBox="0 0 1000 1000"
   id="svg4942"
   version="1.1"
   inkscape:version="0.91 r13725"
   sodipodi:docname="rooster-2.svg">
  <defs
     id="defs4944" />
  <sodipodi:namedview
     id="base"
     pagecolor="#ffffff"
     bordercolor="#666666"
     borderopacity="1.0"
     inkscape:pageopacity="0.0"
     inkscape:pageshadow="2"
     inkscape:zoom="0.7"
     inkscape:cx="152.07057"
     inkscape:cy="465.41122"
     inkscape:document-units="px"
     inkscape:current-layer="layer1"
     showgrid="false"
     inkscape:window-width="1366"
     inkscape:window-height="689"
     inkscape:window-x="0"
     inkscape:window-y="30"
     inkscape:window-maximized="1" />
  <metadata
     id="metadata4947">
    <rdf:RDF>
      <cc:Work
         rdf:about="">
        <dc:format>image/svg+xml</dc:format>
        <dc:type
           rdf:resource="http://purl.org/dc/dcmitype/StillImage" />
        <dc:title />
      </cc:Work>
    </rdf:RDF>
  </metadata>
  <g
     inkscape:label="Layer 1"
     inkscape:groupmode="layer"
     id="layer1">
    <g
       id="g4157"
       inkscape:transform-center-x="-55.861813"
       inkscape:transform-center-y="-79.230159"
       transform="matrix(0.99766056,-0.06836236,0.06836236,0.99766056,-29.076925,57.949962)">
      <path
         sodipodi:nodetypes="ccccccccccc"
         inkscape:connector-curvature="0"
         id="path4715-3"
         d="m 766.12875,282.26833 c -51.85573,27.21937 -92.62629,83.30179 -159.48137,71.46647 -15.07316,-1.51439 -13.23954,16.12623 21.0155,24.05831 -21.5147,9.25797 -43.37343,18.56566 20.74268,15.42891 -58.64065,32.63355 -55.42962,39.97866 9.63269,22.03538 -68.65374,47.3278 -15.05433,35.67922 13.94324,35.89872 -47.76733,38.78898 -36.12938,45.11551 12.01672,31.49167 -25.73106,30.81665 -36.74187,49.94193 8.80581,24.14651 -23.21286,53.54539 18.0417,41.26314 20.55804,19.00919 4.91611,-73.64537 50.9347,-139.98576 104.62339,-204.96291 16.05972,-42.17229 -25.70544,-50.00002 -51.8567,-38.57225 z"
         style="opacity:1;fill:#e9afaf;fill-rule:evenodd;stroke:none;stroke-width:1px;stroke-linecap:butt;stroke-linejoin:miter;stroke-opacity:1" />
      <path
         sodipodi:nodetypes="zzzczz"
         inkscape:connector-curvature="0"
         id="path4717-6"
         d="m 809.5824,314.0461 c -23.01717,-20.76634 -57.92706,-24.45279 -46.64462,13.58565 11.28244,38.03844 -2.40469,25.22066 -19.87285,30.95796 -17.46812,5.7374 -66.23207,79.0881 27.02708,32.1079 -65.49233,78.09414 17.59378,48.20835 23.24149,-7.68529 5.64766,-55.89374 39.26607,-48.19987 16.2489,-68.96622 z"
         style="opacity:1;fill:#ff5555;fill-rule:evenodd;stroke:none;stroke-width:1px;stroke-linecap:butt;stroke-linejoin:miter;stroke-opacity:1" />
      <path
         sodipodi:nodetypes="cccccc"
         inkscape:connector-curvature="0"
         id="path4719-7"
         d="m 780.93043,364.16009 c -0.19756,-9.42611 -10.74309,-14.98552 15.9147,-33.64071 31.63944,-14.06733 50.20966,-5.05165 60.81352,18.03424 -13.68255,-4.50641 -28.72291,-14.89759 -38.76233,-3.61473 15.11101,0.85811 18.74119,9.73193 25.53905,16.39425 -25.12537,-8.10971 -43.65253,-1.12559 -63.50494,2.82695 z"
         style="opacity:1;fill:#e5ff80;fill-rule:evenodd;stroke:none;stroke-width:1px;stroke-linecap:butt;stroke-linejoin:miter;stroke-opacity:1" />
      <path
         sodipodi:nodetypes="cccccc"
         inkscape:connector-curvature="0"
         id="path4721-5"
         d="m 769.89734,281.28537 c -12.49318,-22.4573 -54.03263,-54.59211 11.01807,-51.21384 -1.70649,-53.16576 15.75516,-21.46101 38.80809,35.00008 13.17196,-15.99822 32.04442,-51.53574 15.79665,33.30554 54.73195,20.20358 -4.27659,20.20304 -15.94189,18.72296 -16.9399,-33.84761 -33.17323,-26.91221 -49.68092,-35.81474 z"
         style="opacity:1;fill:#ff5555;fill-rule:evenodd;stroke:none;stroke-width:1px;stroke-linecap:butt;stroke-linejoin:miter;stroke-opacity:1" />
      <ellipse
         ry="9.419117"
         rx="10.020337"
         cy="316.25659"
         cx="781.00354"
         id="path5549"
         style="opacity:1;fill:#ffffff;fill-opacity:1;stroke:none;stroke-width:10;stroke-linecap:round;stroke-linejoin:round;stroke-miterlimit:4;stroke-dasharray:none;stroke-dashoffset:0;stroke-opacity:1" />
      <ellipse
         ry="6.6134224"
         rx="7.2146425"
         cy="318.06021"
         cx="781.00354"
         id="path5549-2"
         style="opacity:1;fill:#1a1a1a;fill-opacity:1;stroke:none;stroke-width:10;stroke-linecap:round;stroke-linejoin:round;stroke-miterlimit:4;stroke-dasharray:none;stroke-dashoffset:0;stroke-opacity:1" />
    </g>
  </g>
</svg>
