<?xml version="1.0" encoding="UTF-8" standalone="no"?>
<!-- Created with Inkscape (http://www.inkscape.org/) -->

<svg
   xmlns:dc="http://purl.org/dc/elements/1.1/"
   xmlns:cc="http://creativecommons.org/ns#"
   xmlns:rdf="http://www.w3.org/1999/02/22-rdf-syntax-ns#"
   xmlns:svg="http://www.w3.org/2000/svg"
   xmlns="http://www.w3.org/2000/svg"
   xmlns:sodipodi="http://sodipodi.sourceforge.net/DTD/sodipodi-0.dtd"
   xmlns:inkscape="http://www.inkscape.org/namespaces/inkscape"
   viewBox="0 0 1000 1000"
   id="svg4942"
   version="1.1"
   inkscape:version="0.91 r13725"
   sodipodi:docname="rooster.svg">
  <defs
     id="defs4944" />
  <sodipodi:namedview
     id="base"
     pagecolor="#ffffff"
     bordercolor="#666666"
     borderopacity="1.0"
     inkscape:pageopacity="0.0"
     inkscape:pageshadow="2"
     inkscape:zoom="0.7"
     inkscape:cx="374.21343"
     inkscape:cy="465.41122"
     inkscape:document-units="px"
     inkscape:current-layer="layer1"
     showgrid="false"
     inkscape:window-width="1366"
     inkscape:window-height="689"
     inkscape:window-x="0"
     inkscape:window-y="30"
     inkscape:window-maximized="1" />
  <metadata
     id="metadata4947">
    <rdf:RDF>
      <cc:Work
         rdf:about="">
        <dc:format>image/svg+xml</dc:format>
        <dc:type
           rdf:resource="http://purl.org/dc/dcmitype/StillImage" />
        <dc:title />
      </cc:Work>
    </rdf:RDF>
  </metadata>
  <g
     inkscape:label="Layer 1"
     inkscape:groupmode="layer"
     id="layer1">
    <path
       style="opacity:1;fill:#afe9c6;fill-rule:evenodd;stroke:none;stroke-width:1px;stroke-linecap:butt;stroke-linejoin:miter;stroke-opacity:1"
       d="m 408.04606,540.0298 c -90.72257,-8.4469 -174.32653,7.59828 -237.1606,95.10466 39.73828,-127.2562 131.85527,-127.20705 237.1606,-95.10466 z"
       id="path4751-9-2"
       inkscape:connector-curvature="0"
       sodipodi:nodetypes="ccc" />
    <path
       style="opacity:1;fill:#5fd38d;fill-rule:evenodd;stroke:none;stroke-width:1px;stroke-linecap:butt;stroke-linejoin:miter;stroke-opacity:1"
       d="M 411.85777,530.04841 C 333.61908,483.35131 251.25613,461.82416 156.8599,513.73607 247.53219,416.00276 330.6465,455.72158 411.85777,530.04841 Z"
       id="path4751-9-6"
       inkscape:connector-curvature="0"
       sodipodi:nodetypes="ccc" />
    <path
       style="opacity:1;fill:#de8787;fill-rule:evenodd;stroke:none;stroke-width:1px;stroke-linecap:butt;stroke-linejoin:miter;stroke-opacity:1"
       d="m 517.32942,435.71361 c 41.13933,-30.33307 154.32957,-84.74926 195.59695,-11.22278 41.2675,73.52649 -121.63122,214.7423 -176.35785,254.91735 -54.72675,40.17505 -56.42745,34.40984 -92.98879,28.85858 -36.56123,-5.55127 -86.81401,-36.64465 -102.60816,-70.54317 -15.79415,-33.89852 -7.09897,-71.78573 9.61949,-99.40174 16.71845,-27.61601 50.77891,-34.16709 78.55943,-51.30412 27.78053,-17.13704 47.03971,-20.97105 88.17893,-51.30412 z"
       id="path4747-2"
       inkscape:connector-curvature="0"
       sodipodi:nodetypes="zzzzzzzz" />
    <path
       style="opacity:1;fill:#87deaa;fill-rule:evenodd;stroke:none;stroke-width:1px;stroke-linecap:butt;stroke-linejoin:miter;stroke-opacity:1"
       d="m 404.29597,537.69588 c -21.57635,-28.9781 -50.05953,-49.66795 -57.81728,-95.22843 -18.1387,-41.72336 -36.2774,-21.08913 -54.41621,2.26735 -68.58688,50.60787 -78.83584,11.46514 -112.23348,7.93571 24.54085,-11.93671 58.96884,-9.0425 61.21833,-54.41625 9.01671,-72.18928 10.66781,-115.12132 112.23349,-57.81725 101.56557,57.30408 37.39788,131.42525 51.01515,197.25887 z"
       id="path4753-0"
       inkscape:connector-curvature="0"
       sodipodi:nodetypes="ccccczc" />
    <path
       style="opacity:1;fill:#afe9c6;fill-rule:evenodd;stroke:none;stroke-width:1px;stroke-linecap:butt;stroke-linejoin:miter;stroke-opacity:1"
       d="M 399.7613,546.76525 C 422.75071,458.5983 420.41985,373.50047 344.21136,297.35749 463.37817,357.1282 448.45098,448.02787 399.7613,546.76525 Z"
       id="path4751-9"
       inkscape:connector-curvature="0"
       sodipodi:nodetypes="ccc" />
    <path
       style="opacity:1;fill:#afe9c6;fill-rule:evenodd;stroke:none;stroke-width:1px;stroke-linecap:butt;stroke-linejoin:miter;stroke-opacity:1"
       d="M 403.16236,537.69588 C 229.95732,560.31737 226.69609,660.6791 337.40934,813.17808 292.42217,681.20774 327.52892,597.29384 403.16236,537.69588 Z"
       id="path4757-3"
       inkscape:connector-curvature="0"
       sodipodi:nodetypes="ccc" />
    <path
       style="opacity:1;fill:#87deaa;fill-rule:evenodd;stroke:none;stroke-width:1px;stroke-linecap:butt;stroke-linejoin:miter;stroke-opacity:1"
       d="M 403.16236,539.96322 C 342.51358,548.90887 238.80311,577.6304 261.45337,762.16286 199.97287,702.00575 226.80663,402.89217 403.16236,539.96322 Z"
       id="path4755-6"
       inkscape:connector-curvature="0"
       sodipodi:nodetypes="ccc" />
    <path
       style="opacity:1;fill:#5fd38d;fill-rule:evenodd;stroke:none;stroke-width:1px;stroke-linecap:butt;stroke-linejoin:miter;stroke-opacity:1"
       d="M 401.89519,535.11534 C 332.81047,461.72185 270.08862,490.1332 209.50472,552.75113 166.21689,632.63295 122.92907,600.84875 79.641135,624.89755 130.81768,593.96777 184.92639,573.78956 223.93394,498.2405 350.51912,388.23265 364.19059,483.52229 401.89519,535.11534 Z"
       id="path4759-0"
       inkscape:connector-curvature="0"
       sodipodi:nodetypes="ccccc" />
    <path
       style="fill:#de8787;fill-rule:evenodd;stroke:none;stroke-width:1px;stroke-linecap:butt;stroke-linejoin:miter;stroke-opacity:1"
       d="m 437.78126,673.77664 c -13.80402,-47.36675 72.01117,-42.22379 62.35195,-6.80204 -13.59662,29.22678 -29.83303,58.35188 -16.81832,99.40603 l -16.18261,2.68666 c -5.77154,-32.45055 3.55932,-65.55404 -29.35102,-95.29065 z"
       id="path4827-8"
       inkscape:connector-curvature="0"
       sodipodi:nodetypes="ccccc" />
    <path
       style="opacity:1;fill:#e5ff80;fill-rule:evenodd;stroke:none;stroke-width:1px;stroke-linecap:butt;stroke-linejoin:miter;stroke-opacity:1"
       d="m 465.28234,766.46023 c 19.45726,103.7264 -48.78283,46.98393 -44.08947,83.36918 35.59158,-14.21477 52.11005,-7.75336 67.33666,0 15.48766,-13.48439 37.61785,-8.03348 59.32034,-0.80153 22.01831,-20.29291 -59.32034,-2.40493 -63.32844,-84.17082 -8.87239,-6.84368 -15.12753,-5.83562 -19.23909,1.60317 z"
       id="path4829-7"
       inkscape:connector-curvature="0"
       sodipodi:nodetypes="cccccc" />
    <g
       id="g4157"
       inkscape:transform-center-x="-55.861813"
       inkscape:transform-center-y="-79.230159"
       transform="matrix(0.99766056,-0.06836236,0.06836236,0.99766056,-29.076925,57.949962)">
      <path
         sodipodi:nodetypes="ccccccccccc"
         inkscape:connector-curvature="0"
         id="path4715-3"
         d="m 766.12875,282.26833 c -51.85573,27.21937 -92.62629,83.30179 -159.48137,71.46647 -15.07316,-1.51439 -13.23954,16.12623 21.0155,24.05831 -21.5147,9.25797 -43.37343,18.56566 20.74268,15.42891 -58.64065,32.63355 -55.42962,39.97866 9.63269,22.03538 -68.65374,47.3278 -15.05433,35.67922 13.94324,35.89872 -47.76733,38.78898 -36.12938,45.11551 12.01672,31.49167 -25.73106,30.81665 -36.74187,49.94193 8.80581,24.14651 -23.21286,53.54539 18.0417,41.26314 20.55804,19.00919 4.91611,-73.64537 50.9347,-139.98576 104.62339,-204.96291 16.05972,-42.17229 -25.70544,-50.00002 -51.8567,-38.57225 z"
         style="opacity:1;fill:#e9afaf;fill-rule:evenodd;stroke:none;stroke-width:1px;stroke-linecap:butt;stroke-linejoin:miter;stroke-opacity:1" />
      <path
         sodipodi:nodetypes="zzzczz"
         inkscape:connector-curvature="0"
         id="path4717-6"
         d="m 809.5824,314.0461 c -23.01717,-20.76634 -57.92706,-24.45279 -46.64462,13.58565 11.28244,38.03844 -2.40469,25.22066 -19.87285,30.95796 -17.46812,5.7374 -66.23207,79.0881 27.02708,32.1079 -65.49233,78.09414 17.59378,48.20835 23.24149,-7.68529 5.64766,-55.89374 39.26607,-48.19987 16.2489,-68.96622 z"
         style="opacity:1;fill:#ff5555;fill-rule:evenodd;stroke:none;stroke-width:1px;stroke-linecap:butt;stroke-linejoin:miter;stroke-opacity:1" />
      <path
         sodipodi:nodetypes="cccccc"
         inkscape:connector-curvature="0"
         id="path4719-7"
         d="m 780.93043,364.16009 c -0.19756,-9.42611 -10.74309,-14.98552 15.9147,-33.64071 31.63944,-14.06733 50.20966,-5.05165 60.81352,18.03424 -13.68255,-4.50641 -28.72291,-14.89759 -38.76233,-3.61473 15.11101,0.85811 18.74119,9.73193 25.53905,16.39425 -25.12537,-8.10971 -43.65253,-1.12559 -63.50494,2.82695 z"
         style="opacity:1;fill:#e5ff80;fill-rule:evenodd;stroke:none;stroke-width:1px;stroke-linecap:butt;stroke-linejoin:miter;stroke-opacity:1" />
      <path
         sodipodi:nodetypes="cccccc"
         inkscape:connector-curvature="0"
         id="path4721-5"
         d="m 769.89734,281.28537 c -12.49318,-22.4573 -54.03263,-54.59211 11.01807,-51.21384 -1.70649,-53.16576 15.75516,-21.46101 38.80809,35.00008 13.17196,-15.99822 32.04442,-51.53574 15.79665,33.30554 54.73195,20.20358 -4.27659,20.20304 -15.94189,18.72296 -16.9399,-33.84761 -33.17323,-26.91221 -49.68092,-35.81474 z"
         style="opacity:1;fill:#ff5555;fill-rule:evenodd;stroke:none;stroke-width:1px;stroke-linecap:butt;stroke-linejoin:miter;stroke-opacity:1" />
      <ellipse
         ry="9.419117"
         rx="10.020337"
         cy="316.25659"
         cx="781.00354"
         id="path5549"
         style="opacity:1;fill:#ffffff;fill-opacity:1;stroke:none;stroke-width:10;stroke-linecap:round;stroke-linejoin:round;stroke-miterlimit:4;stroke-dasharray:none;stroke-dashoffset:0;stroke-opacity:1" />
      <ellipse
         ry="6.6134224"
         rx="7.2146425"
         cy="318.06021"
         cx="781.00354"
         id="path5549-2"
         style="opacity:1;fill:#1a1a1a;fill-opacity:1;stroke:none;stroke-width:10;stroke-linecap:round;stroke-linejoin:round;stroke-miterlimit:4;stroke-dasharray:none;stroke-dashoffset:0;stroke-opacity:1" />
    </g>
    <ellipse
       style="opacity:1;fill:#87de87;fill-opacity:1;stroke:none;stroke-width:10;stroke-linecap:round;stroke-linejoin:round;stroke-miterlimit:4;stroke-dasharray:none;stroke-dashoffset:0;stroke-opacity:1"
       id="path4165"
       cx="665"
       cy="460.00003"
       rx="25.714285"
       ry="22.857143" />
    <path
       style="fill:#decd87;fill-rule:evenodd;stroke:none;stroke-width:1px;stroke-linecap:butt;stroke-linejoin:miter;stroke-opacity:1"
       d="m 469.13312,775.84936 c 3.04636,35.29086 -1.4515,63.43542 -39.59903,59.70509 33.10196,8.1165 52.24274,-3.42136 39.59903,-59.70509 z"
       id="path4191"
       inkscape:connector-curvature="0"
       sodipodi:nodetypes="ccc" />
    <g
       id="g4246"
       transform="translate(518.57143,15.714285)">
      <path
         sodipodi:nodetypes="ccccc"
         inkscape:connector-curvature="0"
         id="path4827-8-2-3-6"
         d="m -65.258633,679.38758 c -29.462854,-39.57398 52.754104,-64.69521 56.0605036,-28.12924 -2.5449436,32.13403 -7.6766906,64.31692 18.8440717,98.25037 l -12.929368,10.32664 C -20.014287,731.4377 -24.041273,695.77307 -65.258633,679.38758 Z"
         style="fill:#de8787;fill-rule:evenodd;stroke:none;stroke-width:1px;stroke-linecap:butt;stroke-linejoin:miter;stroke-opacity:1" />
      <path
         sodipodi:nodetypes="cccccc"
         inkscape:connector-curvature="0"
         id="path4829-7-0-6-2"
         d="m -7.1483645,756.65175 c 54.4247915,90.41954 -29.3244965,61.05181 -12.2313085,93.51309 28.3954969,-25.73945 46.130369,-25.4474 63.1052,-23.49382 9.809701,-18.04069 32.451053,-20.65355 55.313011,-21.44808 13.554412,-26.6999 -56.431727,18.44311 -88.716138,-56.78617 -13.0322607,-3.3233 -16.776567,1.16345 -17.4707645,8.21498 z"
         style="opacity:1;fill:#e5ff80;fill-rule:evenodd;stroke:none;stroke-width:1px;stroke-linecap:butt;stroke-linejoin:miter;stroke-opacity:1" />
      <ellipse
         ry="7.6785712"
         rx="7.8571429"
         cy="658.90125"
         cx="-39.219872"
         id="path4189-9"
         style="opacity:1;fill:#87de87;fill-opacity:1;stroke:none;stroke-width:10;stroke-linecap:round;stroke-linejoin:round;stroke-miterlimit:4;stroke-dasharray:none;stroke-dashoffset:0;stroke-opacity:1" />
      <path
         sodipodi:nodetypes="ccc"
         inkscape:connector-curvature="0"
         id="path4191-7-2"
         d="m -2.91491,762.68678 c 18.023915,30.49366 26.153495,57.81137 -9.84898,70.96322 33.353025,-7.01371 45.612345,-25.70063 9.84898,-70.96322 z"
         style="fill:#decd87;fill-rule:evenodd;stroke:none;stroke-width:1px;stroke-linecap:butt;stroke-linejoin:miter;stroke-opacity:1" />
    </g>
    <path
       style="opacity:1;fill:#d35f5f;fill-rule:evenodd;stroke:none;stroke-width:1px;stroke-linecap:butt;stroke-linejoin:miter;stroke-opacity:1"
       d="m 493.85609,476.47761 c 33.69122,-26.27138 59.84781,-32.19942 63.48556,22.67343 l -9.06935,137.17427 c -17.86296,29.59802 -30.79676,41.12213 -30.60911,4.53469 -23.04272,21.38094 -45.89712,43.42098 -74.82237,44.21319 -61.4484,27.99496 -48.376,12.99707 -32.87645,-3.40101 -39.93243,8.72494 -112.00129,36.40214 -40.81219,-20.4061 -127.29288,30.46442 -51.46642,-6.77758 -36.27751,-23.8071 27.46584,-25.43881 70.65961,-125.84346 160.98142,-160.98137 z"
       id="path4749-7"
       inkscape:connector-curvature="0"
       sodipodi:nodetypes="ccccccccc" />
  </g>
</svg>
