<?xml version="1.0" encoding="UTF-8" standalone="no"?>
<!-- Created with Inkscape (http://www.inkscape.org/) -->

<svg
   xmlns:dc="http://purl.org/dc/elements/1.1/"
   xmlns:cc="http://creativecommons.org/ns#"
   xmlns:rdf="http://www.w3.org/1999/02/22-rdf-syntax-ns#"
   xmlns:svg="http://www.w3.org/2000/svg"
   xmlns="http://www.w3.org/2000/svg"
   xmlns:sodipodi="http://sodipodi.sourceforge.net/DTD/sodipodi-0.dtd"
   xmlns:inkscape="http://www.inkscape.org/namespaces/inkscape"
   viewBox="0 0 1000 1000"
   id="svg4942"
   version="1.1"
   inkscape:version="0.91 r13725"
   sodipodi:docname="rooster-3.svg">
  <defs
     id="defs4944" />
  <sodipodi:namedview
     id="base"
     pagecolor="#ffffff"
     bordercolor="#666666"
     borderopacity="1.0"
     inkscape:pageopacity="0.0"
     inkscape:pageshadow="2"
     inkscape:zoom="0.49497475"
     inkscape:cx="11.971248"
     inkscape:cy="618.5447"
     inkscape:document-units="px"
     inkscape:current-layer="layer1"
     showgrid="false"
     inkscape:window-width="1366"
     inkscape:window-height="689"
     inkscape:window-x="0"
     inkscape:window-y="30"
     inkscape:window-maximized="1" />
  <metadata
     id="metadata4947">
    <rdf:RDF>
      <cc:Work
         rdf:about="">
        <dc:format>image/svg+xml</dc:format>
        <dc:type
           rdf:resource="http://purl.org/dc/dcmitype/StillImage" />
        <dc:title />
      </cc:Work>
    </rdf:RDF>
  </metadata>
  <g
     inkscape:label="Layer 1"
     inkscape:groupmode="layer"
     id="layer1">
    <path
       style="opacity:1;fill:#afe9c6;fill-rule:evenodd;stroke:none;stroke-width:1px;stroke-linecap:butt;stroke-linejoin:miter;stroke-opacity:1"
       d="m 408.04606,540.0298 c -90.72257,-8.4469 -174.32653,7.59828 -237.1606,95.10466 39.73828,-127.2562 131.85527,-127.20705 237.1606,-95.10466 z"
       id="path4751-9-2"
       inkscape:connector-curvature="0"
       sodipodi:nodetypes="ccc" />
    <path
       style="opacity:1;fill:#5fd38d;fill-rule:evenodd;stroke:none;stroke-width:1px;stroke-linecap:butt;stroke-linejoin:miter;stroke-opacity:1"
       d="M 411.85777,530.04841 C 333.61908,483.35131 251.25613,461.82416 156.8599,513.73607 247.53219,416.00276 330.6465,455.72158 411.85777,530.04841 Z"
       id="path4751-9-6"
       inkscape:connector-curvature="0"
       sodipodi:nodetypes="ccc" />
    <path
       style="opacity:1;fill:#87deaa;fill-rule:evenodd;stroke:none;stroke-width:1px;stroke-linecap:butt;stroke-linejoin:miter;stroke-opacity:1"
       d="m 404.29597,537.69588 c -21.57635,-28.9781 -50.05953,-49.66795 -57.81728,-95.22843 -18.1387,-41.72336 -36.2774,-21.08913 -54.41621,2.26735 -68.58688,50.60787 -78.83584,11.46514 -112.23348,7.93571 24.54085,-11.93671 58.96884,-9.0425 61.21833,-54.41625 9.01671,-72.18928 10.66781,-115.12132 112.23349,-57.81725 101.56557,57.30408 37.39788,131.42525 51.01515,197.25887 z"
       id="path4753-0"
       inkscape:connector-curvature="0"
       sodipodi:nodetypes="ccccczc" />
    <path
       style="opacity:1;fill:#afe9c6;fill-rule:evenodd;stroke:none;stroke-width:1px;stroke-linecap:butt;stroke-linejoin:miter;stroke-opacity:1"
       d="M 399.7613,546.76525 C 422.75071,458.5983 420.41985,373.50047 344.21136,297.35749 463.37817,357.1282 448.45098,448.02787 399.7613,546.76525 Z"
       id="path4751-9"
       inkscape:connector-curvature="0"
       sodipodi:nodetypes="ccc" />
    <path
       style="opacity:1;fill:#afe9c6;fill-rule:evenodd;stroke:none;stroke-width:1px;stroke-linecap:butt;stroke-linejoin:miter;stroke-opacity:1"
       d="M 403.16236,537.69588 C 229.95732,560.31737 226.69609,660.6791 337.40934,813.17808 292.42217,681.20774 327.52892,597.29384 403.16236,537.69588 Z"
       id="path4757-3"
       inkscape:connector-curvature="0"
       sodipodi:nodetypes="ccc" />
    <path
       style="opacity:1;fill:#87deaa;fill-rule:evenodd;stroke:none;stroke-width:1px;stroke-linecap:butt;stroke-linejoin:miter;stroke-opacity:1"
       d="M 403.16236,539.96322 C 342.51358,548.90887 238.80311,577.6304 261.45337,762.16286 199.97287,702.00575 226.80663,402.89217 403.16236,539.96322 Z"
       id="path4755-6"
       inkscape:connector-curvature="0"
       sodipodi:nodetypes="ccc" />
    <path
       style="opacity:1;fill:#5fd38d;fill-rule:evenodd;stroke:none;stroke-width:1px;stroke-linecap:butt;stroke-linejoin:miter;stroke-opacity:1"
       d="M 401.89519,535.11534 C 332.81047,461.72185 270.08862,490.1332 209.50472,552.75113 166.21689,632.63295 122.92907,600.84875 79.641135,624.89755 130.81768,593.96777 184.92639,573.78956 223.93394,498.2405 350.51912,388.23265 364.19059,483.52229 401.89519,535.11534 Z"
       id="path4759-0"
       inkscape:connector-curvature="0"
       sodipodi:nodetypes="ccccc" />
  </g>
</svg>
