<?xml version="1.0" encoding="UTF-8" standalone="no"?>
<!-- Created with Inkscape (http://www.inkscape.org/) -->

<svg
   xmlns:dc="http://purl.org/dc/elements/1.1/"
   xmlns:cc="http://creativecommons.org/ns#"
   xmlns:rdf="http://www.w3.org/1999/02/22-rdf-syntax-ns#"
   xmlns:svg="http://www.w3.org/2000/svg"
   xmlns="http://www.w3.org/2000/svg"
   xmlns:sodipodi="http://sodipodi.sourceforge.net/DTD/sodipodi-0.dtd"
   xmlns:inkscape="http://www.inkscape.org/namespaces/inkscape"
   viewBox="0 0 1000 1000"
   id="svg4473"
   version="1.1"
   inkscape:version="0.91 r13725"
   sodipodi:docname="elephant-1.svg">
  <defs
     id="defs4475" />
  <sodipodi:namedview
     id="base"
     pagecolor="#ffffff"
     bordercolor="#666666"
     borderopacity="1.0"
     inkscape:pageopacity="0.0"
     inkscape:pageshadow="2"
     inkscape:zoom="0.35"
     inkscape:cx="273.59721"
     inkscape:cy="404.40617"
     inkscape:document-units="px"
     inkscape:current-layer="layer1"
     showgrid="false"
     inkscape:window-width="1366"
     inkscape:window-height="689"
     inkscape:window-x="0"
     inkscape:window-y="30"
     inkscape:window-maximized="1" />
  <metadata
     id="metadata4478">
    <rdf:RDF>
      <cc:Work
         rdf:about="">
        <dc:format>image/svg+xml</dc:format>
        <dc:type
           rdf:resource="http://purl.org/dc/dcmitype/StillImage" />
        <dc:title />
      </cc:Work>
    </rdf:RDF>
  </metadata>
  <g
     inkscape:label="Layer 1"
     inkscape:groupmode="layer"
     id="layer1">
    <path
       style="fill:#c8b7b7;fill-rule:evenodd;stroke:none;stroke-width:1px;stroke-linecap:butt;stroke-linejoin:miter;stroke-opacity:1"
       d="m 450.925,577.94525 c 4.6225,41.3056 16.9256,172.262 2.48472,210.74268 -14.44107,38.48061 137.66341,26.62445 121.19137,2.67656 C 558.12895,767.41673 551.47048,606.26653 564.05116,558.95461 576.632,511.64277 446.30257,536.63977 450.925,577.94525 Z"
       id="path5034"
       inkscape:connector-curvature="0"
       sodipodi:nodetypes="zzzzz" />
    <path
       style="fill:#e3dbdb;fill-rule:evenodd;stroke:none;stroke-width:1px;stroke-linecap:butt;stroke-linejoin:miter;stroke-opacity:1"
       d="M 573.84745,793.83743 C 537.61733,743.62945 545.5952,675.08702 556.97141,622.60962 c -0.85416,58.13661 1.28338,116.36351 16.87604,171.22781 z"
       id="path5096-3"
       inkscape:connector-curvature="0"
       sodipodi:nodetypes="ccc" />
    <path
       style="fill:#c8b7b7;fill-rule:evenodd;stroke:none;stroke-width:1px;stroke-linecap:butt;stroke-linejoin:miter;stroke-opacity:1"
       d="m 679.85963,775.09577 c -6.25644,49.89652 122.64473,58.08649 122.20618,2.50577 -0.43871,-55.58079 8.87219,-218.09652 19.96512,-269.26722 11.09295,-51.17068 -107.60141,-79.10082 -104.71461,-5.76684 2.8869,73.33377 -31.20025,222.63182 -37.45669,272.52829 z"
       id="path5036"
       inkscape:connector-curvature="0"
       sodipodi:nodetypes="zzzzz" />
    <path
       style="fill:#ac9393;fill-rule:evenodd;stroke:none;stroke-width:1px;stroke-linecap:butt;stroke-linejoin:miter;stroke-opacity:1"
       d="m 679.31875,776.79931 c 17.57781,-44.66518 38.3835,-84.92572 29.86846,-165.19574 z"
       id="path5079-2"
       inkscape:connector-curvature="0"
       sodipodi:nodetypes="ccc" />
    <path
       style="opacity:1;fill:#c8b7b7;fill-opacity:1;stroke:none;stroke-width:10;stroke-linecap:round;stroke-linejoin:round;stroke-miterlimit:4;stroke-dasharray:none;stroke-dashoffset:0;stroke-opacity:1"
       d="M 590.93245,277.48526 A 266.56313,192.63351 0 0 0 324.37479,470.13158 266.56313,192.63351 0 0 0 434.67006,625.95904 c -7.22489,55.48525 -21.24588,144.29853 -39.49239,172.15919 -22.51846,34.38346 128.48274,56.14243 117.65574,29.16831 -7.73915,-19.28098 4.84244,-105.49157 20.87366,-169.16342 a 266.56313,192.63351 0 0 0 57.22538,4.63862 266.56313,192.63351 0 0 0 136.37122,-27.36449 c 1.96444,67.73732 -0.51045,141.19003 1.07911,173.14172 2.49874,50.22503 130.85902,35.9135 120.78038,-18.74764 C 841.08543,745.98203 827.41862,634.21597 823.2966,564.3206 A 266.56313,192.63351 0 0 0 857.49012,470.13158 266.56313,192.63351 0 0 0 590.93245,277.48526 Z"
       id="path5032-0"
       inkscape:connector-curvature="0" />
    <path
       style="fill:#ac9393;fill-rule:evenodd;stroke:none;stroke-width:1px;stroke-linecap:butt;stroke-linejoin:miter;stroke-opacity:1"
       d="m 436.67567,624.20128 c -6.29043,59.79552 -18.31191,119.29909 -41.96819,175.23554 44.87677,-47.62523 45.05382,-113.09544 41.96819,-175.23554 z"
       id="path5077"
       inkscape:connector-curvature="0"
       sodipodi:nodetypes="ccc" />
    <path
       style="fill:#ac9393;fill-rule:evenodd;stroke:none;stroke-width:1px;stroke-linecap:butt;stroke-linejoin:miter;stroke-opacity:1"
       d="m 728.24393,803.11819 c 9.14382,-47.12047 22.26421,-90.49838 -0.73641,-167.87256 z"
       id="path5079"
       inkscape:connector-curvature="0"
       sodipodi:nodetypes="ccc" />
    <path
       style="fill:#e3dbdb;fill-rule:evenodd;stroke:none;stroke-width:1px;stroke-linecap:butt;stroke-linejoin:miter;stroke-opacity:1"
       d="m 512.881,827.04745 c -24.49387,-56.86388 -1.85781,-122.05087 20.61595,-170.8178 -13.42741,56.57115 -23.95358,113.8786 -20.61595,170.8178 z"
       id="path5096"
       inkscape:connector-curvature="0"
       sodipodi:nodetypes="ccc" />
    <path
       style="fill:#e3dbdb;fill-rule:evenodd;stroke:none;stroke-width:1px;stroke-linecap:butt;stroke-linejoin:miter;stroke-opacity:1"
       d="m 823.22452,562.35349 c -9.31684,79.48471 6.76598,155.58278 26.50624,231.19309 -11.32259,-74.57719 -22.83067,-148.96885 -26.50624,-231.19309 z"
       id="path5113"
       inkscape:connector-curvature="0"
       sodipodi:nodetypes="ccc" />
  </g>
</svg>
