<?xml version="1.0" encoding="UTF-8" standalone="no"?>
<!-- Created with Inkscape (http://www.inkscape.org/) -->

<svg
   xmlns:dc="http://purl.org/dc/elements/1.1/"
   xmlns:cc="http://creativecommons.org/ns#"
   xmlns:rdf="http://www.w3.org/1999/02/22-rdf-syntax-ns#"
   xmlns:svg="http://www.w3.org/2000/svg"
   xmlns="http://www.w3.org/2000/svg"
   xmlns:sodipodi="http://sodipodi.sourceforge.net/DTD/sodipodi-0.dtd"
   xmlns:inkscape="http://www.inkscape.org/namespaces/inkscape"
   viewBox="0 0 1000 1000"
   id="svg4473"
   version="1.1"
   inkscape:version="0.91 r13725"
   sodipodi:docname="elephant-6.svg">
  <defs
     id="defs4475" />
  <sodipodi:namedview
     id="base"
     pagecolor="#ffffff"
     bordercolor="#666666"
     borderopacity="1.0"
     inkscape:pageopacity="0.0"
     inkscape:pageshadow="2"
     inkscape:zoom="0.0875"
     inkscape:cx="-4178.3241"
     inkscape:cy="1954.9166"
     inkscape:document-units="px"
     inkscape:current-layer="svg4473"
     showgrid="false"
     inkscape:window-width="1366"
     inkscape:window-height="689"
     inkscape:window-x="0"
     inkscape:window-y="30"
     inkscape:window-maximized="1" />
  <metadata
     id="metadata4478">
    <rdf:RDF>
      <cc:Work
         rdf:about="">
        <dc:format>image/svg+xml</dc:format>
        <dc:type
           rdf:resource="http://purl.org/dc/dcmitype/StillImage" />
        <dc:title />
      </cc:Work>
    </rdf:RDF>
  </metadata>
  <g
     inkscape:label="Layer 1"
     inkscape:groupmode="layer"
     id="layer1">
    <path
       style="fill:#89a02c;fill-rule:evenodd;stroke:none;stroke-width:1px;stroke-linecap:butt;stroke-linejoin:miter;stroke-opacity:1"
       d="m 183.20868,636.92148 c 30.42635,13.20713 57.63479,16.76047 67.08125,-32.97212 44.53775,7.65213 97.95131,-90.52655 -17.05446,-81.86189 -1.87876,-38.53906 -22.55387,-30.62784 -42.06808,-25.0134 -22.98427,-48.41119 -51.58095,-77.18008 -104.601237,-20.46553 -161.48667,-20.74061 -39.068974,102.94692 -20.46531,81.86189 21.67999,108.59131 72.513577,78.70295 117.107837,78.45105 z"
       id="path4183-5-3"
       inkscape:connector-curvature="0"
       sodipodi:nodetypes="ccccccc" />
    <path
       inkscape:connector-curvature="0"
       style="opacity:1;fill:#decd87;fill-rule:evenodd;stroke:none;stroke-width:1px;stroke-linecap:butt;stroke-linejoin:miter;stroke-opacity:1"
       d="m 137.76576,478.78827 c 3.03041,0.0315 5.86386,2.60991 6.35752,9.25512 -1.28267,43.54299 -6.80143,88.06296 33.87188,121.96748 l 36.36922,-27.84842 -25.02149,-47.25954 c -4.95329,-11.02808 -0.82683,-29.38006 15.00573,-10.59159 l 24.63905,46.65738 34.21471,-26.19973 c 22.14575,-10.64134 18.3835,7.78876 9.34291,15.81479 l -75.93905,64.81531 c 23.42053,21.81798 49.14167,42.33889 46.4066,78.91117 l -46.35392,0.80454 c 1.33467,-13.39914 4.66875,-26.79919 -7.51391,-40.19856 -17.15125,-22.44918 -34.29823,-43.42234 -51.44948,-72.35578 -4.01009,-5.87961 -6.75597,-11.9715 -8.58227,-18.21512 L 43.629139,518.59559 c -9.9955,-6.79986 -16.09099,-24.59583 7.23679,-16.88316 l 75.138801,43.57969 c 0.5209,-18.96608 4.42654,-38.49898 3.64924,-57.24873 0,-5.13226 4.21561,-9.29677 8.11179,-9.25512 z"
       id="path4157-7-5" />
    <path
       style="fill:#89a02c;fill-rule:evenodd;stroke:none;stroke-width:1px;stroke-linecap:butt;stroke-linejoin:miter;stroke-opacity:1"
       d="m 753.06369,643.99159 c -41.1356,17.85566 -77.9206,22.65967 -90.692,-44.57734 -60.2137,10.34546 -132.4273,-122.38925 23.0572,-110.67488 2.5401,-52.10368 30.4922,-41.40795 56.8748,-33.81739 31.074,-65.45051 69.7359,-104.34521 141.41774,-27.66879 218.32527,-28.0407 52.8201,139.18122 27.6685,110.67488 -29.3107,146.81227 -98.03624,106.40408 -158.32624,106.06352 z"
       id="path4183-5-3-6"
       inkscape:connector-curvature="0"
       sodipodi:nodetypes="ccccccc" />
    <path
       inkscape:connector-curvature="0"
       style="opacity:1;fill:#decd87;fill-rule:evenodd;stroke:none;stroke-width:1px;stroke-linecap:butt;stroke-linejoin:miter;stroke-opacity:1"
       d="m 814.50109,430.20012 c -4.097,0.0426 -7.9278,3.52852 -8.5951,12.51265 1.7341,58.86885 9.1953,119.05854 -45.7938,164.89646 l -49.1701,-37.65025 33.8283,-63.89351 c 6.6967,-14.90964 1.1178,-39.72098 -20.2874,-14.31952 l -33.3112,63.07941 -46.2573,-35.42127 c -29.9405,-14.38678 -24.8539,10.53018 -12.6313,21.38114 l 102.6673,87.6284 c -31.6638,29.49727 -66.438,57.24094 -62.7404,106.6856 l 62.6691,1.08771 c -1.8043,-18.11525 -6.3119,-36.23172 10.1588,-54.34728 23.1879,-30.35063 46.3701,-58.70573 69.558,-97.8229 5.4216,-7.94906 9.13397,-16.18512 11.60307,-24.62631 l 115.57197,-75.372 c 13.5136,-9.19321 21.7545,-33.25284 -9.784,-22.82554 l -101.58537,58.91847 c -0.7043,-25.64159 -5.9845,-52.0495 -4.9337,-77.39861 0,-6.93867 -5.69927,-12.56896 -10.96687,-12.51265 z"
       id="path4157-7-5-2" />
  </g>
</svg>
