<svg xmlns="http://www.w3.org/2000/svg" viewBox="0 0 1000 1000" version="1.1"><path d="M142 612.5l5 27.6-77 24 61.5 300L903 963l63-304-15.6-12.8L958 604l-120.8-28.3-46 22-164.7-22-181 29-106-31.8-80 33z" fill="#fff" fill-rule="evenodd"/><path d="M148.4 963.8c-2-3.3-46.5-235.4-45.4-236.3 1.6-1.4 224-32 225-31 .5.8 35.7 263.2 35.8 267.3 0 .6-48.4 1-107.4 1-59 0-107.7-.4-108-1zM529.6 858.7L530 752l34.4-26.5c19-14.7 34.7-26.4 35-26 .8.7-8.8 262.4-9.7 263.4-.5.4-14.3 1-30.7 1.5l-29.8.8.4-106.6z" opacity=".8" fill="#afdde9" fill-opacity="1"/><path d="M131 961.7C128 949 71.5 668.5 71.8 668c.6-.4 108.6 8.4 109.3 9 .2.2-18 11-40.7 24.2-22.5 13-41 24.6-41 25.6 0 1.6 44 226.8 46 235 .7 3 .3 3-6.3 3-6.2 0-7.2-.3-8-3zM145.2 635.8l-2.2-11.3c-.8-4.2-1.4-8-1.3-8.4.2-.3 4 4 8.6 9.5l8.3 10-6.2 2-6.4 2-.8-3.7z" opacity=".8" fill="#afdde9" fill-opacity="1"/><path d="M367 963.4L349.2 829c-10.6-79.8-16.6-133.3-14.8-132.6 1.6.6 45.3 13.6 97 29l94 27.7v211.1h-79c-43.7 0-79.4-.2-79.4-.6zM594.3 932.3c1-17.5 3.2-76.4 5-130.8 1.8-54.5 3.5-99.3 3.7-99.6.2-.4 25.2 7.4 55.5 17.3l55 18-1 9.4c-.4 5.3-5.8 54.6-12 109.6-6 55-11 101.8-11 104 0 3-9.2 3.8-48.5 3.8h-48.4l1.7-31.7z" opacity=".8" fill="#87cdde" fill-opacity="1"/><path d="M693.5 953.5c1-5.8 6-52 11.6-102.5 12-109 12.5-113.6 16-111.6 4.7 3 2.2-3-9-21.2-6-10-10.7-18.5-10.3-19 .8-.7 189.7 25 191 26.2.8.6-34 198.3-40.8 231l-1.7 7.7H692l1.7-10.5z" opacity=".8" fill="#87cdde" fill-opacity="1"/><path d="M855 958c.8-3.7 11-58 22.4-121.2l21-114.5L886 704l-12.5-18.5 20.4-4.8c47-11 69.8-15.7 69.7-14 0 1-13.8 68-30.4 149l-30.3 147-24.8.8c-24.6.8-24.8.8-23.3-5.6zM930.6 629.6c-19.8-16.2-19.5-17.3 6-20.4 9.3-1 18.4-2.6 20.3-3.3 2.5-1 2.8 1.8 1 12.2-4 21.2-5.4 26.3-7.6 26-1.2 0-10-6.6-19.8-14.6z" opacity=".8" fill="#87cdde" fill-opacity="1"/></svg>