<svg xmlns="http://www.w3.org/2000/svg" viewBox="0 0 1000 1000" version="1.1"><g fill-opacity="1" fill-rule="evenodd"><path d="M712.3 224.2c-68.3.6-146.3 22-215.2 24-55-13.7-111-16-169 7.4-81 53-68 130.4-8.4 202.7 14.7 70.3-16.7 121-43.5 173.3-33.2 3.2-67.6 8-47.7 31 20 23 70 25.3 105 1.3 51.3-20.3 70-82.3 100.5-129l55 76.3c21 14.4-31.5 20-36.5 43s113.2 25.8 110.5-10.7c-10-46.7-10.4-91.5-34.6-141 47 9.6 94 21.6 141-1.2 7 45.4 61 131 21.4 136.2-12.8 5-18.2-1.3-29.8 20.3-11.6 21.6 109.8 33.4 113.5-7.3l8.3-70c-5.3-47.5 50-92 72.2-161.5l.7-8.6c9.8-19.7 29.7-29.2 19-69.3-27.8-95-89.5-117.7-162.2-117z" opacity="1" fill="#f9f9f9"/><path d="M849 352.5c-85.5 84-71 168-89.5 252-3.3 14.4-8 27-24 28.8-24 9.3-57.6 13-77 25.3-5.8 20.7 110.6 31 114-8.6l.8-5.7c-.2-25 1.4-50.2 7-75.3.7-9.7 3.8-19.4 8.3-29.4 2.6-7.4 5.6-14.8 9-22.2 5.3-6.3 9.8-12.3 14-18 14.3-23 30.2-48 40-78l-5-20v.2c1-16.5 1-32.4 2.5-49zm-332.6 11.7c-92.5 149.6-185 305-282.2 304.5 23 16.4 66.4 15.8 97.6-5.6 51.2-20 70-82 100.3-129l.4.5 10-20.3c54.7-4 84.6 33.8 96.8 101.8 6 17.5-4 22-11 28.7-21.2 10.5-42.3 16.7-63.5 21.5 30.3 9.4 98.5 4.5 96.5-23.4-10-46.6-10.5-91.4-34.7-141 46.6 9.5 93.2 21.5 140-.6l.3-1.8c-6-43 8.2-86.2 14.3-129.2-33.7 108-114.5 89.5-198.4 62.7l33.8-68.8z" opacity="1" fill="#f2f2f2"/></g></svg>