<svg xmlns="http://www.w3.org/2000/svg" viewBox="0 0 1000 1000" version="1.1"><g fill-rule="evenodd"><path d="M336.4 253.6l-7.8 3.3c-87.3 23.6-195.5 5.6-239 117L60 409.8c-9 7.6-8.7 15.2 2.4 22.7 7.7 7.5 13 16 34.7 18 26.8-.8 53 3 81-4.8 9.3-1 17-6.6 24-14.3-10 15.2 58.5 18 125.4 22.6l.5 2.4c70-40 152.3-93.6 8.4-202.8z" opacity="1" fill="#f9f9f9" fill-opacity="1"/><path d="M105 361.4c-3.7 4.8-.3 13.2 4.2 14.3 4.5 1 19 1.3 16.2-7.7-2.8-9-16.8-11.4-20.5-6.6z" opacity="1" fill="#fff"/><path d="M346 374.7c-47.2 39.4-90.3 31.3-132.7 15.6-38.5 55.5-98.8 33.2-150 43.2 7 7 12.8 15 33.5 16.8 27-.7 53.2 3 81.2-4.7 9.2-1 17-6.6 24-14.4l-.5.7.5-.5c-1 1.3-1 2.6-.8 3.8 4 11.7 65.6 14.3 126 18.6.2 0 .2 0 .2.2l.4 2 13-7.4c8.7-21.8 6.7-48 5-74z" opacity="1" fill="#f2f2f2" fill-opacity="1"/><path d="M106.2 363.6c-2.7 3.7-.2 10.2 3.3 11 3.4.7 14.5 1 12.4-6-2.2-7-13-8.7-15.8-5z" opacity="1" fill="#666"/><path d="M157 320.6c8-59.7 51.5-64 48.6-4.2-.4 15.6-11.6 17.4-11.7 7.5 8.5-40.2-11.3-59.4-37-3.4z" opacity="1" fill="#f2f2f2"/><path d="M59.8 409.7c11.4 11.4 6.8 17.6 3 24-11.4-6.3-22-12.7-3-24z" opacity="1" fill="gray"/></g></svg>