<?xml version="1.0" encoding="UTF-8" standalone="no"?>
<svg
   xmlns:dc="http://purl.org/dc/elements/1.1/"
   xmlns:cc="http://creativecommons.org/ns#"
   xmlns:rdf="http://www.w3.org/1999/02/22-rdf-syntax-ns#"
   xmlns:svg="http://www.w3.org/2000/svg"
   xmlns="http://www.w3.org/2000/svg"
   xmlns:sodipodi="http://sodipodi.sourceforge.net/DTD/sodipodi-0.dtd"
   xmlns:inkscape="http://www.inkscape.org/namespaces/inkscape"
   version="1.1"
   id="svg2"
   viewBox="0 0 1000 1000"
   inkscape:version="0.91 r13725"
   sodipodi:docname="lion-1.svg">
  <sodipodi:namedview
     pagecolor="#ffffff"
     bordercolor="#666666"
     borderopacity="1"
     objecttolerance="10"
     gridtolerance="10"
     guidetolerance="10"
     inkscape:pageopacity="0"
     inkscape:pageshadow="2"
     inkscape:window-width="1366"
     inkscape:window-height="689"
     id="namedview25"
     showgrid="false"
     inkscape:zoom="0.472"
     inkscape:cx="821.18384"
     inkscape:cy="416.28061"
     inkscape:window-x="0"
     inkscape:window-y="30"
     inkscape:window-maximized="1"
     inkscape:current-layer="svg2" />
  <metadata
     id="metadata61">
    <rdf:RDF>
      <cc:Work
         rdf:about="">
        <dc:format>image/svg+xml</dc:format>
        <dc:type
           rdf:resource="http://purl.org/dc/dcmitype/StillImage" />
        <dc:title />
      </cc:Work>
    </rdf:RDF>
  </metadata>
  <defs
     id="defs59" />
  <path
     inkscape:connector-curvature="0"
     style="fill:#e9c6af;fill-rule:evenodd;stroke:none;stroke-width:1px;stroke-linecap:butt;stroke-linejoin:miter;stroke-opacity:1"
     d="m 292.1599,915.72822 c -12.1367,-67.31263 -99.5194,-138.20841 34.2858,-198.57143 0.1518,-45.71429 18.6273,-91.42857 41.4285,-137.14286 l 237.1429,-1.42857 c 30.748,43.89742 51.8872,68.25635 57.1429,148.57143 125.4588,42.38422 59.1066,125.66669 37.1428,182.85714 -131.8597,25.03223 -267.6643,26.39503 -407.1429,5.71429 z"
     id="path4762" />
  <path
     inkscape:connector-curvature="0"
     style="fill:#a05a2c;fill-rule:evenodd;stroke:none;stroke-width:1px;stroke-linecap:butt;stroke-linejoin:miter;stroke-opacity:1"
     d="m 279.2468,929.19114 c -11.1943,-24.07135 4.3507,-28.82595 25.9869,-29.18015 7.0633,-12.68223 15.629,-19.89275 31.6362,0 28.2379,-3.73529 28.5699,11.00911 30.5064,24.6909 -4.5171,23.20619 -54.278,29.46182 -88.1295,4.48925 z"
     id="path4715-6" />
  <path
     inkscape:connector-curvature="0"
     style="fill:#a05a2c;fill-rule:evenodd;stroke:none;stroke-width:1px;stroke-linecap:butt;stroke-linejoin:miter;stroke-opacity:1"
     d="m 707.216,915.61971 c 11.1942,-24.07135 -4.3507,-28.82595 -25.9869,-29.18015 -7.0633,-12.68223 -15.629,-19.89275 -31.6362,0 -28.2379,-3.73529 -28.5699,11.00911 -30.5064,24.6909 4.5171,23.20619 54.2779,29.46182 88.1295,4.48925 z"
     id="path4715-6-8" />
  <path
     inkscape:connector-curvature="0"
     style="fill:#e9c6af;fill-rule:evenodd;stroke:none;stroke-width:1px;stroke-linecap:butt;stroke-linejoin:miter;stroke-opacity:1"
     d="m 362.1599,581.4425 c -17.907,122.38095 -10.1053,244.76191 -4.2857,367.14286 l 88.5714,1.42857 C 440.1258,849.06155 420.0237,748.10917 435.0171,647.15679 l 120,-2.85714 C 567.9544,746.20441 546.6497,846.6806 542.16,948.58536 l 92.8571,0 C 631.9103,828.59685 646.061,718.37042 607.8742,577.15679 Z"
     id="path4713" />
  <path
     inkscape:connector-curvature="0"
     style="fill:#e9c6af;fill-rule:evenodd;stroke:none;stroke-width:1px;stroke-linecap:butt;stroke-linejoin:miter;stroke-opacity:1"
     d="M 290.7314,401.4425 C 184.94809,71.653517 784.2665,165.91198 652.1599,410.01393 632.8414,588.17881 350.3146,696.04735 290.7314,401.4425 Z"
     id="path4617"
     sodipodi:nodetypes="ccc" />
  <path
     inkscape:connector-curvature="0"
     style="fill:#a05a2c;fill-rule:evenodd;stroke:none;stroke-width:1px;stroke-linecap:butt;stroke-linejoin:miter;stroke-opacity:1"
     d="m 350.313,953.5346 c -14.1538,-30.63996 5.5009,-36.692 32.8571,-37.14286 8.9307,-16.14297 19.7609,-25.3211 40,0 35.7033,-4.75458 36.123,14.01329 38.5715,31.42858 -5.7112,29.53872 -68.6276,37.5014 -111.4286,5.71428 z"
     id="path4715" />
  <path
     inkscape:connector-curvature="0"
     style="fill:#a05a2c;fill-rule:evenodd;stroke:none;stroke-width:1px;stroke-linecap:butt;stroke-linejoin:miter;stroke-opacity:1"
     d="m 644.0865,955.47638 c 14.1537,-30.63996 -5.5009,-36.692 -32.8572,-37.14286 -8.9307,-16.14297 -19.7609,-25.3211 -39.9999,0 -35.7033,-4.75458 -36.123,14.01329 -38.5715,31.42858 5.7112,29.53872 68.6275,37.5014 111.4286,5.71428 z"
     id="path4715-0" />
  <path
     inkscape:connector-curvature="0"
     style="fill:#deaa87;fill-rule:evenodd;stroke:none;stroke-width:1px;stroke-linecap:butt;stroke-linejoin:miter;stroke-opacity:1"
     d="m 354.9963,920.73904 7.4895,-235.78396 6.0609,232.56968 z"
     id="path4806" />
  <path
     inkscape:connector-curvature="0"
     style="fill:#deaa87;fill-rule:evenodd;stroke:none;stroke-width:1px;stroke-linecap:butt;stroke-linejoin:miter;stroke-opacity:1"
     d="m 543.9281,921.72118 -1.1301,-225.14934 12.1577,221.22975 c -2.973,0.68685 -8.7422,2.77435 -11.0276,3.91959 z"
     id="path4810" />
  <path
     inkscape:connector-curvature="0"
     style="fill:#deaa87;fill-rule:evenodd;stroke:none;stroke-width:1px;stroke-linecap:butt;stroke-linejoin:miter;stroke-opacity:1"
     d="m 289.3028,900.72822 12.8571,0 C 250.2131,818.32629 247.9304,752.7731 326.4457,717.87108 279.5508,744.83252 215.4078,754.80711 289.3028,900.72822 Z"
     id="path4812" />
  <path
     inkscape:connector-curvature="0"
     style="fill:#f4e3d7;fill-rule:evenodd;stroke:none;stroke-width:1px;stroke-linecap:butt;stroke-linejoin:miter;stroke-opacity:1"
     d="m 706.9478,890.01605 -16.1624,-2.02031 c 40.9194,-56.23527 78.3638,-112.28438 -28.2843,-160.61425 88.8529,26.629 92.7943,84.89168 44.4467,162.63456 z"
     id="path4814" />
  <path
     inkscape:connector-curvature="0"
     style="fill:#f4e3d7;fill-rule:evenodd;stroke:none;stroke-width:1px;stroke-linecap:butt;stroke-linejoin:miter;stroke-opacity:1"
     d="m 428.9773,916.04017 10.6283,0.0523 -10.4497,-210.93434 z"
     id="path4816" />
  <path
     inkscape:connector-curvature="0"
     style="fill:#f4e3d7;fill-rule:evenodd;stroke:none;stroke-width:1px;stroke-linecap:butt;stroke-linejoin:miter;stroke-opacity:1"
     d="m 616.1315,918.70437 10.6283,0.55737 -10.4497,-210.42926 z"
     id="path4816-4" />
  <path
     style="opacity:1;fill:#a05a2c;fill-opacity:1;stroke:none;stroke-width:10;stroke-linecap:round;stroke-linejoin:round;stroke-miterlimit:4;stroke-dasharray:none;stroke-dashoffset:0;stroke-opacity:1"
     d="m 464.42346,654.32773 c -5.27524,-3.81228 -9.84652,-9.65601 -14.26327,-18.23344 -1.84785,-3.5886 -3.98748,-6.73343 -4.75477,-6.9885 -0.76724,-0.25507 -5.14922,3.54576 -9.73772,8.4462 -4.5885,4.90044 -9.9415,9.89536 -11.89565,11.09977 -4.24703,2.61769 -10.143,2.83253 -13.49411,0.49168 -5.99902,-4.19044 -11.66114,-19.44764 -13.57736,-36.58561 -1.30597,-11.68049 -2.32058,-14.43779 -5.31262,-14.43779 -2.67927,0 -4.16881,4.16676 -4.95585,13.86292 -1.18178,14.55939 -8.6515,38.85869 -11.94539,38.85869 -1.95103,0 -5.61762,-6.60334 -7.92851,-14.27878 -1.0003,-3.32255 -2.49166,-13.45497 -3.31405,-22.51648 -2.06116,-22.71051 -3.00049,-24.64404 -11.22473,-23.10538 -6.0535,1.13258 -13.75901,9.21439 -19.9352,20.90865 -6.19602,11.73188 -8.03168,12.61188 -13.45609,6.45062 -6.75753,-7.67548 -10.38545,-20.04395 -12.84597,-43.79508 -0.93875,-9.06152 -2.03404,-17.35833 -2.43402,-18.43733 -0.51494,-1.38909 -2.26477,1.70584 -5.99412,10.60175 -5.28384,12.60396 -10.45128,21.12117 -13.52887,22.29895 -2.55259,0.97685 -5.77183,-2.67849 -9.80127,-11.12901 -6.9648,-14.6065 -11.03621,-34.50882 -12.14148,-59.35106 -0.87803,-19.73455 -1.53565,-25.23861 -3.29904,-27.6109 -1.47593,-1.98558 -1.56776,-1.98118 -3.16093,0.1518 -0.90245,1.20819 -3.25188,7.06137 -5.22092,13.00709 -3.91579,11.82395 -7.07722,17.05249 -9.09441,15.04078 -3.31373,-3.30471 -1.70159,-40.38411 2.69382,-61.95743 1.21514,-5.96413 1.90013,-11.15224 1.52222,-11.52911 -0.67471,-0.67284 -1.74567,0.40479 -13.52529,13.61153 l -5.85538,6.56472 0.57187,-12.63121 c 0.86485,-19.10149 7.34903,-43.12233 15.62383,-57.87885 2.18683,-3.89982 3.6938,-7.37218 3.34874,-7.71629 -0.34517,-0.34424 -4.37994,0.0124 -8.96636,0.79689 -10.54032,1.79807 -11.36462,1.16625 -8.74408,-6.702 2.99791,-9.00134 23.43832,-48.58073 31.66679,-61.31745 7.31664,-11.3253 8.60896,-14.36338 6.10973,-14.36338 -0.70748,0 -6.61713,2.4705 -13.13254,5.48996 -6.51546,3.01949 -12.9991,5.61442 -14.40808,5.76642 -4.18527,0.45165 -3.95633,-4.73782 0.61612,-13.96436 7.05276,-14.23149 16.50915,-22.81481 38.75798,-35.17946 13.65966,-7.59134 17.70067,-10.59694 16.61112,-12.35507 -0.35349,-0.57073 -5.49382,-3.90431 -11.4226,-7.40806 -13.40199,-7.92014 -26.97848,-18.00018 -26.43476,-19.62685 0.62984,-1.88447 7.06673,-2.55705 32.17561,-3.36203 31.60304,-1.01318 42.98238,-2.79811 44.34017,-6.95508 0.26075,-0.79883 -1.7465,-2.31107 -4.80139,-3.61697 -10.28826,-4.3981 -32.39823,-22.51997 -30.74022,-25.19544 0.9496,-1.5323 26.29644,-1.32755 56.73241,0.45834 13.62931,0.79975 25.11741,1.14286 25.52904,0.7625 0.41171,-0.38032 0.93634,-12.80104 1.16607,-27.60152 0.43554,-28.06807 1.23859,-33.33062 5.28134,-34.61023 3.29397,-1.04262 8.64673,2.45366 17.54268,11.45852 10.07667,10.19994 18.24347,21.82781 26.63784,37.92676 3.57913,6.86408 6.53662,11.40017 6.8289,10.4738 0.28362,-0.89866 1.53673,-10.03645 2.78485,-20.30619 2.33048,-19.17611 4.46561,-29.47103 6.54157,-31.54138 1.96322,-1.95784 7.49268,1.09816 12.96004,7.16265 7.33078,8.13137 13.50213,19.18179 19.276,34.51521 2.8143,7.47392 5.55508,13.56455 6.0906,13.53469 0.53552,-0.029 10.8182,-9.32218 22.85043,-20.64965 23.27446,-21.91116 28.84617,-26.44513 37.59669,-30.59414 6.23495,-2.95625 10.25478,-3.35308 11.1225,-1.09799 0.3248,0.84396 -1.1481,6.65156 -3.273,12.90581 -3.7007,10.89244 -6.43174,25.05662 -5.62769,29.18775 0.20918,1.07481 0.98009,5.78471 1.71311,10.4665 0.73302,4.68178 1.63438,8.49564 2.00301,8.47523 0.36847,-0.0207 3.24074,-3.85097 6.3825,-8.51235 11.77397,-17.46886 39.74934,-49.66395 43.15464,-49.66395 2.28381,0 2.69631,8.66605 1.43784,30.20507 -1.8474,31.6184 -0.27947,36.14548 10.27008,29.65554 13.16719,-8.10018 24.91454,-11.34044 34.69286,-9.56932 4.82942,0.87473 4.94806,0.99451 4.64048,4.68452 -0.17342,2.08272 -3.0612,10.1807 -6.41693,17.99545 -7.25121,16.88668 -7.23853,18.91457 0.16469,26.29758 2.70251,2.69512 11.61435,9.67218 19.80416,15.50455 8.1898,5.8324 18.18317,13.888 22.20745,17.90134 12.76425,12.72955 21.54871,28.66929 19.74644,35.83066 -0.89189,3.54393 -6.0493,5.0222 -17.55021,5.03037 l -8.61732,0.008 8.33037,9.33752 c 10.19094,11.42298 15.88579,22.30261 21.06205,40.23738 2.09654,7.26419 3.8119,13.90949 3.8119,14.76734 0,1.26738 -2.68347,1.55973 -14.31766,1.55973 -7.87474,0 -14.3177,0.30152 -14.3177,0.67047 0,0.36871 3.59319,4.48943 7.98486,9.15712 11.34337,12.05616 21.75186,31.32313 21.75186,40.26433 0,2.67862 -0.29236,2.86932 -3.57943,2.33302 -1.96866,-0.32102 -7.09173,-2.60629 -11.38454,-5.07795 -14.7493,-8.49216 -18.50734,-7.25067 -15.56616,5.14231 1.82448,7.6876 3.83839,21.26264 6.87822,46.36364 0.98766,8.15538 2.55841,18.53495 3.4906,23.06568 2.29154,11.13751 2.30701,13.24781 0.10729,14.65424 -2.7535,1.76067 -10.59892,-0.62738 -19.34603,-5.88864 -8.6983,-5.23194 -12.6145,-5.58916 -15.36737,-1.40179 -2.13514,3.24769 -2.21565,5.82345 -1.33163,42.61186 0.40589,16.8968 0.1676,21.00023 -1.63858,28.22995 l -2.11368,8.45939 -4.80675,-6.80768 c -5.1805,-7.33747 -9.13317,-18.18063 -9.13317,-25.05517 0,-13.53024 -9.85892,8.83702 -14.95183,33.9218 -2.96335,14.59572 -5.12344,21.11221 -6.9982,21.11221 -1.38552,0 -1.95689,-2.62865 -2.74356,-12.62163 -0.77922,-9.89913 -2.96401,-13.06138 -9.34847,-13.53091 -5.94965,-0.43751 -11.89744,2.95131 -22.21356,12.65655 -10.76847,10.13084 -15.36508,19.52482 -16.09186,32.88668 -0.69472,12.77193 -1.95764,16.8554 -5.21298,16.8554 -1.37338,0 -5.67156,-1.60638 -9.5515,-3.56969 -8.66302,-4.38371 -11.01071,-8.12847 -14.28821,-22.79109 -3.93205,-17.5907 -3.25326,-17.6727 -9.75112,1.17796 -6.61605,19.19352 -8.62788,23.55774 -12.53681,27.19545 -6.32598,5.88703 -11.8319,-0.20198 -19.64105,-21.7213 -2.64213,-7.28077 -5.05166,-13.22836 -5.35454,-13.21683 -0.30275,0.0124 -3.27654,6.2287 -6.60815,13.81601 -6.74996,15.37208 -13.47664,26.79804 -15.7765,26.79804 -0.83312,0 -3.44768,-1.39685 -5.81013,-3.1041 z m 27.34199,-74.80282 c 14.947,-3.81244 30.88553,-13.12973 50.46212,-29.49905 25.31836,-21.17044 54.39816,-56.27118 66.52105,-80.29427 12.5665,-24.90212 15.01882,-59.56805 6.52635,-92.25541 -4.54621,-17.49826 -11.73238,-30.94879 -22.79708,-42.66984 -4.7583,-5.04058 -5.17081,-5.83536 -3.35648,-6.46705 1.13775,-0.39608 5.09491,-2.12614 8.79374,-3.84454 13.9089,-6.46191 29.42573,-27.38006 30.90366,-41.66111 0.8367,-8.08467 -3.57261,-19.35482 -13.23581,-33.83064 -7.41245,-11.10408 -13.09798,-17.05855 -18.09849,-18.95455 -7.99609,-3.03185 -23.19211,5.89537 -44.09684,25.90569 -12.79028,12.24305 -9.77694,12.18075 -27.17793,0.56177 -20.37362,-13.60391 -26.1056,-15.32057 -51.21328,-15.33749 -25.63441,-0.0166 -30.69094,1.19807 -57.53176,13.8279 -25.21247,11.86365 -21.75598,11.66714 -28.8418,1.63961 -11.10487,-15.71503 -28.0123,-28.4734 -40.37058,-30.46375 -8.77526,-1.41328 -22.33591,9.30824 -29.07128,22.98485 -6.49478,13.18809 -7.63307,26.84081 -3.19345,38.30294 5.18861,13.39582 21.92183,32.9116 32.05006,37.37959 2.58927,1.14228 4.70782,2.72615 4.70782,3.51976 0,0.79361 -3.00677,5.09528 -6.68164,9.55929 -16.08591,19.54008 -25.13832,49.79032 -23.89045,79.83439 0.82397,19.83861 6.32453,34.21091 22.44267,58.64019 16.60459,25.16653 83.60098,85.84299 108.95493,98.67701 13.22171,6.69275 24.31805,7.98405 38.19447,4.44471 z"
     id="path4193"
     inkscape:connector-curvature="0" />
  <path
     style="fill:#deaa87;fill-rule:evenodd;stroke:none;stroke-width:1px;stroke-linecap:butt;stroke-linejoin:miter;stroke-opacity:1;fill-opacity:1"
     d="m 357.29866,229.9727 c -22.68844,-22.23725 -82.24721,50.93012 -5.24338,97.37699 -35.92036,-34.21686 -45.24927,-82.26981 5.24338,-97.37699 z"
     id="path4195"
     inkscape:connector-curvature="0"
     sodipodi:nodetypes="ccc" />
  <path
     style="fill:#f4e3d7;fill-opacity:1;fill-rule:evenodd;stroke:none;stroke-width:1px;stroke-linecap:butt;stroke-linejoin:miter;stroke-opacity:1"
     d="m 585.774,233.52391 c 22.68844,-22.23725 83.86281,60.89729 2.62169,95.69162 35.92036,-34.21686 47.87096,-80.58444 -2.62169,-95.69162 z"
     id="path4195-3"
     inkscape:connector-curvature="0"
     sodipodi:nodetypes="ccc" />
</svg>
