<?xml version="1.0" encoding="UTF-8" standalone="no"?>
<svg
   xmlns:dc="http://purl.org/dc/elements/1.1/"
   xmlns:cc="http://creativecommons.org/ns#"
   xmlns:rdf="http://www.w3.org/1999/02/22-rdf-syntax-ns#"
   xmlns:svg="http://www.w3.org/2000/svg"
   xmlns="http://www.w3.org/2000/svg"
   version="1.1"
   id="svg2"
   viewBox="0 0 1000 1000">
  <metadata
     id="metadata61">
    <rdf:RDF>
      <cc:Work
         rdf:about="">
        <dc:format>image/svg+xml</dc:format>
        <dc:type
           rdf:resource="http://purl.org/dc/dcmitype/StillImage" />
        <dc:title></dc:title>
      </cc:Work>
    </rdf:RDF>
  </metadata>
  <defs
     id="defs59" />
  <g
     id="g5136"
     transform="translate(-1211.8644,235.05373)">
    <path
       id="path5032-2-2-6"
       d="m 1737.8999,239.85271 -26.2639,3.85129 10.1015,29.26982 c 4.7301,12.38384 13.9931,15.8367 16.1624,-3.85131 z"
       style="fill:#e6e6e6;fill-rule:evenodd;stroke:none;stroke-width:1px;stroke-linecap:butt;stroke-linejoin:miter;stroke-opacity:1" />
    <path
       id="path5081-6"
       d="m 1731.7127,282.9351 c -9.0175,1.26363 -12.3447,-16.94895 -15.1523,-24.552 4.0386,8.58035 9.8432,21.66085 15.1523,24.552 z"
       style="fill:#c8b7b7;fill-rule:evenodd;stroke:none;stroke-width:1px;stroke-linecap:butt;stroke-linejoin:miter;stroke-opacity:1" />
    <path
       id="path5032-2-1"
       d="m 1639.2877,240.93456 26.2639,3.85129 -10.1015,29.26982 c -4.7301,12.38384 -13.9931,15.8367 -16.1624,-3.8513 z"
       style="fill:#e6e6e6;fill-rule:evenodd;stroke:none;stroke-width:1px;stroke-linecap:butt;stroke-linejoin:miter;stroke-opacity:1" />
    <path
       id="path5079-0"
       d="m 1639.2716,260.29247 c -0.1606,9.14941 0.096,24.82284 7.7679,23.6925 -4.7407,-4.81049 -6.6563,-14.10903 -7.7679,-23.6925 z"
       style="fill:#c8b7b7;fill-rule:evenodd;stroke:none;stroke-width:1px;stroke-linecap:butt;stroke-linejoin:miter;stroke-opacity:1" />
    <path
       id="path4138-4"
       d="m 1635.1001,151.27786 c -161.1916,58.9709 -11.1044,173.6474 45.4569,78.7919 z"
       style="fill:#d38d5f;fill-rule:evenodd;stroke:none;stroke-width:1px;stroke-linecap:butt;stroke-linejoin:miter;stroke-opacity:1" />
    <path
       id="path4138-3-4"
       d="m 1742.0478,149.06981 c 161.1916,58.9709 11.1044,173.6474 -45.4569,78.7919 z"
       style="fill:#d38d5f;fill-rule:evenodd;stroke:none;stroke-width:1px;stroke-linecap:butt;stroke-linejoin:miter;stroke-opacity:1" />
    <path
       id="path4136-3"
       d="m 1610.8564,155.31847 c 63.7468,-37.08093 109.0485,-23.43814 151.5229,-2.0203 -5.2529,39.62238 -43.0447,60.21068 -75.7614,84.85282 -29.9338,-21.9122 -66.7756,-45.20941 -75.7615,-82.83252 z"
       style="fill:#784421;fill-rule:evenodd;stroke:none;stroke-width:1px;stroke-linecap:butt;stroke-linejoin:miter;stroke-opacity:1" />
    <path
       id="path4619"
       d="m 1633.5739,165.64742 c 5.3662,-5.92057 11.6576,-8.60312 18.9286,-7.85715 l 15.3572,50.71429 c -10.2501,-14.58033 -10.494,-31.66224 -34.2858,-42.85714 z"
       style="fill:#28170b;fill-rule:evenodd;stroke:none;stroke-width:1px;stroke-linecap:butt;stroke-linejoin:miter;stroke-opacity:1" />
    <path
       id="path4619-8"
       d="m 1737.8598,168.92269 c -5.3662,-5.92057 -11.6576,-8.60312 -18.9286,-7.85715 l -15.3572,50.71429 c 10.2501,-14.58033 10.494,-31.66224 34.2858,-42.85714 z"
       style="fill:#28170b;fill-rule:evenodd;stroke:none;stroke-width:1px;stroke-linecap:butt;stroke-linejoin:miter;stroke-opacity:1" />
    <path
       id="path4833"
       d="m 1610.2653,161.72518 c -27.1289,15.97008 -64.9555,65.70709 4.0406,104.04571 -78.6369,-21.42763 -59.4166,-76.94781 -4.0406,-104.04571 z"
       style="fill:#c87137;fill-rule:evenodd;stroke:none;stroke-width:1px;stroke-linecap:butt;stroke-linejoin:miter;stroke-opacity:1" />
    <path
       id="path4643"
       d="m 1603.6127,182.49458 c 3.5513,3.03046 6.9776,6.06092 0,9.09138 -41.6207,-16.49845 -81.321,-6.1127 -121.7234,-5.55584 39.6065,-2.53364 70.1611,-17.73995 121.7234,-3.53554 z"
       style="fill:#502d16;fill-rule:evenodd;stroke:none;stroke-width:1px;stroke-linecap:butt;stroke-linejoin:miter;stroke-opacity:1" />
    <path
       id="path4643-4"
       d="m 1611.8974,201.77381 c 4.0959,2.24032 8.0694,4.50621 1.8589,8.89931 -44.1148,-7.63996 -80.8529,10.64366 -120.2879,19.4496 38.2518,-10.57823 65.0517,-31.71061 118.429,-28.34891 z"
       style="fill:#502d16;fill-rule:evenodd;stroke:none;stroke-width:1px;stroke-linecap:butt;stroke-linejoin:miter;stroke-opacity:1" />
    <path
       id="path4643-4-3"
       d="m 1619.1197,225.69552 c 4.5638,0.98344 9.0175,2.02619 4.3122,8.00363 -44.4665,5.21685 -74.4908,33.19046 -109.7952,52.84417 33.666,-21.01647 53.3525,-48.89595 105.483,-60.8478 z"
       style="fill:#502d16;fill-rule:evenodd;stroke:none;stroke-width:1px;stroke-linecap:butt;stroke-linejoin:miter;stroke-opacity:1" />
    <path
       id="path4833-9"
       d="m 1768.5399,160.41027 c 27.1289,15.97008 64.9556,65.70709 -4.0406,104.04571 78.637,-21.42763 59.4166,-76.94781 4.0406,-104.04571 z"
       style="fill:#deaa87;fill-rule:evenodd;stroke:none;stroke-width:1px;stroke-linecap:butt;stroke-linejoin:miter;stroke-opacity:1" />
    <path
       id="path4643-4-4"
       d="m 1759.5312,207.79511 c -4.0959,2.24032 -8.0694,4.50621 -1.8589,8.89931 44.1148,-7.63996 80.8529,10.64366 120.2879,19.4496 -38.2517,-10.57823 -65.0517,-31.71061 -118.429,-28.34891 z"
       style="fill:#502d16;fill-rule:evenodd;stroke:none;stroke-width:1px;stroke-linecap:butt;stroke-linejoin:miter;stroke-opacity:1" />
    <path
       id="path4643-1"
       d="m 1767.8159,188.51588 c -3.5513,3.03046 -6.9776,6.06092 0,9.09138 41.6207,-16.49845 81.321,-6.1127 121.7235,-5.55584 -39.6066,-2.53364 -70.1612,-17.73995 -121.7235,-3.53554 z"
       style="fill:#502d16;fill-rule:evenodd;stroke:none;stroke-width:1px;stroke-linecap:butt;stroke-linejoin:miter;stroke-opacity:1" />
    <path
       id="path4643-4-3-9"
       d="m 1752.3089,231.71682 c -4.5638,0.98344 -9.0175,2.02619 -4.3122,8.00363 44.4665,5.21685 74.4908,33.19046 109.7952,52.84417 -33.666,-21.01647 -53.3525,-48.89595 -105.483,-60.8478 z"
       style="fill:#502d16;fill-rule:evenodd;stroke:none;stroke-width:1px;stroke-linecap:butt;stroke-linejoin:miter;stroke-opacity:1" />
  </g>
</svg>
