<?xml version="1.0" encoding="UTF-8" standalone="no"?>
<svg
   xmlns:dc="http://purl.org/dc/elements/1.1/"
   xmlns:cc="http://creativecommons.org/ns#"
   xmlns:rdf="http://www.w3.org/1999/02/22-rdf-syntax-ns#"
   xmlns:svg="http://www.w3.org/2000/svg"
   xmlns="http://www.w3.org/2000/svg"
   xmlns:sodipodi="http://sodipodi.sourceforge.net/DTD/sodipodi-0.dtd"
   xmlns:inkscape="http://www.inkscape.org/namespaces/inkscape"
   version="1.1"
   id="svg2"
   viewBox="0 0 1000 1000"
   inkscape:version="0.91 r13725"
   sodipodi:docname="lion-7.svg">
  <sodipodi:namedview
     pagecolor="#ffffff"
     bordercolor="#666666"
     borderopacity="1"
     objecttolerance="10"
     gridtolerance="10"
     guidetolerance="10"
     inkscape:pageopacity="0"
     inkscape:pageshadow="2"
     inkscape:window-width="1366"
     inkscape:window-height="689"
     id="namedview25"
     showgrid="false"
     inkscape:zoom="0.236"
     inkscape:cx="483.25389"
     inkscape:cy="302.50828"
     inkscape:window-x="0"
     inkscape:window-y="30"
     inkscape:window-maximized="1"
     inkscape:current-layer="svg2" />
  <metadata
     id="metadata61">
    <rdf:RDF>
      <cc:Work
         rdf:about="">
        <dc:format>image/svg+xml</dc:format>
        <dc:type
           rdf:resource="http://purl.org/dc/dcmitype/StillImage" />
        <dc:title />
      </cc:Work>
    </rdf:RDF>
  </metadata>
  <defs
     id="defs59" />
  <path
     inkscape:connector-curvature="0"
     style="opacity:1;fill:#ffffff;fill-opacity:1;stroke:none;stroke-width:10;stroke-linecap:round;stroke-linejoin:round;stroke-miterlimit:4;stroke-dasharray:none;stroke-dashoffset:0;stroke-opacity:1"
     d="m 441.8151,343.28522 a 23.571428,21.071428 0 0 1 -23.5714,21.07143 23.571428,21.071428 0 0 1 -23.5715,-21.07143 23.571428,21.071428 0 0 1 23.5715,-21.07143 23.571428,21.071428 0 0 1 23.5714,21.07143 z"
     id="path4157-0" />
  <path
     inkscape:connector-curvature="0"
     style="opacity:1;fill:#000000;fill-opacity:1;stroke:none;stroke-width:10;stroke-linecap:round;stroke-linejoin:round;stroke-miterlimit:4;stroke-dasharray:none;stroke-dashoffset:0;stroke-opacity:1"
     d="m 428.9578,351.85669 a 10,10.357143 0 0 1 -10,10.35715 10,10.357143 0 0 1 -10,-10.35715 10,10.357143 0 0 1 10,-10.35714 10,10.357143 0 0 1 10,10.35714 z"
     id="path4159-78" />
  <path
     inkscape:connector-curvature="0"
     style="opacity:1;fill:#ffffff;fill-opacity:1;stroke:none;stroke-width:10;stroke-linecap:round;stroke-linejoin:round;stroke-miterlimit:4;stroke-dasharray:none;stroke-dashoffset:0;stroke-opacity:1"
     d="m 552.5293,342.92808 a 23.571428,21.071428 0 0 1 -23.5714,21.07142 23.571428,21.071428 0 0 1 -23.5714,-21.07142 23.571428,21.071428 0 0 1 23.5714,-21.07143 23.571428,21.071428 0 0 1 23.5714,21.07143 z"
     id="path4157-6-6" />
  <path
     inkscape:connector-curvature="0"
     style="opacity:1;fill:#000000;fill-opacity:1;stroke:none;stroke-width:10;stroke-linecap:round;stroke-linejoin:round;stroke-miterlimit:4;stroke-dasharray:none;stroke-dashoffset:0;stroke-opacity:1"
     d="m 538.5885,350.72822 a 10,10.357143 0 0 1 -10,10.35714 10,10.357143 0 0 1 -10,-10.35714 10,10.357143 0 0 1 10,-10.35715 10,10.357143 0 0 1 10,10.35715 z"
     id="path4159-78-2" />
</svg>
