<?xml version="1.0" encoding="UTF-8" standalone="no"?>
<svg
   xmlns:dc="http://purl.org/dc/elements/1.1/"
   xmlns:cc="http://creativecommons.org/ns#"
   xmlns:rdf="http://www.w3.org/1999/02/22-rdf-syntax-ns#"
   xmlns:svg="http://www.w3.org/2000/svg"
   xmlns="http://www.w3.org/2000/svg"
   viewBox="0 0 1000 1000"
   id="svg2"
   version="1.1">
  <metadata
     id="metadata61">
    <rdf:RDF>
      <cc:Work
         rdf:about="">
        <dc:format>image/svg+xml</dc:format>
        <dc:type
           rdf:resource="http://purl.org/dc/dcmitype/StillImage" />
        <dc:title></dc:title>
      </cc:Work>
    </rdf:RDF>
  </metadata>
  <defs
     id="defs59" />
  <g
     transform="translate(-1212.909,229.93746)"
     id="g4273">
    <rect
       style="opacity:1;fill:#e9c6af;fill-opacity:1;stroke:none;stroke-width:10;stroke-linecap:round;stroke-linejoin:round;stroke-miterlimit:4;stroke-dasharray:none;stroke-dashoffset:0;stroke-opacity:1"
       id="rect5119"
       width="104.25113"
       height="133.38171"
       x="1637.1776"
       y="238.26617" />
    <rect
       style="opacity:1;fill:#e9afaf;fill-opacity:1;stroke:none;stroke-width:10;stroke-linecap:round;stroke-linejoin:round;stroke-miterlimit:4;stroke-dasharray:none;stroke-dashoffset:0;stroke-opacity:1"
       id="rect5119-1"
       width="89.965179"
       height="127.38931"
       x="1643.9633"
       y="238.54433" />
    <path
       style="fill:#de8787;fill-rule:evenodd;stroke:none;stroke-width:1px;stroke-linecap:butt;stroke-linejoin:miter;stroke-opacity:1"
       d="m 1640.7143,318.0765 97.1428,0 -27.1428,46.42857 -41.4286,0 z"
       id="path4994" />
    <path
       style="fill:#d35f5f;fill-rule:evenodd;stroke:none;stroke-width:1px;stroke-linecap:butt;stroke-linejoin:miter;stroke-opacity:1"
       d="m 1640.7143,318.0765 c 15.2381,-2.53197 34.7619,-16.36512 50,0 27.7486,-15.68675 30.615,-0.71183 47.8571,-0.71429 -28.31,20.15112 -73.0534,27.12511 -97.8571,0.71429 z"
       id="path4992" />
    <path
       style="fill:#c83737;fill-rule:evenodd;stroke:none;stroke-width:1px;stroke-linecap:butt;stroke-linejoin:miter;stroke-opacity:1"
       d="m 1672.3934,310.18499 c -10.7793,0.27983 -21.9761,6.2769 -31.5,7.85938 6.5076,6.9292 14.3946,11.54015 22.9903,14.23828 -2.7959,-8.48599 1.844,-15.28471 8.8945,-22.09766 -0.1284,0.002 -0.2562,-0.003 -0.3848,0 z"
       id="path4992-7" />
    <path
       style="fill:#c83737;fill-rule:evenodd;stroke:none;stroke-width:1px;stroke-linecap:butt;stroke-linejoin:miter;stroke-opacity:1"
       d="m 1705.9267,311.62864 c -0.8248,0.19969 -1.691,0.45099 -2.582,0.73437 l -9.9121,4.2793 c -0.7845,0.41457 -1.5883,0.85043 -2.4161,1.31836 -0.063,-0.0678 -0.1281,-0.12462 -0.1914,-0.19141 l -0.5215,0.22461 c 6.841,1.43707 13.4475,3.34143 19.2852,6.78516 -1.7073,-4.28656 -4.7259,-8.30961 -3.6621,-13.15039 z"
       id="path4992-2" />
    <path
       style="fill:#e6e6e6;fill-rule:evenodd;stroke:none;stroke-width:1px;stroke-linecap:butt;stroke-linejoin:miter;stroke-opacity:1"
       d="m 1734.4319,364.47115 -26.2639,-2.52538 10.1015,-19.1929 c 4.7301,-8.12037 13.9931,-10.38449 16.1624,2.52539 z"
       id="path5032-2-2" />
    <path
       style="fill:#e6e6e6;fill-rule:evenodd;stroke:none;stroke-width:1px;stroke-linecap:butt;stroke-linejoin:miter;stroke-opacity:1"
       d="m 1648.6768,364.6985 26.2639,-2.52538 -10.1015,-19.1929 c -4.7301,-8.12037 -13.9931,-10.38449 -16.1624,2.52539 z"
       id="path5032-2" />
    <path
       style="fill:#d38d5f;fill-rule:evenodd;stroke:none;stroke-width:1px;stroke-linecap:butt;stroke-linejoin:miter;stroke-opacity:1"
       d="m 1640.5674,356.17786 c 25.6141,-6.83799 61.6004,-6.96445 110.1067,1.01015 4.2752,9.23421 5.4445,17.69194 -1.0102,24.24366 l -10.1015,20.20305 -10.1016,-14.14213 -11.1116,22.22335 -10.1016,-24.24366 -12.1218,56.56854 -17.1726,-53.53808 -9.0914,24.24366 -9.0913,-30.30458 -13.132,21.21321 -8.4383,-20.14178 c -6.4667,-8.75465 -5.6345,-18.58074 1.3672,-27.33539 z"
       id="path4155" />
    <path
       style="fill:#c87137;fill-rule:evenodd;stroke:none;stroke-width:1px;stroke-linecap:butt;stroke-linejoin:miter;stroke-opacity:1"
       d="m 1641.5998,355.77449 c -0.4967,0.1257 -0.9971,0.24831 -1.4863,0.37891 -7.0017,8.75465 -7.8339,18.57933 -1.3672,27.33398 l 8.4375,20.14258 0.418,-0.67383 -6.002,-47.18164 z m 20.1602,23.48828 -1.3496,3.46875 8.6758,28.91993 -0.8985,-28.45899 -6.4277,-3.92969 z m 73.2129,3.92969 -8.2129,1.78516 1.8496,3.2832 0.3965,-0.79297 10.0801,14.11328 -4.1133,-18.38867 z m -56.4277,0.71289 0.4003,5.96484 16.7266,52.14649 0.6309,-2.94141 -5.2578,-47.3125 -12.5,-7.85742 z m 28.5703,1.07227 0.5156,1.22851 0.1621,-0.75781 10.1016,24.24219 1.0136,-2.02735 -1.0781,-19.11328 -10.7148,-3.57226 z"
       id="path4155-7" />
    <path
       style="fill:#c8b7b7;fill-rule:evenodd;stroke:none;stroke-width:1px;stroke-linecap:butt;stroke-linejoin:miter;stroke-opacity:1"
       d="m 1648.6607,352.00507 c -0.1606,-5.99948 0.096,-16.27691 7.7679,-15.53572 -4.7407,3.15435 -6.6563,9.25162 -7.7679,15.53572 z"
       id="path5079" />
    <path
       style="fill:#c8b7b7;fill-rule:evenodd;stroke:none;stroke-width:1px;stroke-linecap:butt;stroke-linejoin:miter;stroke-opacity:1"
       d="m 1728.2447,336.22103 c -9.0175,-0.82859 -12.3447,11.11382 -15.1523,16.09931 4.0386,-5.62633 9.8432,-14.20352 15.1523,-16.09931 z"
       id="path5081" />
  </g>
</svg>
