<svg xmlns="http://www.w3.org/2000/svg" viewBox="0 0 1000 1000" version="1.1"><path d="M203 349.8a161.5 135 86 0 0-5.4 1 161.5 135 86 0 0-87.4 74c-23 25.5-67.4 45.6-42.4 83.6-26.4 31 22 67 55 100.3a161.5 135 86 0 0 21 25v.2-.2a161.5 135 86 0 0 103.4 35.4v.6l264.3-54.6c39.8-5.5 72-178.8-28.4-200.4-68-10-138.6-12.6-213.2-58.3v1.3a161.5 135 86 0 0-66.8-8z" opacity="1" fill="#afc6e9" fill-opacity="1"/><path d="M175 504.8c-32.8 0-69.2 2.2-110 7.3-20 30.2 26 64.8 57.8 96.7a161.5 135 86 0 0 21 25v.2-.2A161.5 135 86 0 0 247 669.2v.6l264.4-54.5c6.8-1 13.3-6.8 19-15.8C424 565.8 347.8 504.7 175 504.8z" opacity="1" fill="#d7eef4" fill-opacity="1"/><path d="M117.2 517.7c-18.8 26 .8 54 8 81.3-6.2-27.7-17-55-8-81.3zm39.4 0c-16.4 41.7 5.5 81.6 13.6 122.2-6.6-41-18.2-82.6-13.6-122.3zm-69.7.5c-11.8 15-2.5 28.6 2.4 42.4-3.2-14.2-7-28.3-2.5-42.4zm114 3.5c-19.3 35.3 7.7 83.5 35 131.8-15.3-42.7-44-80.5-35-131.8zm90.4 2.5c19.2 42.2 85.4 61 136 87.4-49.6-28-106-54-136-87.4zm-42.4 1c-5.7 37.4 44.7 72 75.3 107.6-27.7-35-66.6-65.8-75.3-107.6z" opacity="1" fill="#ac9393" fill-rule="evenodd"/><ellipse cx="215.7" cy="437.9" rx="21.4" ry="17.9" opacity="1" fill="#fff" fill-opacity="1"/><ellipse cx="215.7" cy="444.3" rx="11.4" ry="11.1" opacity="1" fill="#4d4d4d" fill-opacity="1"/></svg>