<svg xmlns="http://www.w3.org/2000/svg" viewBox="0 0 1000 1000" version="1.1"><g fill-rule="evenodd"><path d="M183.2 637c30.4 13 57.6 16.7 67-33 44.6 7.6 98-90.6-17-82-1.8-38.5-22.5-30.5-42-25-23-48.3-51.6-77-104.6-20.4-161.5-20.7-39 103-20.5 82C88 667 138.7 637 183.3 636.8z" fill="#89a02c"/><path d="M137.8 478.8c3 0 5.8 2.6 6.3 9.2-1.2 43.6-6.7 88 34 122l36.4-27.8-25-47.3c-5-11-1-29.5 15-10.7L229 571l34.2-26.2c22-10.7 18.4 7.8 9.3 15.8l-76 64.8c23.5 21.8 49.2 42.3 46.5 79l-46.3.7c1.3-13.3 4.6-26.7-7.6-40-17-22.5-34.2-43.5-51.3-72.4-4-6-6.8-12-8.6-18.3l-85.4-55.7c-10-6.8-16-24.6 7.3-17l75 43.7c.5-19 4.4-38.5 3.7-57.3 0-5 4.2-9.3 8-9.2z" opacity="1" fill="#decd87"/><path d="M753 644c-41 17.8-78 22.7-90.6-44.6-60.2 10.4-132.5-122.4 23-110.7 2.6-52 30.5-41.4 57-33.8 31-65.5 69.6-104.4 141.3-27.7 218.3-28 52.8 139 27.7 110.6-29.3 146.7-98 106.3-158.3 106z" fill="#89a02c"/><path d="M814.5 430.2c-4 0-8 3.5-8.6 12.5 1.6 59 9 119-46 165L711 570l33.8-64c6.7-14.8 1-39.7-20.3-14.3l-33.3 63-46.3-35.3c-30-14.4-25 10.5-12.7 21.4L735 628.4c-31.7 29.5-66.5 57.3-62.8 106.7l62.7 1.2c-2-18-6.4-36.2 10-54.4 23.2-30.3 46.4-58.7 69.6-97.8 5.4-8 9-16.2 11.6-24.6L941.8 484c13.5-9.2 21.7-33.2-9.8-22.8l-101.6 59c-.7-25.7-6-52-5-77.5 0-7-5.6-12.6-11-12.5z" opacity="1" fill="#decd87"/></g></svg>
