<svg xmlns="http://www.w3.org/2000/svg" viewBox="0 0 1000 1000" version="1.1"><path d="M287 163.4c-83.7 0-151.5 64.8-151.5 144.7 0 33.3 12 65.5 33.8 91.2 41.3 81.5 110.6 163 2.6 250.5-21 20 13.5 41.8 34.3 24 89.3-70.2 70-146.3 69.7-221.4 41.7 9 62.5-6 75.5-26 118.3 93.5 160.5-17.2 191-134.8 16.7-79.8-53.3-104.2-124-54.6-26.7-45.5-77-73.5-131.5-73.6z" opacity="1" fill="#c8b7b7" fill-opacity="1"/><path d="M282 426.6c34.6 5.7 53.8 3.8 76.6-8-26.8 54.8-108 77-237.8 72-80.8-6-112.2-24 1.5-26.5 50.7-2.8 114.8-6.5 159.8-37.4z" fill="#f4e3d7" fill-rule="evenodd"/><path d="M521.6 220.7c32 32-19 303.2-161.6 212.5 112.4 83 153.5-25.4 183.5-140.4 7.4-35.7-2.5-60.2-22-72z" opacity="1" fill="#e3dbdb" fill-opacity="1"/><path d="M212.4 412.7c-10.2 2.8-20.5 7.2-30.7 8.5l2.7 5c8-5.5 18.4-9.2 28-13.5zm9 23.7c-9.2 2.5-18.2 6-27.3 8l2.3 4c7.5-4.7 16.5-8 25-12zm25 57.6c-9 .4-18.2 1.8-27 1.6l1.4 4c8-2.5 17-3.8 25.7-5.6zm-18 31l.5 2.2c6-.2 12.3 0 18.5 0-6.3-1-12.7-1.4-19-2.2zm2.7 33v1.4l12.2 2.4c-4-1.4-8-2.5-12-3.7zm-7.6 32.4c0 .3-.2.6-.4 1 3 1.4 5.7 3 8.6 4.4-2.6-2-5.4-3.7-8.2-5.4z" opacity="1" fill="#ac9393" fill-opacity="1"/></svg>