<svg xmlns="http://www.w3.org/2000/svg" viewBox="0 0 1000 1000" version="1.1"><path d="M451 578c4.5 41.3 17 172.2 2.4 210.7-14.4 38.5 137.7 26.6 121.2 2.7-16.5-24-23-185-10.5-232.4 12.6-47.4-117.7-22.4-113 19z" fill="#c8b7b7" fill-rule="evenodd"/><path d="M573.8 793.8C537.6 743.6 545.6 675 557 622.6c-1 58 1.3 116.4 16.8 171.2z" fill="#e3dbdb" fill-rule="evenodd"/><path d="M680 775c-6.4 50 122.5 58.2 122 2.6-.4-55.6 9-218 20-269.3 11-51-107.6-79-104.7-5.7C720.3 576 686 725.2 680 775z" fill="#c8b7b7" fill-rule="evenodd"/><path d="M679.3 776.8c17.6-44.7 38.4-85 30-165.2z" fill="#ac9393" fill-rule="evenodd"/><path d="M591 277.5A266.6 192.6 0 0 0 324.3 470a266.6 192.6 0 0 0 110.3 156c-7.3 55.4-21.3 144.3-39.5 172-22.5 34.5 128.5 56.3 117.6 29.3-7.7-19.3 5-105.5 21-169.2a266.6 192.6 0 0 0 57 4.8 266.6 192.6 0 0 0 136.5-27.4c2 67.7-.5 141.2 1 173 2.6 50.4 131 36 121-18.6-8.2-43.8-22-155.6-26-225.5a266.6 192.6 0 0 0 34.2-94.2A266.6 192.6 0 0 0 591 277.6z" opacity="1" fill="#c8b7b7" fill-opacity="1"/><path d="M436.7 624.2c-6.3 59.8-18.3 119.3-42 175.2 45-47.6 45-113 42-175.2zM728.2 803c9.2-47 22.3-90.4-.7-167.8z" fill="#ac9393" fill-rule="evenodd"/><path d="M513 827c-24.6-56.8-2-122 20.5-170.8-13.4 56.6-24 114-20.6 170.8zM823.2 562.4c-9.3 79.4 6.8 155.5 26.5 231-11.3-74.4-22.8-148.8-26.5-231z" fill="#e3dbdb" fill-rule="evenodd"/></svg>