<svg xmlns="http://www.w3.org/2000/svg" viewBox="0 0 1000 1000" version="1.1"><g fill-rule="evenodd"><path d="M-38.6 450.2c144.2 48 293 76.5 467.2-6.4 125.5 49.5 269.3 92.5 790.7 1 165.2 33 325 75.2 556.4-3.2 0 0-45.8-216.2-128.6-334.5-82.7-118.2-196.5-128-294-4.2-97.8 123.8.2 257.2-140 276.2-140.5 19-198-121.2-306-263.3-107.8-142-258.8-147.5-360 0C446 263.2 518 326.3 427 327.2c-90.5 1-21.3-79-100-164-78.4-85-198.4-121.7-280 0-81.3 121.7-85.6 287-85.6 287z" fill="#5fd35f"/><path d="M721.6 4.4C658.8 5 597 40.4 547.2 113c-20 29-33 54.7-42 77.3 20-12.6 42-28 56.3-23.3 24.7 8.3-8 34.3 14.2 41 22.2 6.7 44-41 74.3-34.5 30.4 6.5 12.3 68.4 45.7 69 33.5.7 18.8-60.8 48.6-64.7 29.8-4 36.6 46 63 41 26.2-5 2.3-52 28.4-56 26.2-4.3 37.6 45.4 57.2 43 19.5-2.4-5.7-21.7 17-26 22-4 29.3 60.3 77.8 47-25-35.5-51-74.6-80.6-113.8C852.4 41 786.5 4 721.6 4.4zm779.2 7c-49.5 0-100.6 28.7-148 88.7-26.3 33.5-38.4 67.6-44.8 100 9.5-8.6 20-14.7 33.5-13.6 40 3.3 34.6 79 74.2 75.5 39.7-3.5 13-73.7 45.8-80 32.7-6 40.7 41 68.5 41 27.8.2 35-40.3 63-36.6 28 3.8 15.6 59.3 48.5 58.3 32-1 15.5-63 45.8-70.7-12.2-25-25.6-49-40-69.6-42.8-61-93.8-93-146.5-93zm-1326.6 71c-45.3.4-90 23-127 78-10.7 16-20 32.8-28.3 49.8 21.7-9.5 42-17 54-10.8 30 15-15 47.8 8.5 54 23.4 6 29-42 54.2-41 25.3.7 24.6 45.3 48.6 43 24-2 4.4-45 31.4-47.4 27-2.4 34.7 61 60 54 25.4-7-27-39.7 0-52 24-10.6 63.4 38.8 94.3 43.8-4-27.3-12-60-42.8-93.3-43-46.4-98.3-78.5-153-78z" opacity="1" fill="#f9f9f9"/><path d="M53 269c-59-25.8 55.2-136 91.3-119.8 36 16-32.6 145.5-91.4 119.8z" opacity=".2" fill="#fff"/><path d="M-1368.6 450c144.2 47.7 293 76.4 467.2-6.6C-776 493-632 536-110.7 444.4c165.2 33 324 74.3 555.4-4-7 4.2 6-74.2-28.3-112.7-51-57.7-70-153.8-99.3-221-59.5-136.6-196.5-128-294-4.3-97.8 123.8.2 257.3-140 276.3-140.5 19-198-121.3-306-263.3-107.8-142-258.8-147.5-360 0C-884 263-812 326-903 327c-90.5.8-21.3-79.3-100-164-78.4-85-198.4-121.8-280 0-81.3 121.6-85.6 287-85.6 287z" fill="#5fd35f"/><path d="M-608.4 4c-62.8.5-124.7 36-174.4 108.7-20 29-33 54.6-42 77.2 20-12.6 42-28 56.3-23.4 24.7 8.3-8 34.3 14.2 41 22.2 6.8 44-41 74.3-34.5 30.4 6.7 12.3 68.5 45.7 69.2 33.5.6 18.8-61 48.6-64.8 29.8-4 36.6 46 63 41 26.2-5 2.3-52 28.4-56 26.2-4.3 37.6 45.5 57.2 43 19.5-2.3-5.7-21.6 17-25.8 22-4 29.3 60.2 77.8 47-25-35.7-51-74.7-80.6-114-54.8-72-120.7-109-185.6-108.5zM187 1C137.5 1 70.2 39.7 23 99.6c-26.5 33.4-38.6 67.6-45 100C-12.5 191-2 185 11.5 186c40 3.3 34.6 79 74.2 75.6 39.7-3.5 13-73.6 45.8-80 32.7-6 40.7 41 68.5 41 27.8.3 35-40.3 63-36.5 28 3.8 15.6 59.4 48.5 58.3 32-1 5-51 35.3-58.6-12.2-25-11-65-25.6-85.7C278.5 39 239.7.8 187 1zm-1342.8 81c-45.3.4-90 23-127 78.2-10.7 16-20 32.7-28.3 49.7 21.7-9.7 42-17 54-11 30 15.2-15 47.8 8.5 54 23.4 6 29-41.8 54.2-41 25.3.7 24.6 45.3 48.6 43 24-2 4.4-45 31.4-47.4 27-2.4 34.7 61 60 54 25.4-7-27-39.6 0-51.8 24-10.8 63.4 38.7 94.3 43.7-4-27.3-12-60-42.8-93.3-43-46.5-98.3-78.5-153-78z" opacity="1" fill="#f9f9f9" fill-opacity="1"/></g></svg>