<svg xmlns="http://www.w3.org/2000/svg" viewBox="0 0 1000 1000" version="1.1"><g fill-rule="evenodd"><path d="M-391.4 697c144.2 63.5 292.8 101.4 467-8.4C201.4 754 345 811 866.5 690c165.2 43.6 325 99.5 556.5-4.3 0 0-46-286.3-128.7-442.8-82.8-156.7-196.6-169.7-294.3-6-97.7 164 .3 340.7-140 366-140.3 25-197.8-160.6-305.7-348.7-108-188-259-195.3-360 0S165 533 74.3 534.3C-16.3 535.5 53 429.5-25.7 317c-78.6-112.2-198.6-161-280 0-81.5 161.3-85.7 380-85.7 380z" fill="#5fd35f"/><path d="M368.8 107c-63 .5-124.7 47.6-174.5 143.7-19.8 38.3-33 72.3-42 102.3 20-16.6 42-37.2 56.3-31 24.7 11-8 45.5 14.3 54.4 22 9 43.8-54.3 74.2-45.7 30.3 8.7 12.2 90.6 45.7 91.4 33.3 1 18.6-80.4 48.5-85.6 29.8-5 36.5 61 62.8 54.3 26.3-6.6 2.4-68.7 28.6-74.3 26-5.5 37.4 60.4 57 57.2 19.6-3.2-5.6-28.7 17.2-34.3 22-5.4 29.2 79.7 77.7 62-25-47-51-98.7-80.7-150.6-54.8-95.5-120.7-144.4-185.5-143.7zm779.2 9.2c-49.6 0-100.7 38-148 117.4-26.3 44.2-38.4 89.4-44.8 132.2 9.4-11.3 20-19.4 33.4-18 40 4.4 34.6 104.7 74.3 100 39.6-4.5 13-97.4 45.6-105.7 32.8-8 40.8 54.3 68.6 54.4 27.8.2 34.8-53.5 62.8-48.5 28 4.8 15.8 78.4 48.6 77 32-1.4 15.6-83.4 45.8-93.6-12.2-33.2-25.6-64.6-40-92-42.8-81-93.7-123.4-146.4-123.2zm-1326.7 94c-45.3.4-90 30.4-127 103.4-10.7 21-20 43.3-28.2 65.8 21.8-12.6 42-22.4 54-14.4 30.2 20-14.8 63.3 8.6 71.4 23.4 8 29-55.3 54.3-54.3 25.2 1.2 24.4 60.2 48.5 57.3 24-3 4.3-59.7 31.4-63 27-3 34.5 80.8 60 71.6 25.2-9.4-27-52.6 0-68.7C-53.3 365-13.8 430.5 17 437c-4-36-12-79.2-43-123.4-42.8-61.5-98.2-104-153-103.4z" opacity="1" fill="#f9f9f9"/><path d="M394.2 109.8c194 114 205.3 397.2 397.3 487l-3-3.7C696 555.5 641.6 404 554 251.3c-47.5-82.8-103.4-130.5-159.6-141.4zm774.7 9c153.5 113.3 164.3 356 248.6 536.3-13.7-75.3-56.5-288-123.8-415.2-37-69.8-80-111-125-121zm-1319.6 95.4C-64 263.8-4 354.2 22.4 499.8l.3-9c-8-40.8-.5-107.6-49-176.8-35.4-50.7-79.3-88.4-124.3-99.8z" opacity=".1" fill="#1a1a1a"/><path d="M-300 457c-59-34 55.3-179.7 91.4-158.4C-172.6 320-241 491.2-300 457zM198 435.2c-76-45.6 71.5-240.6 118-212 46.7 28.4-42 257.5-118 212zM997.6 415.3c-59-34 55.3-180 91.4-158.6 36 21.3-32.6 192.6-91.4 158.6z" fill="#fff" opacity=".2"/></g></svg>