<svg xmlns="http://www.w3.org/2000/svg" viewBox="0 0 1000 1000" version="1.1"><path d="M746.7 223.6c-41.2 0-80.4 18.4-107.8 50.5-51.8-44.4-164 25.8-21 32-10.4 21.2-19.8 69 4 94 78 81.4 22.7 125.7 124.7 125 102-.7 74.6-80.8 126.7-124.3 28.6-23.8 12.8-71.8 3.2-92.3 142-6.3 31.3-76-20.6-32.5-27.4-33.3-67.3-52.4-109.3-52.4z" opacity="1" fill="#f2f2f2" fill-opacity="1"/><path d="M747.2 223a144.6 150.7 0 0 0-93.2 36.7c18.7 4.2 37.5 7.6 39 20 3.2 26.3-53 30.6-44.6 49.5 8.3 18.8 38 8.7 57 0 19-8.8 30-41 44.6-52 14.5-11 30.8-2.8 37.2-17.4 3.7-8.7 7.3-19 3.4-29.6-6.5-2.2-13-3.8-20-5a144.6 150.7 0 0 0-4.5-.8l-6-.7a144.6 150.7 0 0 0-11.6-.6h-1.2zM890 361.5c-22.5 1.8-43 6.5-55.8 10-34.7 9-24.8 21-42 34.6-17.4 13.7-69 24-62 47 6.8 23.3 46 12.4 67 5 20.6-7.3 26.7-55.4 47-44.6 4.5 2.5 7.2 6.7 8.5 12 5.3-9.2 12-17.7 21-25.2 12-10 16-24.2 16.2-38.8zM675.5 468c-2.7 0-5.7 0-9 .5 6.8 17.8 10 31.5 19 41a144.6 150.7 0 0 0 62 15h1.5a144.6 150.7 0 0 0 7.2-.3l3.3-.2a144.6 150.7 0 0 0 12-1.6c.8 0 1.5-.2 2.2-.4a144.6 150.7 0 0 0 7.2-1.7c20-5.5 32-16 40.7-29-16 5.4-36.4-2-52-1-19 1.2-35.6 6.5-52 2.4-16.3-4-18.8-24.5-42-24.7z" opacity="1" fill="gray" fill-opacity="1"/><path d="M830.2 261c-27 3.6-38.6-4.5-35-24.4 40 3.6 62.3-37.5 89.3-66.6-1.5 35-11 67.7-54.3 91zM661.7 261c27 3.5 38.5-4.7 35-24.5-40 3.6-62.3-37.5-89.3-66.6 1.5 35 11 67.6 54.3 91z" fill="#f9f9f9" fill-rule="evenodd"/><path d="M607.4 169.7c.5 12 2 23.4 5.3 34.4a41.4 38.4 0 0 0 18.6-6c-8-9.5-15.7-19.4-24-28.3zm277.2.2c-8.2 8.6-16 18.4-23.7 27.8a41.4 38.4 0 0 0 18.5 5.8c3-10.8 4.5-22.2 5-33.7z" fill="#4d4d4d" fill-rule="evenodd"/></svg>