<svg xmlns="http://www.w3.org/2000/svg" viewBox="0 0 1000 1000" version="1.1"><g fill-rule="evenodd"><path d="M-391.4 718.3c144.2 42.3 292.8 67.7 467-5.7 125.7 43.8 269.4 82 790.8 1 165.2 29 325 66.4 556.5-3 0 0-46-191-128.7-295.7-82.8-104.7-196.6-113.4-294.3-4-97.7 109.5.3 227.6-140 244.3C719.7 672 662.2 548 554.3 422.5c-108-125.6-259-130.4-360 0s-29.4 186.2-120 187c-90.6.8-21.4-70-100-145s-198.6-107.6-280 0c-81.5 107.6-85.7 253.8-85.7 253.8z" fill="#5fd35f"/><path d="M368.8 324c-63 .5-124.7 32-174.5 96-19.8 25.7-33 48.4-42 68.4 20-11 42-24.8 56.3-20.6 24.7 7.4-8 30.4 14.3 36.3 22 6 43.8-36.2 74.2-30.4 30.3 5.7 12.2 60.5 45.7 61 33.3.6 18.6-53.8 48.5-57.2 29.8-3.5 36.5 40.6 62.8 36.2 26.3-4.4 2.4-46 28.6-49.6 26-3.7 37.4 40.3 57 38.2 19.6-2-5.6-19.2 17.2-23 22-3.5 29.2 53.3 77.7 41.6-25-31.5-51-66-80.7-100.7-54.8-63.7-120.7-96.3-185.5-96zm779.2 6.2c-49.6 0-100.7 25.4-148 78.5-26.3 29.5-38.4 59.7-44.8 88.3 9.4-7.6 20-13 33.4-12 40 3 34.6 70 74.3 66.8 39.6-3 13-65 45.6-70.6 32.8-5.5 40.8 36 68.6 36.3 27.8 0 34.8-35.8 62.8-32.5 28 3.3 15.8 52.5 48.6 51.5 32-1 15.6-55.7 45.8-62.5-12.2-22-25.6-43.2-40-61.5-42.8-54-93.7-82.4-146.4-82.3zm-1326.7 63c-45.3.2-90 20-127 69-10.7 14-20 28.8-28.2 44 21.8-8.6 42-15 54-9.7 30.2 13.4-14.8 42.3 8.6 47.7 23.4 5.4 29-37 54.3-36.3 25.2.6 24.4 40 48.5 38 24-2 4.3-39.8 31.4-42 27-2 34.5 54 60 47.8 25.2-6.2-27-35 0-45.8 23.8-9.5 63.3 34.2 94.2 38.6-4-24-12-53-43-82.5-42.8-41-98.2-69.3-153-69z" opacity="1" fill="#f9f9f9"/><path d="M394.2 326c194 76 205.3 265.3 397.3 325.4-1-1-2-1.7-3-2.6-92.6-25.2-147-126.2-234.7-228.4-47.5-55.3-103.4-87.2-159.6-94.4zm774.7 6c153.5 75.7 164.3 237.7 248.6 358.2-13.7-50.4-56.5-192.4-123.8-277.4-37-46.6-80-74-125-80.7zm-1319.6 63.7C-64 429-4 489.3 22.4 586.5l.3-6c-8-27.3-.5-72-49-118-35.4-34-79.3-59.2-124.3-66.8z" opacity=".1" fill="#1a1a1a"/><path d="M-300 558c-59-22.7 55.3-120 91.4-106 36 14.3-32.5 128.8-91.4 106zM198 543.3c-76-30.4 71.5-160.7 118-141.6 46.7 19-42 172-118 141.6zM997.6 530c-59-22.7 55.3-120 91.4-106 36 14.3-32.6 128.8-91.4 106z" opacity=".2" fill="#fff"/></g></svg>