<svg xmlns="http://www.w3.org/2000/svg" viewBox="0 0 1000 1000" version="1.1"><g transform="matrix(1.22682 0 0 1.22682 1810.572 -703.506)"><rect ry="0" y="887.4" x="-917.4" height="73.3" width="90.7" opacity="1" fill="#f4d7d7" fill-opacity="1"/><path d="M-883.5 968.2c-1.7-9.8-39-28-32-41 6.7-13.3 29 2.5 43.8 2.4 15 0 37-14.6 44-2.5 6.7 12.2-22.4 31.3-24.7 41.2-2.3 10-29.4 9.7-31 0z" fill="#c83737" fill-rule="evenodd"/><path d="M-906.5 921.6c-3.8 0-7 1.5-9 5.2-1.7 3.4-.4 7.2 2.3 11 26.7 8.8 54.7 9 84 1 2.6-4.4 3.6-8.5 1.7-12-6.8-12-29 2.4-44 2.5-10.6 0-25-8-35-7.7z" fill="#782121" fill-rule="evenodd"/><path d="M-913.7 954l-.7-9.2c.6-1.5 1.4-3 4.3-2.5 27.4 11.3 52.4 8 76.6.3 3-.5 5.4 0 6.2 3v11.3l-41.8 14.6z" fill="#fff" fill-rule="evenodd"/><path d="M-909.4 952.4c-16-7.5-16.6 11.7 0 20.7 16.7 9 62.3 6.2 78.3.6 16-5.7 15-29.3-1-21.2-16.2 8-61.3 7.4-77.4 0z" fill="#de8787" fill-rule="evenodd"/></g></svg>