<svg xmlns="http://www.w3.org/2000/svg" viewBox="0 0 1000 1000" version="1.1"><path d="M694 471.5c1 2.2.7 4.4 4 6.5 25.6 8.2 53.3 12.5 89.6 1 2.8-1.3 5.7-2.5 6.2-7.8l.3-10.8-100.6-.3z" fill="#fff" fill-rule="evenodd"/><path d="M681.6 372.7C575 524.7 915 497 803.4 373.7z" fill="#de8787" fill-rule="evenodd"/><path d="M691 377.3a73.5 49.3 0 0 0-21.5 34.8 73.5 49.3 0 0 0 73.6 49.4 73.5 49.3 0 0 0 73.6-49.3 73.5 49.3 0 0 0-21.6-34.7H691z" opacity=".8" fill="#c83737" fill-opacity="1"/><path d="M669.2 376.3c19.2-23.5 45.6-11 72.7-11 23.4.2 49.3-10.7 74.4 11-20.5 22.2-34.6 54.3-38.6 81.5-23.3 11-46.7 11.2-70 .2-5.4-24.6-13.7-57.2-38.6-81.7z" fill="#de8787" fill-rule="evenodd"/></svg>