<svg xmlns="http://www.w3.org/2000/svg" viewBox="0 0 1000 1000" version="1.1"><g fill-rule="evenodd"><path d="M-385.7 512.8c144.2 47.8 292.8 76.4 467-6.5 125.7 49.5 269.4 92.6 790.8 1 165.3 33 325 75.2 556.6-3.2 0 0-45.8-216-128.6-334.4-82.8-118.3-196.6-128-294.3-4.3-97.7 123.8.3 257.3-140 276.2C725.4 460.5 668 320.3 560 178.2c-108-142-259-147.5-360 0S170.6 388.8 80 389.7c-90.6 1-21.4-79-100-164s-198.6-121.7-280 0-85.7 287-85.7 287z" fill="#5fd35f"/><path d="M374.5 67c-63 .4-124.7 36-174.5 108.5-19.8 29-33 54.7-42 77.3 20.2-12.5 42-28 56.3-23.3 24.7 8.3-8 34.3 14.3 41 22.2 6.7 44-41 74.3-34.5 30.3 6.5 12.2 68.4 45.6 69 33.4.7 18.8-60.8 48.6-64.7 29.8-4 36.5 46 62.8 41 26.3-5 2.5-52 28.6-56 26.2-4.3 37.5 45.4 57 43 19.7-2.4-5.5-21.6 17.3-26 22-4 29 60.3 77.6 47-25-35.5-50.8-74.6-80.6-113.8-54.8-72-120.7-109-185.5-108.5zm779.2 7c-49.5 0-100.6 28.6-148 88.6-26.3 33.4-38.4 67.5-44.8 100 9.3-8.7 20-14.8 33.3-13.7 40 3.2 34.6 79 74.3 75.5 39.7-3.5 13-73.7 45.7-80 32.8-6 40.8 41 68.6 41 27.7.2 34.8-40.3 62.7-36.6 28 3.7 15.8 59.3 48.6 58.2 32-1 15.6-63 45.8-70.7-12-25-25.4-48.8-40-69.6-42.7-61-93.6-93.2-146.3-93zM-173 145c-45.2.3-90 23-127 78-10.7 16-20 32.7-28.2 49.7 21.7-9.5 42-16.8 54-10.8 30 15-15 47.7 8.5 53.8 23.4 6 29-41.8 54.3-41 25.3.8 24.5 45.4 48.6 43.2 24-2.2 4.3-45 31.4-47.5 27-2.4 34.7 61 60 54 25.4-7-27-39.7 0-51.8C-47.4 262-8 311.3 23 316.3c-4-27.2-12-60-43-93.3-43-46.4-98.3-78.4-153-78z" opacity="1" fill="#f9f9f9"/><path d="M400 69C594 155.3 605 369 797 437l-3-2.8c-92.5-28.5-147-142.8-234.7-258.3C512 113.3 456.2 77.2 400 69zm774.6 7c153.6 85.5 164.4 268.7 248.7 405-13.7-57-56.5-217.7-123.8-313.7-37-52.7-80-84-125-91.3zm-1319.4 72c86.4 37.4 146.5 105.7 173 215.7 0-2.2 0-4.5.2-6.8-8-31-.5-81.4-49-133.6-35.3-38.3-79.2-67-124.2-75.4z" opacity=".1" fill="#1a1a1a"/><path d="M-294.3 331.5c-59-25.8 55.3-136 91.4-119.8 36.2 16-32.4 145.5-91.3 119.8zM203.8 315c-76-34.5 71.4-181.8 118-160.3 46.6 21.5-42 194.6-118 160.2zM1003.3 299.8c-59-25.7 55.3-135.8 91.4-119.8 36 16-32.5 145.6-91.4 119.8z" opacity=".2" fill="#fff"/></g></svg>