<svg xmlns="http://www.w3.org/2000/svg" viewBox="0 0 1000 1000" version="1.1"><g fill-rule="evenodd"><path d="M81.4 558.8c144.2 48 293 76.5 467.2-6.5C674 602 818 645 1339.3 553.3c165.2 33 325 75.3 556.4-3 0 0-45.8-216.4-128.6-334.6-82.7-118.3-196.5-128-294-4.4-97.8 123.8.2 257.3-140 276.3-140.5 19-198-121.2-306-263.3-107.8-142-258.8-147.5-360 0C566 371.8 638 435 547 435.8c-90.5 1-21.3-79-100-164-78.4-85-198.4-121.7-280 0-81.3 121.7-85.6 287-85.6 287z" fill="#5fd35f"/><path d="M841.6 113c-62.8.5-124.7 36-174.4 108.6-20 29-33 54.6-42 77.2 20-12.5 42-28 56.3-23.3 24.7 8.4-8 34.3 14.2 41 22.2 6.8 44-41 74.3-34.5 30.4 6.6 12.3 68.4 45.7 69 33.5.7 18.8-60.8 48.6-64.7 29.8-4 36.6 46 63 41 26.2-5 2.3-52 28.4-56 26.2-4.3 37.6 45.5 57.2 43 19.5-2.3-5.7-21.6 17-25.8 22-4 29.3 60.2 77.8 47-25-35.7-51-74.7-80.6-114-54.8-72-120.7-109-185.6-108.5zm779.2 7c-49.5 0-100.6 28.7-148 88.6-26.3 33.5-38.4 67.6-44.8 100 9.5-8.6 20-14.7 33.5-13.6 40 3.2 34.6 79 74.2 75.5 39.7-3.5 13-73.6 45.8-79.8 32.7-6.3 40.7 40.8 68.5 41 27.8 0 35-40.5 63-36.7 28 3.7 15.6 59.3 48.5 58.2 32-1 15.5-63 45.8-70.6-12.2-25-25.6-49-40-69.6-42.8-61-93.8-93.2-146.5-93zM294.2 191c-45.3.3-90 23-127 78-10.7 16-20 32.8-28.3 49.8 21.7-9.5 42-17 54-11 30 15.3-15 48 8.5 54 23.4 6.2 29-41.7 54.2-41 25.3.8 24.6 45.4 48.6 43.2 24-2.2 4.4-45 31.4-47.4 27-2.5 34.7 61 60 54 25.4-7-27-39.7 0-52 24-10.7 63.4 38.8 94.3 43.8-4-27.3-12-60-42.8-93.3-43-46.3-98.3-78.4-153-78z" opacity="1" fill="#f9f9f9"/><path d="M867 115.2c194.2 86 205.3 300 397.3 368l-2.8-3c-92.7-28.5-147-142.8-234.8-258.2-47.5-62.6-103.4-98.6-159.7-106.8zm774.8 7c153.6 85.3 164.4 268.6 248.6 404.8-13.7-57-56.5-217.6-123.7-313.7-37-52.6-80-83.8-125-91.2zM322.3 194c86.5 37.5 146.5 105.8 173 215.7l.3-6.7c-8.2-31-.6-81.3-49-133.6-35.4-38.3-79.3-66.8-124.3-75.4z" opacity=".1" fill="#1a1a1a"/><path d="M173 377.5c-59-25.7 55.2-136 91.3-119.8 36 16-32.6 145.6-91.4 119.8z" opacity=".2" fill="#fff"/><path d="M-1248.6 558.5c144.2 47.8 293 76.4 467.2-6.5C-656 601.5-512 644.6 9.3 553c165.2 33 325 75.2 556.4-3.2 0 0-45.8-216.2-128.6-334.5C354.4 97 240.6 87.3 143 211 45 334.8 143 468.3 3 487.2-137.6 506.2-195 366-303 224c-107.8-142-258.8-147.5-360 0-101 147.4-29.2 210.5-120 211.5-90.5 1-21.3-79.2-100-164-78.4-85-198.4-121.8-280 0-81.3 121.6-85.6 287-85.6 287z" fill="#5fd35f"/><path d="M-488.4 112.7c-62.8.4-124.7 36-174.4 108.6-20 29-33 54.6-42 77.2 20-12.5 42-28 56.3-23.3 24.7 8.3-8 34.3 14.2 41 22.2 6.7 44-41 74.3-34.5 30.4 6.5 12.3 68.4 45.7 69 33.5.7 18.8-60.8 48.6-64.7 29.8-4 36.6 46 63 41 26.2-5 2.3-52 28.4-56 26.2-4.3 37.6 45.5 57.2 43 19.5-2.3-5.7-21.6 17-25.8 22-4 29.3 60.2 77.8 47-25-35.7-51-74.7-80.6-114-54.8-72-120.7-109-185.6-108.5zm779.2 7c-49.5 0-100.6 28.6-148 88.6-26.3 33.4-38.4 67.5-44.8 100 9.5-8.7 20-14.8 33.5-13.7 40 3.3 34.6 79 74.2 75.6 39.7-3.5 13-73.7 45.8-80 32.7-6 40.7 41 68.5 41 27.8.2 35-40.3 63-36.6 28 3.8 15.6 59.4 48.5 58.3 32-1 15.5-63 45.8-70.8-12.2-25-25.6-48.8-40-69.6-42.8-61-93.8-93-146.5-93zm-1326.6 71c-45.3.3-90 23-127 78-10.7 16-20 32.7-28.3 49.7 21.7-9.5 42-16.8 54-10.8 30 15-15 47.8 8.5 54 23.4 6 29-41.8 54.2-41 25.3.7 24.6 45.3 48.6 43 24-2 4.4-45 31.4-47.4 27-2.4 34.7 61 60 54 25.4-7-27-39.7 0-51.8 24-10.8 63.4 38.6 94.3 43.6-4-27.2-12-60-42.8-93.3-43-46.4-98.3-78.4-153-78z" opacity="1" fill="#f9f9f9"/><path d="M-463 114.8c194.2 86 205.3 300 397.3 368l-2.8-3c-92.7-28.4-147-142.7-234.8-258.2C-350.8 159-406.7 123-463 114.8zm774.8 7c153.6 85.4 164.4 268.6 248.6 405C546.7 469.7 504 309 436.7 213c-37-52.7-80-83.8-125-91.3zm-1319.5 72c86.5 37.3 146.5 105.7 173 215.6l.3-6.8c-8.2-30.8-.6-81.2-49-133.5-35.4-38.2-79.3-66.7-124.3-75.3z" opacity=".1" fill="#1a1a1a"/></g></svg>