<svg xmlns="http://www.w3.org/2000/svg" viewBox="0 0 1000 1000" version="1.1"><g fill-rule="evenodd"><path d="M402.4 414.7c-98.6-11.8-273.3-63-305.5 89 0 5.7.5 11.3 1.4 17-13.6 108.2 17.8 216.6 28.3 325h38.5c-2.7-49-8.3-97.6 31.3-150 5 36.2 10.5 72.3 13.6 108.5h29.2c-2.2-44-6.8-87.7 29.2-135.3 44.5 13.5 94 20.6 144 20.6 50.5 0 100.3-7.2 145-21 15.3 26.4 25 69 15 157.2l28 2.4C608 780 616 732 622 683.7 645 710 661.7 753 648 855l34.8 2.3c19.3-105.5 43-211 38.7-316.5 4.2-12.2-29-75.3-75.4-136.6-46.2-61.3-145 22.3-243.6 10.5z" fill="#f2f2f2"/><path d="M604 390.5c-24.5-5.4-80.4 41.2-59.3 89.2 12.2 27.8-28 34-5 59.5 23 25.3 64.7-6 89.2 2.5s35.8 45.4 53.2 39.6c17.5-5.8 18.6-24.6 12.4-42-6.2-17.7-50.3-20.7-55.8-38.5-5.4-17.8 19-19.5 16.2-41-2.8-21.4-26.2-64-51-69.3zM178.6 721.2c9.6-32 91.7-95.2 99-128 7.3-32.6-11-47.2-27-50.7-16-3.6-28.7 14-32.6 24.5-4 10.4 14.8 16.7 5.3 25.4s-32-18.6-49-15c-17 3.8-39.4 17.5-39.5 35.2 0 17.6 37.7 19 39.4 36 1.7 16.6-20.8 26.3-28 38.4-7.2 12.2-19.8 22.7-15.8 33.3 4 10.7 20 13 29 12.3 9-.6 9.6 20.7 19.2-11.4zM253 393C181 392.6 115 416 96.3 504c0 2.7 0 5.5.4 8.2 16.4-1.2 31.4-3.6 42-5 41.7-5.7 43.6-68 67-57 23.4 10.7-16.7 52 0 66.8 16.7 15 44.3-12 67-7.4 22.5 4.6 32 44.3 62 34.7 29.8-9.7 73-73.3 49.5-106.6-23.6-33.3-110 42.5-126.4 12.3-15-27.6 23-29.6 44-54.2-16.4-2-33-3-49-3zM463 496.2c-16.3 0-37.8 8-45.5 17.8-10.7 13.4-2.8 29 0 40.3 2.8 11.3 22 12.7 14 26.3-8 13.5-50.4-14.5-64.8 0-14.5 14.4 13.4 44 0 57.8-13.5 13.8-42-10-58 1.7-9.8 7.6-18 21.4-21 35 39 10 81 15 123.4 15 38.6 0 76.7-4.2 112.4-12.2 6.5-9.2 10.7-18.6 11.5-27 2.3-25.2-12.5-36-28-44-15.7-7.8-39.4 21.3-52.7 3.6-13.3-17.8 25.6-56.3 28-75.4 2.5-19 9.8-25.5-3.5-35-3.7-2.7-9.3-4-15.7-3.8zm253.2 97.4c-4.2 0-8.4.3-13 1-18.4 2.6-49.4 14.6-47.3 33.3 2 18.6 48.2 4 50.7 21 2.4 16.8-36 16-36.8 29.7-.8 13.7 22.4 11 24.4 24.5 2 13.7-24.5 28.7-22.8 42 1.7 13.6-1.3 21 22.8 24.6 1 .2 2.3.3 3.5.3 10.7-58.6 20-117.4 22.3-176.2l-4-.2zm-119.5 53.8c-10.4 8.4-28 19-43.3 21-.7.8-1.2 1.5-1.8 2 1.6-.3 3.2-.8 4.7-1.3 3.2 5.7 6.2 12 8.8 19.3 6.5-1.5 12.7-3 15.6 0 6.3 6.3 7.4 12 0 19.8-2 2.2-5.5 2.6-9.7 2.3 2.3 12.3 3.8 26.8 4.2 44 4.5-1.2 8.3-3 10.4-5.3 7.4-8-4.3-13.3-1.2-18.5 3-5.3 10-9 16-7.5 6 1.7-1.2 18.8 11.2 16 .6 0 1-.2 1.6-.4 2.7-18.2 5.3-36.3 7.6-54.4l1 1.3c0-.7 0-1.5-.3-2-14-12.5-18.7-21.7-24.8-36z" fill="#999"/><path d="M129 841c6.2-5.2 27.2-7 35.8-1.3 8.7 5.8 9 18.8 9.3 24.8.4 6 .2 7-2.4 9.3-2.5 2.2-7 3.4-10.5 1.2-3.5-2-.5-14.4-5.5-13.6-5 .8 2.6 12.4-1.2 15.5-3.8 3-8 1.5-13.6-2-5.7-3.5-13.8-15.3-15-21.7-1-6.4-3-7.2 3.2-12.4zM211.4 796.8c4.6-4 20-5.4 26.5-1 6.3 4.6 6.5 14.7 6.7 19.4.3 4.7 0 5.6-1.8 7.3-2 1.7-5.2 2.6-8 1-2.5-1.7-.3-11.3-4-10.7-3.7.6 2 9.7-1 12-2.7 2.5-5.8 1.4-10-1.4-4-2.7-10-12-11-17-.8-5-2.3-5.6 2.4-9.6zM650.5 843c5.6-5 24.5-7 32.3-1 7.8 5.7 8 18.7 8.4 24.7.2 6 0 7-2.2 9.3-2.3 2.2-6.3 3.3-9.5 1.2-3.3-2-.6-14.4-5-13.6-4.5.7 2.3 12.4-1.2 15.5-3.4 3-7 1.7-12.2-1.8-5-3.5-12.3-15.3-13.3-21.7-1-6.4-3-7.3 2.8-12.4zM574.2 815.7c4.6-4 20-5.4 26.5-1 6.4 4.6 6.6 14.7 6.8 19.4.3 4.8 0 5.7-1.8 7.4-2 1.7-5 2.6-7.8 1-2.7-1.7-.5-11.3-4.2-10.7-3.7.6 2 9.7-1 12-2.7 2.5-5.8 1.4-10-1.4-4-2.7-10-12-11-17-.8-5-2.3-5.6 2.4-9.6z" fill="#de8787"/><path d="M269.5 612.3c-90 52.7-126 118-110.3 207-4.5-84.2 42.5-145.8 110.3-207zM268.3 670l-10.5-5c-34 37-16 74-23 111 8-36 3-73.3 33.5-106zM621.5 683.6c-3.6 41.6-11 81.6-17.4 122 3.7-44.5 11-88.8 6-133.7zM692 809.3l28.6-264c5.3 107.7-15.3 181-28.5 264z" opacity=".1" fill="#1a1a1a"/></g></svg>