<svg xmlns="http://www.w3.org/2000/svg" viewBox="0 0 1000 1000" version="1.1"><g fill-opacity="1"><path d="M724.8 318.8a22.8 21 0 0 1-22.8 21 22.8 21 0 0 1-22.8-21 22.8 21 0 0 1 22.8-21 22.8 21 0 0 1 22.8 21zM806.3 319.7a22.8 21 0 0 1-22.8 21 22.8 21 0 0 1-22.8-21 22.8 21 0 0 1 22.8-21 22.8 21 0 0 1 22.8 21z" opacity="1" fill="#fff"/><path d="M711.6 327.6a10 9.6 0 0 1-10 9.7 10 9.6 0 0 1-10-9.7 10 9.6 0 0 1 10-9.6 10 9.6 0 0 1 10 9.6zM793.6 328.5a10 9.6 0 0 1-10 9.6 10 9.6 0 0 1-10.2-9.5 10 9.6 0 0 1 10-9.7 10 9.6 0 0 1 10.2 9.7z" opacity="1" fill="#1a1a1a"/></g></svg>