<svg xmlns="http://www.w3.org/2000/svg" viewBox="0 0 1000 1000" version="1.1"><path d="M746.8 224A144.6 150.7 0 0 0 639 274.3c-51.7-44.5-163.8 25.8-21 32a144.6 150.7 0 0 0-15.8 68.2 144.6 150.7 0 0 0 144.6 150.7 144.6 150.7 0 0 0 144.6-150.7 144.6 150.7 0 0 0-14.6-66c141.8-6.2 31.3-75.8-20.7-32.4A144.6 150.7 0 0 0 747 224z" opacity="1" fill="#e9c6af" fill-opacity="1"/><path d="M830.2 261c-27 3.6-38.6-4.5-35-24.4 40 3.6 62.3-37.5 89.3-66.6-1.5 35-11 67.7-54.3 91z" fill="#f9f9f9" fill-rule="evenodd"/><path d="M745.4 224a144.6 150.7 0 0 1 42.6 7c4 10.7.4 21-3.3 30-6.4 14.5-22.7 6.2-37.2 17.2-14.6 11-25.6 43.3-44.6 52-19.2 8.8-48.8 19-57 0-8.5-18.8 47.7-23 44.5-49.5-1.5-12.3-20.3-15.7-39-20a144.6 150.7 0 0 1 94-36.6zm144 138.3a144.6 150.7 0 0 1 .6 12.6 144.6 150.7 0 0 1-144.6 150.6 144.6 150.7 0 0 1-107.2-50c12.7-4.5 25.6-6.6 35-6.5 23.2.3 25.7 20.8 42 24.8 16.4 4 33-1.2 52-2.4 19-1.3 45.4 10.2 62-5 16.7-15.2 32.7-61 12.5-72-20.3-10.7-26.4 37.4-47 44.7-21 7.5-60.2 18.3-67-4.8-7-23.2 44.6-33.4 62-47 17.2-13.8 7.3-25.6 42-34.8 13.2-3.5 34.5-8.4 57.7-10z" opacity="1" fill="#d38d5f" fill-opacity="1"/><path d="M661.7 261c27 3.5 38.5-4.7 35-24.5-40 3.6-62.3-37.5-89.3-66.6 1.5 35 11 67.6 54.3 91z" fill="#f9f9f9" fill-rule="evenodd"/><path d="M607.4 169.7c.5 12 2 23.4 5.3 34.4a41.4 38.4 0 0 0 18.6-6c-8-9.5-15.7-19.4-24-28.3zm277.2.2c-8.2 8.6-16 18.4-23.7 27.8a41.4 38.4 0 0 0 18.5 5.8c3-10.8 4.5-22.2 5-33.7z" fill="#ccc" fill-rule="evenodd"/></svg>