<?xml version="1.0" encoding="UTF-8" standalone="no"?>
<!-- Created with Inkscape (http://www.inkscape.org/) -->

<svg
   xmlns:dc="http://purl.org/dc/elements/1.1/"
   xmlns:cc="http://creativecommons.org/ns#"
   xmlns:rdf="http://www.w3.org/1999/02/22-rdf-syntax-ns#"
   xmlns:svg="http://www.w3.org/2000/svg"
   xmlns="http://www.w3.org/2000/svg"
   xmlns:sodipodi="http://sodipodi.sourceforge.net/DTD/sodipodi-0.dtd"
   xmlns:inkscape="http://www.inkscape.org/namespaces/inkscape"
   viewBox="0 0 1000 1000"
   id="svg2"
   version="1.1"
   inkscape:version="0.91 r13725"
   sodipodi:docname="polar-2.svg">
  <defs
     id="defs4" />
  <sodipodi:namedview
     id="base"
     pagecolor="#ffffff"
     bordercolor="#666666"
     borderopacity="1.0"
     inkscape:pageopacity="0.0"
     inkscape:pageshadow="2"
     inkscape:zoom="0.50000002"
     inkscape:cx="337.74067"
     inkscape:cy="859.42346"
     inkscape:document-units="px"
     inkscape:current-layer="layer1"
     showgrid="false"
     inkscape:window-width="1366"
     inkscape:window-height="689"
     inkscape:window-x="0"
     inkscape:window-y="30"
     inkscape:window-maximized="1" />
  <metadata
     id="metadata7">
    <rdf:RDF>
      <cc:Work
         rdf:about="">
        <dc:format>image/svg+xml</dc:format>
        <dc:type
           rdf:resource="http://purl.org/dc/dcmitype/StillImage" />
        <dc:title />
      </cc:Work>
    </rdf:RDF>
  </metadata>
  <g
     inkscape:label="Layer 1"
     inkscape:groupmode="layer"
     id="layer1">
    <path
       style="opacity:1;fill:#f9f9f9;fill-opacity:1;fill-rule:evenodd;stroke:none;stroke-width:1.34391534px;stroke-linecap:butt;stroke-linejoin:miter;stroke-opacity:1"
       d="m 336.4167,253.62814 c -2.59606,1.0539 -5.19405,2.1436 -7.7982,3.3033 -87.29989,23.717 -195.47331,5.6851 -238.936599,117.0751 l -29.867172,35.8406 c -9.13319,7.5662 -8.75109,15.1353 2.38855,22.7017 7.715492,7.4476 12.927312,15.8597 34.648492,17.9205 26.957459,-0.7392 53.271109,3.0333 81.239359,-4.7817 9.20888,-1.0458 16.93211,-6.5477 23.89377,-14.3353 -9.83968,15.2768 58.47326,17.9255 125.43712,22.6973 0.17425,0.7862 0.31241,1.5564 0.47574,2.3377 70.11064,-39.8621 152.37998,-93.5484 8.51894,-202.7592 z"
       id="path4144-3-0"
       inkscape:connector-curvature="0" />
    <path
       style="opacity:1;fill:#ffffff;fill-rule:evenodd;stroke:none;stroke-width:1.34391534px;stroke-linecap:butt;stroke-linejoin:miter;stroke-opacity:1"
       d="m 104.94158,361.40813 c -3.61445,4.81327 -0.24532,13.23824 4.23669,14.25052 4.48178,1.01216 18.93612,1.37716 16.17617,-7.70305 -2.75996,-9.08033 -16.79841,-11.36087 -20.41286,-6.54747 z"
       id="path4294-6-9"
       inkscape:connector-curvature="0"
       sodipodi:nodetypes="zzzz" />
    <path
       style="opacity:1;fill:#f2f2f2;fill-opacity:1;fill-rule:evenodd;stroke:none;stroke-width:1.34391534px;stroke-linecap:butt;stroke-linejoin:miter;stroke-opacity:1"
       d="m 345.92419,374.73844 c -47.13315,39.3604 -90.19234,31.2215 -132.607,15.5318 -38.47868,55.5311 -98.86264,33.1857 -150.143854,43.195 7.172165,7.1709 12.887545,14.9023 33.595285,16.8672 26.957469,-0.7394 53.271289,3.0332 81.239369,-4.7817 9.20887,-1.0458 16.93668,-6.5477 23.89816,-14.3353 -0.1584,0.2453 -0.24218,0.4773 -0.36028,0.7163 0.13905,-0.1531 0.28266,-0.2895 0.42048,-0.4435 -0.87369,1.3563 -1.10232,2.6066 -0.79924,3.7744 3.96942,11.7514 65.62025,14.3348 126.17616,18.6499 0.0211,0.091 0.0352,0.1814 0.0563,0.2728 0,2e-4 0,-4e-4 0,0 0.15488,0.6929 0.27579,1.3714 0.42047,2.0605 4.25261,-2.4182 8.54957,-4.8952 12.83843,-7.4242 8.87183,-21.8462 6.8117,-48.0669 5.25741,-74.0832 z"
       id="path4144-5-7-6"
       inkscape:connector-curvature="0" />
    <path
       style="opacity:1;fill:#666666;fill-rule:evenodd;stroke:none;stroke-width:1.34391534px;stroke-linecap:butt;stroke-linejoin:miter;stroke-opacity:1"
       d="m 106.22626,363.62134 c -2.7747,3.695 -0.18832,10.1626 3.25238,10.9397 3.44053,0.777 14.53669,1.0572 12.41796,-5.9134 -2.11874,-6.9707 -12.89563,-8.7214 -15.67034,-5.0263 z"
       id="path4294-6"
       inkscape:connector-curvature="0"
       sodipodi:nodetypes="zzzz" />
    <path
       style="opacity:1;fill:#f2f2f2;fill-rule:evenodd;stroke:none;stroke-width:1.34391534px;stroke-linecap:butt;stroke-linejoin:miter;stroke-opacity:1"
       d="m 157.12783,320.59594 c 7.96876,-59.7073 51.36182,-63.9234 48.50387,-4.1814 -0.45814,15.5979 -11.60517,17.4221 -11.70778,7.5265 8.55555,-40.1412 -11.20899,-59.3756 -36.79609,-3.3451 z"
       id="path4311-1"
       inkscape:connector-curvature="0"
       sodipodi:nodetypes="cccc" />
    <path
       style="opacity:1;fill:#808080;fill-rule:evenodd;stroke:none;stroke-width:1.34391534px;stroke-linecap:butt;stroke-linejoin:miter;stroke-opacity:1"
       d="m 59.774779,409.72994 c 11.423362,11.3499 6.863982,17.5627 3.13604,24.0428 -11.47388,-6.3383 -22.205886,-12.7958 -3.13604,-24.0428 z"
       id="path4328"
       inkscape:connector-curvature="0"
       sodipodi:nodetypes="ccc" />
  </g>
</svg>
