<?xml version="1.0" encoding="UTF-8" standalone="no"?>
<!-- Created with Inkscape (http://www.inkscape.org/) -->

<svg
   xmlns:dc="http://purl.org/dc/elements/1.1/"
   xmlns:cc="http://creativecommons.org/ns#"
   xmlns:rdf="http://www.w3.org/1999/02/22-rdf-syntax-ns#"
   xmlns:svg="http://www.w3.org/2000/svg"
   xmlns="http://www.w3.org/2000/svg"
   xmlns:sodipodi="http://sodipodi.sourceforge.net/DTD/sodipodi-0.dtd"
   xmlns:inkscape="http://www.inkscape.org/namespaces/inkscape"
   viewBox="0 0 1000 1000"
   id="svg2"
   version="1.1"
   inkscape:version="0.91 r13725"
   sodipodi:docname="polar-4.svg">
  <defs
     id="defs4" />
  <sodipodi:namedview
     id="base"
     pagecolor="#ffffff"
     bordercolor="#666666"
     borderopacity="1.0"
     inkscape:pageopacity="0.0"
     inkscape:pageshadow="2"
     inkscape:zoom="0.3535534"
     inkscape:cx="-19.079423"
     inkscape:cy="536.84673"
     inkscape:document-units="px"
     inkscape:current-layer="layer1"
     showgrid="false"
     inkscape:window-width="1366"
     inkscape:window-height="689"
     inkscape:window-x="0"
     inkscape:window-y="30"
     inkscape:window-maximized="1" />
  <metadata
     id="metadata7">
    <rdf:RDF>
      <cc:Work
         rdf:about="">
        <dc:format>image/svg+xml</dc:format>
        <dc:type
           rdf:resource="http://purl.org/dc/dcmitype/StillImage" />
        <dc:title />
      </cc:Work>
    </rdf:RDF>
  </metadata>
  <g
     inkscape:label="Layer 1"
     inkscape:groupmode="layer"
     id="layer1">
    <path
       style="fill:#ffffff;fill-rule:evenodd;stroke:none;stroke-width:1px;stroke-linecap:butt;stroke-linejoin:miter;stroke-opacity:1"
       d="m 142.12846,612.50549 4.94975,27.57717 -77.07464,24.04163 61.51829,299.81327 771.45348,-0.70711 62.9325,-304.05591 -15.55635,-12.72792 7.77817,-42.42641 -120.91525,-28.28427 -45.96194,21.92031 -164.75588,-21.92031 -181.01933,28.99138 -106.06601,-31.81981 -79.90307,33.23402 z"
       id="path4388"
       inkscape:connector-curvature="0" />
    <path
       style="opacity:0.8;fill:#afdde9;fill-opacity:1;stroke:none;stroke-width:10;stroke-linecap:round;stroke-linejoin:round;stroke-miterlimit:4;stroke-dasharray:none;stroke-dashoffset:0;stroke-opacity:1"
       d="m 148.37299,963.8214 c -1.87712,-3.29509 -46.45288,-235.42704 -45.38304,-236.33596 1.64948,-1.40138 223.90591,-31.8807 224.93936,-30.84725 0.61638,0.61639 35.81186,263.02818 35.83543,267.18321 0.003,0.58336 -48.32253,1.06066 -107.39075,1.06066 -59.06822,0 -107.66867,-0.4773 -108.001,-1.06066 z"
       id="path4368"
       inkscape:connector-curvature="0" />
    <path
       style="opacity:0.8;fill:#afdde9;fill-opacity:1;stroke:none;stroke-width:10;stroke-linecap:round;stroke-linejoin:round;stroke-miterlimit:4;stroke-dasharray:none;stroke-dashoffset:0;stroke-opacity:1"
       d="m 529.57829,858.70909 0.36255,-106.59276 34.45155,-26.63205 c 18.94834,-14.64762 34.68187,-26.40171 34.96339,-26.12019 0.87868,0.87868 -8.71427,262.56436 -9.65982,263.50991 -0.49249,0.49249 -14.30202,1.24023 -30.68783,1.66165 l -29.79239,0.76621 0.36255,-106.59277 z"
       id="path4372"
       inkscape:connector-curvature="0" />
    <path
       style="opacity:0.8;fill:#afdde9;fill-opacity:1;stroke:none;stroke-width:10;stroke-linecap:round;stroke-linejoin:round;stroke-miterlimit:4;stroke-dasharray:none;stroke-dashoffset:0;stroke-opacity:1"
       d="M 131.13285,961.70008 C 128.06835,948.8826 71.353568,668.51502 71.745895,668.12269 c 0.514415,-0.51442 108.592965,8.27995 109.251405,8.8898 0.20195,0.18706 -18.09444,11.05879 -40.65864,24.15942 -22.56421,13.10063 -41.025834,24.62878 -41.025834,25.61812 0,1.58843 44.088164,226.8455 45.977474,234.91005 0.69696,2.97497 0.28542,3.18198 -6.32561,3.18198 -6.16473,0 -7.16858,-0.40785 -7.83184,-3.18198 z"
       id="path4374"
       inkscape:connector-curvature="0" />
    <path
       style="opacity:0.8;fill:#afdde9;fill-opacity:1;stroke:none;stroke-width:10;stroke-linecap:round;stroke-linejoin:round;stroke-miterlimit:4;stroke-dasharray:none;stroke-dashoffset:0;stroke-opacity:1"
       d="m 145.19726,635.81408 c -0.39811,-2.04177 -1.3977,-7.14518 -2.22131,-11.34092 -0.8236,-4.19573 -1.38217,-7.97447 -1.24126,-8.3972 0.14091,-0.42273 3.99314,3.80564 8.56052,9.39638 l 8.30432,10.16496 -6.21257,1.93367 c -3.41691,1.06352 -6.26956,1.93857 -6.33921,1.94455 -0.0696,0.006 -0.45237,-1.65967 -0.85049,-3.70144 z"
       id="path4376"
       inkscape:connector-curvature="0" />
    <path
       style="opacity:0.8;fill:#87cdde;fill-opacity:1;stroke:none;stroke-width:10;stroke-linecap:round;stroke-linejoin:round;stroke-miterlimit:4;stroke-dasharray:none;stroke-dashoffset:0;stroke-opacity:1"
       d="m 366.98159,963.4218 c -0.043,-0.38891 -8.06149,-60.88501 -17.81896,-134.43578 -10.58242,-79.76913 -16.54258,-133.27381 -14.77114,-132.60139 1.63335,0.62001 45.29007,13.63773 97.01493,28.92828 l 94.0452,27.80099 0,105.5075 0,105.5075 -79.19596,0 c -43.55778,0 -79.2311,-0.31819 -79.27407,-0.7071 z"
       id="path4378"
       inkscape:connector-curvature="0" />
    <path
       style="opacity:0.8;fill:#87cdde;fill-opacity:1;stroke:none;stroke-width:10;stroke-linecap:round;stroke-linejoin:round;stroke-miterlimit:4;stroke-dasharray:none;stroke-dashoffset:0;stroke-opacity:1"
       d="m 594.31612,932.3091 c 0.96317,-17.50089 3.2183,-76.36753 5.01141,-130.81475 1.7931,-54.44722 3.44408,-99.2457 3.66883,-99.55218 0.22476,-0.30647 25.18947,7.49656 55.47715,17.34007 l 55.06851,17.89729 -0.90964,9.52999 c -0.50029,5.2415 -5.90966,54.55055 -12.02081,109.57567 -6.11115,55.02512 -11.11118,101.80023 -11.11118,103.9447 0,3.16138 -9.16936,3.89901 -48.46775,3.89901 l -48.46774,0 1.75122,-31.8198 z"
       id="path4380"
       inkscape:connector-curvature="0" />
    <path
       style="opacity:0.8;fill:#87cdde;fill-opacity:1;stroke:none;stroke-width:10;stroke-linecap:round;stroke-linejoin:round;stroke-miterlimit:4;stroke-dasharray:none;stroke-dashoffset:0;stroke-opacity:1"
       d="m 693.46036,953.5223 c 0.89582,-5.83363 6.11419,-51.97235 11.59638,-102.53048 11.82435,-109.04727 12.47339,-113.62824 15.80699,-111.56796 4.83725,2.98958 2.38473,-2.97234 -8.73468,-21.23353 -6.11199,-10.03761 -10.82684,-18.53606 -10.47745,-18.88545 0.81215,-0.81215 189.73869,24.97266 191.09658,26.08098 0.80087,0.65368 -34.18431,198.30488 -40.88186,230.96487 l -1.59506,7.77817 -79.21983,0 -79.21984,0 1.62877,-10.6066 z"
       id="path4382"
       inkscape:connector-curvature="0" />
    <path
       style="opacity:0.8;fill:#87cdde;fill-opacity:1;stroke:none;stroke-width:10;stroke-linecap:round;stroke-linejoin:round;stroke-miterlimit:4;stroke-dasharray:none;stroke-dashoffset:0;stroke-opacity:1"
       d="m 854.93957,957.87624 c 0.85474,-3.56138 10.98313,-58.02334 22.50754,-121.02655 l 20.95347,-114.5513 -12.43781,-18.38478 -12.4378,-18.38477 20.41768,-4.81632 c 47.02057,-11.09165 69.90545,-15.67453 69.75215,-13.96842 -0.0897,0.9978 -13.77218,67.99937 -30.4056,148.89238 l -30.24257,147.07821 -24.83056,0.8184 c -24.61476,0.81131 -24.81706,0.76215 -23.2765,-5.65685 z"
       id="path4384"
       inkscape:connector-curvature="0" />
    <path
       style="opacity:0.8;fill:#87cdde;fill-opacity:1;stroke:none;stroke-width:10;stroke-linecap:round;stroke-linejoin:round;stroke-miterlimit:4;stroke-dasharray:none;stroke-dashoffset:0;stroke-opacity:1"
       d="m 930.56546,629.63512 c -19.80078,-16.21796 -19.47652,-17.29142 6.1586,-20.38786 9.18879,-1.10991 18.26692,-2.61666 20.17363,-3.34833 2.644,-1.0146 2.88391,1.89973 1.01087,12.27974 -3.82605,21.20311 -5.30997,26.3519 -7.53966,26.16061 -1.13709,-0.0976 -10.04864,-6.71443 -19.80344,-14.70416 z"
       id="path4386"
       inkscape:connector-curvature="0" />
  </g>
</svg>
