<?xml version="1.0" encoding="UTF-8" standalone="no"?>
<!-- Created with Inkscape (http://www.inkscape.org/) -->

<svg
   xmlns:dc="http://purl.org/dc/elements/1.1/"
   xmlns:cc="http://creativecommons.org/ns#"
   xmlns:rdf="http://www.w3.org/1999/02/22-rdf-syntax-ns#"
   xmlns:svg="http://www.w3.org/2000/svg"
   xmlns="http://www.w3.org/2000/svg"
   xmlns:sodipodi="http://sodipodi.sourceforge.net/DTD/sodipodi-0.dtd"
   xmlns:inkscape="http://www.inkscape.org/namespaces/inkscape"
   viewBox="0 0 1000 1000"
   id="svg2"
   version="1.1"
   inkscape:version="0.91 r13725"
   sodipodi:docname="cow-2.svg">
  <defs
     id="defs4" />
  <sodipodi:namedview
     id="base"
     pagecolor="#ffffff"
     bordercolor="#666666"
     borderopacity="1.0"
     inkscape:pageopacity="0.0"
     inkscape:pageshadow="2"
     inkscape:zoom="1.4"
     inkscape:cx="748.65086"
     inkscape:cy="605.11995"
     inkscape:document-units="px"
     inkscape:current-layer="layer1"
     showgrid="false"
     inkscape:window-width="1366"
     inkscape:window-height="689"
     inkscape:window-x="0"
     inkscape:window-y="30"
     inkscape:window-maximized="1" />
  <metadata
     id="metadata7">
    <rdf:RDF>
      <cc:Work
         rdf:about="">
        <dc:format>image/svg+xml</dc:format>
        <dc:type
           rdf:resource="http://purl.org/dc/dcmitype/StillImage" />
        <dc:title />
      </cc:Work>
    </rdf:RDF>
  </metadata>
  <g
     inkscape:label="Layer 1"
     inkscape:groupmode="layer"
     id="layer1">
    <path
       style="opacity:1;fill:#e9c6af;fill-opacity:1;stroke:none;stroke-width:10;stroke-linecap:round;stroke-linejoin:round;stroke-miterlimit:4;stroke-dasharray:none;stroke-dashoffset:0;stroke-opacity:1"
       d="m 746.83703,223.88058 a 144.58997,150.72409 0 0 0 -107.7857,50.49141 c -51.73885,-44.45961 -163.83057,25.79055 -20.97574,32.01005 A 144.58997,150.72409 0 0 0 602.24661,374.60499 144.58997,150.72409 0 0 0 746.83703,525.32941 144.58997,150.72409 0 0 0 891.42732,374.60499 144.58997,150.72409 0 0 0 876.75094,308.6967 c 141.84606,-6.27742 31.32242,-75.87453 -20.64757,-32.52275 A 144.58997,150.72409 0 0 0 746.83703,223.88058 Z"
       id="path4392-9-5"
       inkscape:connector-curvature="0" />
    <path
       style="fill:#f9f9f9;fill-rule:evenodd;stroke:none;stroke-width:1px;stroke-linecap:butt;stroke-linejoin:miter;stroke-opacity:1"
       d="m 830.20291,261.12807 c -26.87346,3.50527 -38.55724,-4.67371 -35.0522,-24.53649 40.10953,3.58859 62.33897,-37.52351 89.38296,-66.599 -1.51881,34.98718 -11.12435,67.72817 -54.33076,91.13549 z"
       id="path4466-0-4"
       inkscape:connector-curvature="0"
       sodipodi:nodetypes="cccc" />
    <path
       style="opacity:1;fill:#d38d5f;fill-opacity:1;stroke:none;stroke-width:10;stroke-linecap:round;stroke-linejoin:round;stroke-miterlimit:4;stroke-dasharray:none;stroke-dashoffset:0;stroke-opacity:1"
       d="m 745.42655,224.14276 a 144.58997,150.72409 0 0 1 42.57459,6.75476 c 4.09355,10.84329 0.44252,21.14015 -3.34972,29.9566 -6.31532,14.68152 -22.63258,6.30636 -37.17853,17.35048 -14.54596,11.04411 -25.60161,43.30443 -44.61382,52.04886 -19.01222,8.74443 -48.61905,18.8331 -57.0066,0 -8.38755,-18.8331 47.83007,-23.18378 44.61383,-49.57129 -1.49624,-12.27536 -20.29338,-15.71304 -39.01165,-19.90951 a 144.58997,150.72409 0 0 1 93.9719,-36.6299 z M 889.3963,362.27308 a 144.58997,150.72409 0 0 1 0.62053,12.59421 A 144.58997,150.72409 0 0 1 745.42655,525.5917 144.58997,150.72409 0 0 1 638.18482,475.704 c 12.75628,-4.58844 25.62039,-6.74163 34.931,-6.65159 23.31309,0.22537 25.79458,20.75074 42.13613,24.78564 16.34154,4.03491 33.04254,-1.26521 52.04899,-2.47768 19.00645,-1.21248 45.33545,10.22422 61.96418,-4.9576 16.62874,-15.18182 32.64125,-61.03806 12.39276,-71.87938 -20.24848,-10.84132 -26.37094,37.23485 -47.09126,44.61616 -20.72033,7.38131 -60.06163,18.20325 -66.92179,-4.9576 -6.86015,-23.16084 44.65787,-33.39991 61.96419,-47.09385 17.30632,-13.69393 7.41455,-25.48567 42.13612,-34.6985 13.15144,-3.48946 34.4794,-8.38952 57.65116,-10.11652 z"
       id="path4392-9-5-2"
       inkscape:connector-curvature="0" />
    <path
       style="fill:#f9f9f9;fill-rule:evenodd;stroke:none;stroke-width:1px;stroke-linecap:butt;stroke-linejoin:miter;stroke-opacity:1"
       d="m 661.68906,261.01274 c 26.87345,3.50528 38.55724,-4.6737 35.0522,-24.53648 -40.10954,3.58859 -62.33898,-37.52351 -89.38296,-66.599 1.5188,34.98718 11.12435,67.72817 54.33076,91.13548 z"
       id="path4466-5"
       inkscape:connector-curvature="0"
       sodipodi:nodetypes="cccc" />
    <path
       style="fill:#cccccc;fill-rule:evenodd;stroke:none;stroke-width:1px;stroke-linecap:butt;stroke-linejoin:miter;stroke-opacity:1"
       d="m 607.37472,169.74107 c 0.51291,11.81536 1.95497,23.37239 5.29492,34.40234 a 41.416256,38.385796 0 0 0 18.62305,-6.21093 c -7.95085,-9.45121 -15.71454,-19.37174 -23.91797,-28.19141 z m 277.17578,0.11523 c -8.1229,8.73308 -15.81445,18.5446 -23.68359,27.91211 a 41.416256,38.385796 0 0 0 18.58789,5.80664 c 3.19469,-10.82398 4.59335,-22.14678 5.0957,-33.71875 z"
       id="path4466-0-4-3"
       inkscape:connector-curvature="0" />
  </g>
</svg>
