<?xml version="1.0" encoding="UTF-8" standalone="no"?>
<!-- Created with Inkscape (http://www.inkscape.org/) -->

<svg
   xmlns:dc="http://purl.org/dc/elements/1.1/"
   xmlns:cc="http://creativecommons.org/ns#"
   xmlns:rdf="http://www.w3.org/1999/02/22-rdf-syntax-ns#"
   xmlns:svg="http://www.w3.org/2000/svg"
   xmlns="http://www.w3.org/2000/svg"
   xmlns:sodipodi="http://sodipodi.sourceforge.net/DTD/sodipodi-0.dtd"
   xmlns:inkscape="http://www.inkscape.org/namespaces/inkscape"
   viewBox="0 0 1000 1000"
   id="svg2"
   version="1.1"
   inkscape:version="0.91 r13725"
   sodipodi:docname="cow-8.svg">
  <defs
     id="defs4" />
  <sodipodi:namedview
     id="base"
     pagecolor="#ffffff"
     bordercolor="#666666"
     borderopacity="1.0"
     inkscape:pageopacity="0.0"
     inkscape:pageshadow="2"
     inkscape:zoom="0.24748737"
     inkscape:cx="-772.35627"
     inkscape:cy="991.62554"
     inkscape:document-units="px"
     inkscape:current-layer="layer1"
     showgrid="false"
     inkscape:window-width="1366"
     inkscape:window-height="689"
     inkscape:window-x="0"
     inkscape:window-y="30"
     inkscape:window-maximized="1" />
  <metadata
     id="metadata7">
    <rdf:RDF>
      <cc:Work
         rdf:about="">
        <dc:format>image/svg+xml</dc:format>
        <dc:type
           rdf:resource="http://purl.org/dc/dcmitype/StillImage" />
        <dc:title />
      </cc:Work>
    </rdf:RDF>
  </metadata>
  <g
     inkscape:label="Layer 1"
     inkscape:groupmode="layer"
     id="layer1">
    <path
       style="fill:#5fd35f;fill-rule:evenodd;stroke:none;stroke-width:1px;stroke-linecap:butt;stroke-linejoin:miter;stroke-opacity:1"
       d="m -38.571386,450.23474 c 144.201596,47.84432 292.827896,76.4711 467.142766,-6.47443 125.56839,49.52978 269.3165,92.58218 790.71432,1.07907 165.1921,32.96896 324.8871,75.16512 556.4286,-3.2372 0,0 -45.7686,-216.23592 -128.5714,-334.51211 -82.8028,-118.276218 -196.6173,-128.102248 -294.2857,-4.31629 -97.6685,123.78596 0.3076,257.26401 -140.0001,276.24225 -140.3076,18.97825 -197.8184,-121.22737 -305.71421,-263.2934 -107.89589,-142.066037 -258.95177,-147.493107 -360.00007,0 -101.04829,147.49311 -29.39244,210.58489 -119.99999,211.49798 -90.60752,0.91308 -21.43435,-79.1403 -100.00002,-164.01884 -78.5656,-84.878538 -198.5575,-121.698698 -280.000004,0 -81.442392,121.6987 -85.714192,287.03297 -85.714192,287.03297 z"
       id="path4750-367"
       inkscape:connector-curvature="0"
       sodipodi:nodetypes="cccczzzzzzzzc" />
    <path
       style="opacity:1;fill:#f9f9f9;fill-rule:evenodd;stroke:none;stroke-width:1px;stroke-linecap:butt;stroke-linejoin:miter;stroke-opacity:1"
       d="m 721.61403,4.4351716 c -62.8547,0.44612 -124.70278,35.9946004 -174.43749,108.5889084 -19.83162,28.94682 -32.99323,54.62903 -42.05273,77.24193 20.17425,-12.5249 42.14544,-28.06057 56.33789,-23.28751 24.69533,8.30538 -7.89548,34.29478 14.28515,41.00433 22.18063,6.70946 43.92104,-41.07005 74.28515,-34.53076 30.36412,6.5393 12.26945,68.40571 45.71484,69.06143 33.44539,0.65572 18.75172,-60.84488 48.57032,-64.74468 29.8186,-3.89986 36.56363,45.9833 62.85742,41.00426 26.2938,-4.97904 2.42081,-51.91929 28.57227,-56.11126 26.15145,-4.19203 37.54152,45.56528 57.14264,43.16267 19.601,-2.40262 -5.6233,-21.68542 17.1425,-25.89733 22.0136,-4.07269 29.2427,60.19732 77.7422,46.94976 -24.8972,-35.61188 -50.826,-74.65259 -80.5976,-113.85284 C 852.3857,40.881182 786.46412,3.9748716 721.61403,4.4351716 Z m 779.20517,6.9486104 c -49.5253,0.12245 -100.6216,28.73283 -147.9297,88.691678 -26.3642,33.41423 -38.46,67.53172 -44.8477,99.91569 9.4222,-8.59657 20.0148,-14.68484 33.42,-13.59041 40.1045,3.27429 34.5928,79.00975 74.2851,75.53499 39.6923,-3.47476 12.9635,-73.62539 45.7149,-79.85022 32.7514,-6.22485 40.7549,40.88081 68.5703,41.00432 27.8154,0.12341 34.8613,-40.4388 62.8574,-36.68909 27.9961,3.74971 15.7326,59.34128 48.5723,58.27117 31.9115,-1.0399 15.5682,-63.02014 45.8164,-70.68572 -12.1985,-25.07966 -25.577,-48.8469 -40.1016,-69.59402 -42.6952,-60.986238 -93.6369,-93.138758 -146.3574,-93.008388 z M 174.19021,82.435322 c -45.293,0.32676 -90.110004,22.923468 -127.013604,78.068168 -10.6892,15.97278 -20.0371,32.70038 -28.2324,49.70406 21.7379,-9.52405 41.9617,-16.87202 53.9453,-10.85664 30.197404,15.15806 -14.8518,47.83344 8.5722,53.95291 23.424004,6.11939 29.011204,-41.77697 54.285204,-41.00432 25.274,0.77264 24.5335,45.35967 48.5703,43.16265 24.0368,-2.19709 4.3575,-45.06538 31.4296,-47.47932 27.0723,-2.41403 34.6533,60.92705 60,53.9529 25.3468,-6.97422 -27.0192,-39.62671 0,-51.79457 23.9381,-10.78036 63.3823,38.66818 94.26567,43.65983 -3.90027,-27.26685 -11.91905,-59.89645 -42.83597,-93.2975 -42.9656,-46.41799 -98.3223,-78.462388 -152.9863,-78.068168 z"
       id="path4750-3-5"
       inkscape:connector-curvature="0" />
    <path
       style="opacity:0.2;fill:#ffffff;fill-rule:evenodd;stroke:none;stroke-width:1px;stroke-linecap:butt;stroke-linejoin:miter;stroke-opacity:1"
       d="M 52.857106,268.95075 C -6.0244943,243.21621 108.17861,133.07419 144.28571,149.17384 c 36.1071,16.09966 -32.5469,145.51145 -91.428604,119.77691 z"
       id="path4170-5"
       inkscape:connector-curvature="0"
       sodipodi:nodetypes="zzz" />
    <path
       style="fill:#5fd35f;fill-rule:evenodd;stroke:none;stroke-width:1px;stroke-linecap:butt;stroke-linejoin:miter;stroke-opacity:1"
       d="m -1368.5714,449.89445 c 144.2016,47.84432 292.8279,76.4711 467.14281,-6.47443 125.56839,49.52978 269.3165,92.58218 790.71427,1.07907 165.192076,32.96896 323.87693,74.15497 555.41843,-4.24735 -6.90879,4.31799 5.86876,-74.02409 -28.28114,-112.55078 C 365.26575,269.98723 346.42876,173.86838 317.14286,106.74978 257.53479,-29.862403 120.52556,-21.35247 22.857156,102.43349 c -97.668409,123.78596 0.3076,257.26401 -140.000016,276.24225 -140.3076,18.97825 -197.81847,-121.22737 -305.71429,-263.2934 -107.89582,-142.066039 -258.9517,-147.493109 -360,0 -101.04829,147.49311 -29.39244,210.58489 -119.99999,211.49798 -90.60756,0.91308 -21.43435,-79.1403 -99.99996,-164.01884 -78.5657,-84.878538 -198.5576,-121.698698 -280.0001,0 -81.4424,121.6987 -85.7142,287.03297 -85.7142,287.03297 z"
       id="path4750"
       inkscape:connector-curvature="0"
       sodipodi:nodetypes="ccccsszzzzzzzc" />
    <path
       style="opacity:1;fill:#f9f9f9;fill-rule:evenodd;stroke:none;stroke-width:1px;stroke-linecap:butt;stroke-linejoin:miter;stroke-opacity:1;fill-opacity:1"
       d="m -608.38594,4.0948816 c -62.8547,0.44612 -124.70278,35.9946004 -174.43749,108.5889084 -19.83162,28.94682 -32.99323,54.62903 -42.05273,77.24193 20.17425,-12.5249 42.14544,-28.06057 56.33789,-23.28751 24.69533,8.30538 -7.89548,34.29478 14.28515,41.00433 22.18063,6.70946 43.92104,-41.07005 74.28515,-34.53076 30.36412,6.5393 12.26945,68.40571 45.71484,69.06143 33.44539,0.65572 18.75172,-60.84488 48.57032,-64.74468 29.8186,-3.89986 36.56363,45.9833 62.85742,41.00426 26.2938,-4.97904 2.42081,-51.91929 28.57227,-56.11126 26.15145,-4.19203 37.54152,45.56528 57.14258,43.16267 19.60106,-2.40262 -5.62327,-21.68542 17.14258,-25.89733 22.01351,-4.07269 29.24266,60.19732 77.74219,46.94976 -24.89728,-35.61188 -50.82599,-74.65259 -80.59766,-113.85284 C -477.61427,40.540892 -543.53585,3.6345816 -608.38594,4.0948816 Z M 186.9816,0.94196655 C 137.4563,1.0644165 70.197556,39.776322 22.889456,99.735169 -3.4747143,133.1494 -15.57047,167.26689 -21.958193,199.65086 c 9.422159,-8.59657 20.0147787,-14.68484 33.419959,-13.59041 40.10449,3.27429 34.59279,79.00975 74.28509,75.53499 39.692304,-3.47476 12.9635,-73.62539 45.714904,-79.85022 32.7514,-6.22485 40.7549,40.88081 68.5703,41.00432 27.8154,0.12341 34.8613,-40.4388 62.8574,-36.68909 27.9961,3.74971 15.7326,59.34128 48.5723,58.27117 31.9115,-1.0399 5.08851,-51.01035 35.33671,-58.67593 -12.1985,-25.07966 -11.0567,-64.8973 -25.5813,-85.64442 C 278.52197,39.025032 239.7021,0.81159655 186.9816,0.94196655 Z M -1155.8098,82.095032 c -45.293,0.32676 -90.11,22.923468 -127.0136,78.068168 -10.6892,15.97278 -20.0371,32.70038 -28.2324,49.70406 21.7379,-9.52405 41.9617,-16.87202 53.9453,-10.85664 30.1974,15.15806 -14.8518,47.83344 8.5722,53.95291 23.424,6.11939 29.0112,-41.77697 54.2852,-41.00432 25.274,0.77264 24.5335,45.35967 48.5703,43.16265 24.0368,-2.19709 4.3575,-45.06538 31.4297,-47.47932 27.0722,-2.41403 34.6532,60.92705 60,53.9529 25.3467,-6.97422 -27.0193,-39.62671 0,-51.79457 23.938,-10.78036 63.38223,38.66818 94.26561,43.65983 -3.90027,-27.26685 -11.91905,-59.89645 -42.83591,-93.2975 -42.9656,-46.41799 -98.3223,-78.462388 -152.9864,-78.068168 z"
       id="path4750-3"
       inkscape:connector-curvature="0"
       sodipodi:nodetypes="sscssssssssscsssscsssssscsssscssssssscss" />
  </g>
</svg>
