<?xml version="1.0" encoding="UTF-8" standalone="no"?>
<!-- Created with Inkscape (http://www.inkscape.org/) -->

<svg
   xmlns:dc="http://purl.org/dc/elements/1.1/"
   xmlns:cc="http://creativecommons.org/ns#"
   xmlns:rdf="http://www.w3.org/1999/02/22-rdf-syntax-ns#"
   xmlns:svg="http://www.w3.org/2000/svg"
   xmlns="http://www.w3.org/2000/svg"
   xmlns:sodipodi="http://sodipodi.sourceforge.net/DTD/sodipodi-0.dtd"
   xmlns:inkscape="http://www.inkscape.org/namespaces/inkscape"
   viewBox="0 0 1000 1000"
   id="svg2"
   version="1.1"
   inkscape:version="0.91 r13725"
   sodipodi:docname="cow-5.svg">
  <defs
     id="defs4" />
  <sodipodi:namedview
     id="base"
     pagecolor="#ffffff"
     bordercolor="#666666"
     borderopacity="1.0"
     inkscape:pageopacity="0.0"
     inkscape:pageshadow="2"
     inkscape:zoom="0.98994949"
     inkscape:cx="606.38512"
     inkscape:cy="594.65671"
     inkscape:document-units="px"
     inkscape:current-layer="layer1"
     showgrid="false"
     inkscape:window-width="1366"
     inkscape:window-height="689"
     inkscape:window-x="0"
     inkscape:window-y="30"
     inkscape:window-maximized="1" />
  <metadata
     id="metadata7">
    <rdf:RDF>
      <cc:Work
         rdf:about="">
        <dc:format>image/svg+xml</dc:format>
        <dc:type
           rdf:resource="http://purl.org/dc/dcmitype/StillImage" />
        <dc:title />
      </cc:Work>
    </rdf:RDF>
  </metadata>
  <g
     inkscape:label="Layer 1"
     inkscape:groupmode="layer"
     id="layer1">
    <g
       id="g4858"
       transform="matrix(1.2268241,0,0,1.2268241,2642.764,-1146.179)">
      <path
         inkscape:connector-curvature="0"
         id="path4483-7"
         d="m -1563.371,1194.1631 a 18.571428,17.142857 0 0 1 -18.5714,17.1428 18.571428,17.142857 0 0 1 -18.5714,-17.1428 18.571428,17.142857 0 0 1 18.5714,-17.1429 18.571428,17.142857 0 0 1 18.5714,17.1429 z"
         style="opacity:1;fill:#ffffff;fill-opacity:1;stroke:none;stroke-width:10;stroke-linecap:round;stroke-linejoin:round;stroke-miterlimit:4;stroke-dasharray:none;stroke-dashoffset:0;stroke-opacity:1" />
      <path
         inkscape:connector-curvature="0"
         id="path4483-3-4"
         d="m -1496.9424,1194.8773 a 18.571428,17.142857 0 0 1 -18.5714,17.1429 18.571428,17.142857 0 0 1 -18.5715,-17.1429 18.571428,17.142857 0 0 1 18.5715,-17.1428 18.571428,17.142857 0 0 1 18.5714,17.1428 z"
         style="opacity:1;fill:#ffffff;fill-opacity:1;stroke:none;stroke-width:10;stroke-linecap:round;stroke-linejoin:round;stroke-miterlimit:4;stroke-dasharray:none;stroke-dashoffset:0;stroke-opacity:1" />
      <path
         inkscape:connector-curvature="0"
         id="path4500-4"
         d="m -1574.0853,1201.3059 a 8.2142859,7.8571424 0 0 1 -8.2143,7.8571 8.2142859,7.8571424 0 0 1 -8.2143,-7.8571 8.2142859,7.8571424 0 0 1 8.2143,-7.8571 8.2142859,7.8571424 0 0 1 8.2143,7.8571 z"
         style="opacity:1;fill:#1a1a1a;fill-opacity:1;stroke:none;stroke-width:10;stroke-linecap:round;stroke-linejoin:round;stroke-miterlimit:4;stroke-dasharray:none;stroke-dashoffset:0;stroke-opacity:1" />
      <path
         inkscape:connector-curvature="0"
         id="path4500-6-3"
         d="m -1507.2995,1202.0203 a 8.2142859,7.8571424 0 0 1 -8.2143,7.8571 8.2142859,7.8571424 0 0 1 -8.2143,-7.8571 8.2142859,7.8571424 0 0 1 8.2143,-7.8572 8.2142859,7.8571424 0 0 1 8.2143,7.8572 z"
         style="opacity:1;fill:#1a1a1a;fill-opacity:1;stroke:none;stroke-width:10;stroke-linecap:round;stroke-linejoin:round;stroke-miterlimit:4;stroke-dasharray:none;stroke-dashoffset:0;stroke-opacity:1" />
    </g>
  </g>
</svg>
