<?xml version="1.0" encoding="UTF-8" standalone="no"?>
<!-- Created with Inkscape (http://www.inkscape.org/) -->

<svg
   xmlns:dc="http://purl.org/dc/elements/1.1/"
   xmlns:cc="http://creativecommons.org/ns#"
   xmlns:rdf="http://www.w3.org/1999/02/22-rdf-syntax-ns#"
   xmlns:svg="http://www.w3.org/2000/svg"
   xmlns="http://www.w3.org/2000/svg"
   xmlns:sodipodi="http://sodipodi.sourceforge.net/DTD/sodipodi-0.dtd"
   xmlns:inkscape="http://www.inkscape.org/namespaces/inkscape"
   viewBox="0 0 1000 1000"
   id="svg2"
   version="1.1"
   inkscape:version="0.91 r13725"
   sodipodi:docname="cow-1-bw.svg">
  <defs
     id="defs4" />
  <sodipodi:namedview
     id="base"
     pagecolor="#ffffff"
     bordercolor="#666666"
     borderopacity="1.0"
     inkscape:pageopacity="0.0"
     inkscape:pageshadow="2"
     inkscape:zoom="0.7"
     inkscape:cx="491.22163"
     inkscape:cy="359.48776"
     inkscape:document-units="px"
     inkscape:current-layer="layer1"
     showgrid="false"
     inkscape:window-width="1366"
     inkscape:window-height="689"
     inkscape:window-x="0"
     inkscape:window-y="30"
     inkscape:window-maximized="1" />
  <metadata
     id="metadata7">
    <rdf:RDF>
      <cc:Work
         rdf:about="">
        <dc:format>image/svg+xml</dc:format>
        <dc:type
           rdf:resource="http://purl.org/dc/dcmitype/StillImage" />
        <dc:title />
      </cc:Work>
    </rdf:RDF>
  </metadata>
  <g
     inkscape:label="Layer 1"
     inkscape:groupmode="layer"
     id="layer1">
    <path
       style="fill:#f2f2f2;fill-rule:evenodd;stroke:none;stroke-width:1px;stroke-linecap:butt;stroke-linejoin:miter;stroke-opacity:1"
       d="m 402.44053,414.7279 c -98.63187,-11.79137 -273.33222,-63.06059 -305.554393,89.11147 0.0834,5.59775 0.59538,11.19048 1.535859,16.761 -13.590258,108.33273 17.781594,216.66546 28.257684,324.99808 l 38.55871,0 c -2.73398,-48.86514 -8.36227,-97.48896 31.28169,-149.88576 4.96053,36.15769 10.48848,72.31564 13.59321,108.47333 l 29.11793,0 c -2.18412,-43.963 -6.82164,-87.69559 29.16344,-135.24066 44.51911,13.52364 93.86701,20.60965 143.96008,20.67161 50.53497,-0.0233 100.32121,-7.19434 145.16787,-20.91121 15.22379,26.34163 24.77044,68.93659 14.95192,157.08144 l 27.97969,2.40568 c 7.29838,-48.14819 15.39345,-96.296 21.56045,-144.44405 22.96995,26.3377 39.66899,69.11092 25.93592,171.10833 l 34.82303,2.48003 C 702.1053,751.82762 725.9328,646.31646 721.50961,540.80702 725.70669,528.63962 692.49154,465.5194 646.14041,404.20507 599.78928,342.89074 501.0724,426.51928 402.44053,414.7279 Z"
       id="path4525-6"
       inkscape:connector-curvature="0"
       sodipodi:nodetypes="zcccccccccccccccczz" />
    <path
       style="fill:#999999;fill-rule:evenodd;stroke:none;stroke-width:1px;stroke-linecap:butt;stroke-linejoin:miter;stroke-opacity:1"
       d="m 604.14941,390.46476 c -24.68284,-5.31742 -80.5313,41.19185 -59.4855,89.22814 12.1869,27.81615 -28.09759,34.12399 -4.95711,59.48539 23.14048,25.36139 64.71203,-6.02224 89.22814,2.47855 24.51612,8.50078 35.84608,45.4856 53.28906,39.65696 17.44299,-5.82864 18.61117,-24.5988 12.39277,-42.13551 -6.21841,-17.53672 -50.33586,-20.61544 -55.76762,-38.41763 -5.43176,-17.8022 18.88327,-19.41326 16.11065,-40.89618 -2.77262,-21.48291 -26.12754,-64.08229 -50.81039,-69.39972 z"
       id="path4657"
       inkscape:connector-curvature="0"
       sodipodi:nodetypes="zszzzzzzz" />
    <path
       style="fill:#999999;fill-rule:evenodd;stroke:none;stroke-width:1px;stroke-linecap:butt;stroke-linejoin:miter;stroke-opacity:1"
       d="m 178.60035,721.22241 c 9.61817,-32.03299 91.71098,-95.21565 99.02224,-127.94033 7.31126,-32.72467 -11.16459,-47.31345 -27.16544,-50.82547 -16.00085,-3.51204 -28.51765,14.14418 -32.42325,24.53647 -3.90558,10.39231 14.76349,16.73266 5.25781,25.41281 -9.50568,8.68015 -32.13494,-18.61301 -49.07296,-14.8972 -16.93803,3.7158 -39.32499,17.3679 -39.43357,35.05207 -0.10918,17.68419 37.7268,19.17809 39.43357,35.9284 1.70676,16.75033 -20.85246,26.44285 -28.04165,38.55737 -7.18919,12.11452 -19.81933,22.6668 -15.77339,33.29956 4.04593,10.63276 19.96999,12.86178 28.91796,12.26824 8.94796,-0.59354 9.6605,20.64107 19.27868,-11.39192 z"
       id="path4659"
       inkscape:connector-curvature="0"
       sodipodi:nodetypes="zzzzzzzzzzzz" />
    <path
       style="fill:#999999;fill-rule:evenodd;stroke:none;stroke-width:1px;stroke-linecap:butt;stroke-linejoin:miter;stroke-opacity:1"
       d="m 252.87559,392.86516 c -71.64015,-0.1455 -137.88742,23.34781 -156.515886,111.32226 0.04174,2.75656 0.18722,5.50991 0.436141,8.26193 16.369025,-1.22989 31.373575,-3.69373 42.097725,-5.14457 41.62418,-5.63124 43.49165,-67.82533 66.91945,-57.00658 23.4278,10.81874 -16.67278,51.9966 0,66.91945 16.67278,14.92284 44.32245,-12.01429 66.92178,-7.43517 22.59933,4.57911 32.05924,44.36195 61.96418,34.70084 29.90494,-9.66112 73.14056,-73.32421 49.57142,-106.57789 -23.56913,-33.25368 -110.01053,42.6276 -126.40606,12.39277 -14.94701,-27.56368 23.12698,-29.62376 44.03145,-54.16478 -16.28989,-1.98389 -32.79276,-3.23538 -49.0202,-3.26826 z"
       id="path4525-6-0"
       inkscape:connector-curvature="0" />
    <path
       style="fill:#999999;fill-rule:evenodd;stroke:none;stroke-width:1px;stroke-linecap:butt;stroke-linejoin:miter;stroke-opacity:1"
       d="m 463.05054,496.18731 c -16.39037,0.15912 -37.84409,8.10488 -45.55308,17.77459 -10.72526,13.45348 -2.83372,28.97513 0,40.31025 2.83397,11.33536 22.13767,12.76252 14.02223,26.28813 -8.11544,13.52562 -50.38848,-14.45824 -64.84673,0 -14.45824,14.45825 13.4271,43.99551 0,57.83568 -13.4271,13.84017 -41.94671,-10.06793 -57.83567,1.75387 -9.95028,7.40339 -18.23085,21.24344 -21.00691,34.92142 38.91339,9.79485 80.84071,14.9161 123.31496,14.96873 38.47651,-0.0172 76.5126,-4.19071 112.2712,-12.22997 6.50793,-9.23675 10.68944,-18.62282 11.50626,-27.14581 2.40396,-25.08401 -12.46183,-35.95146 -28.04201,-43.8159 -15.58017,-7.86443 -39.31995,21.29178 -52.57861,3.50553 -13.25829,-17.78625 25.57671,-56.24645 28.04214,-75.36097 2.46542,-19.11454 9.77753,-25.50568 -3.50566,-35.05319 -3.73567,-2.68515 -9.37453,-3.81456 -15.78812,-3.75236 z m 253.10202,97.38161 c -4.10999,-0.0479 -8.37479,0.35945 -12.97992,1.01114 -18.42064,2.60664 -49.39464,14.60485 -47.32142,33.30153 2.0732,18.69692 48.37735,4.14814 50.82695,21.03095 2.44959,16.88282 -36.08789,16.13703 -36.80472,29.79367 -0.71684,13.65663 22.55577,10.92377 24.53648,24.53648 1.98071,13.61272 -24.48791,28.6158 -22.78495,42.06178 1.70296,13.446 -1.35539,20.84767 22.78495,24.53649 1.09506,0.16734 2.29109,0.25567 3.5319,0.3067 10.75937,-58.78413 20.10066,-117.56949 22.36083,-176.3535 -1.37122,-0.13078 -2.75042,-0.20893 -4.1501,-0.22524 z m -119.40936,53.8485 c -10.42678,8.36939 -27.98594,18.9267 -43.37497,21.06922 -0.62164,0.72223 -1.18058,1.36485 -1.75154,2.02475 1.56653,-0.45981 3.14165,-0.90699 4.6964,-1.38263 3.22238,5.57555 6.18613,11.89075 8.76995,19.20029 6.39372,-1.56076 12.64389,-2.92143 15.55098,-0.0147 6.28023,6.28023 7.38891,12.01735 0,19.82805 -1.99027,2.10388 -5.49139,2.46518 -9.6924,2.11345 2.38727,12.31498 3.89786,26.82892 4.23634,44.17278 4.56894,-1.28927 8.34977,-3.12644 10.4112,-5.38882 7.37947,-8.09876 -4.33437,-13.37692 -1.23872,-18.58933 3.09564,-5.21241 10.10817,-9.07604 16.11163,-7.43762 6.00346,1.63843 -1.26007,18.81996 11.15404,16.11164 0.53944,-0.11779 1.05077,-0.32132 1.54788,-0.56312 2.72344,-18.12963 5.31915,-36.26013 7.64128,-54.3899 0.37626,0.43136 0.74615,0.87976 1.11898,1.32019 -0.12844,-0.72653 -0.25137,-1.47182 -0.3954,-2.13491 -14.06419,-12.39216 -18.74035,-21.52525 -24.78565,-35.9397 z"
       id="path4525-6-3"
       inkscape:connector-curvature="0" />
    <path
       style="fill:#de8787;fill-rule:evenodd;stroke:none;stroke-width:1px;stroke-linecap:butt;stroke-linejoin:miter;stroke-opacity:1"
       d="m 128.88563,840.9429 c 6.31508,-5.10826 27.28592,-7.01781 35.9392,-1.23935 8.65328,5.77847 8.99937,18.77778 9.29454,24.78565 0.29518,6.00788 0.0699,7.08786 -2.47855,9.29454 -2.54836,2.2067 -6.89635,3.38371 -10.53388,1.23935 -3.63754,-2.14438 -0.59182,-14.40722 -5.57677,-13.63211 -4.98496,0.77511 2.5648,12.4292 -1.23922,15.49099 -3.80402,3.06179 -7.95006,1.64541 -13.6321,-1.85888 -5.68203,-3.50431 -13.71797,-15.27863 -14.87131,-21.68743 -1.15334,-6.40881 -3.21698,-7.28451 3.09809,-12.39276 z"
       id="path4812"
       inkscape:connector-curvature="0"
       sodipodi:nodetypes="zzzzzzzzzz" />
    <path
       style="fill:#de8787;fill-rule:evenodd;stroke:none;stroke-width:1px;stroke-linecap:butt;stroke-linejoin:miter;stroke-opacity:1"
       d="m 211.35741,796.83195 c 4.66156,-3.98866 20.14163,-5.47962 26.52921,-0.96772 6.38758,4.51201 6.643,14.66213 6.86089,19.35326 0.21788,4.69101 0.0515,5.53433 -1.82956,7.25728 -1.8811,1.72308 -5.09071,2.6421 -7.77574,0.96772 -2.68514,-1.67436 -0.43687,-11.24948 -4.11661,-10.64417 -3.67973,0.60519 1.89324,9.70491 -0.91472,12.09563 -2.80808,2.39072 -5.86851,1.28485 -10.06277,-1.45146 -4.19439,-2.73618 -10.12621,-11.92988 -10.97763,-16.93397 -0.85129,-5.00409 -2.37464,-5.68792 2.28693,-9.67657 z"
       id="path4812-2"
       inkscape:connector-curvature="0"
       sodipodi:nodetypes="zzzzzzzzzz" />
    <path
       style="fill:#de8787;fill-rule:evenodd;stroke:none;stroke-width:1px;stroke-linecap:butt;stroke-linejoin:miter;stroke-opacity:1"
       d="m 650.45969,843.11474 c 5.68523,-5.10825 24.56433,-7.01781 32.35442,-1.23934 7.7902,5.77846 8.10182,18.77777 8.36755,24.78566 0.26573,6.00787 0.0626,7.08784 -2.23135,9.29454 -2.29416,2.20668 -6.20847,3.3837 -9.48322,1.23933 -3.27464,-2.14436 -0.53281,-14.4072 -5.02053,-13.6321 -4.48772,0.77511 2.309,12.4292 -1.11556,15.49098 -3.42455,3.06179 -7.15704,1.64542 -12.27241,-1.85888 -5.11524,-3.5043 -12.34958,-15.27862 -13.38796,-21.68743 -1.03826,-6.4088 -2.89604,-7.28451 2.78906,-12.39276 z"
       id="path4812-6"
       inkscape:connector-curvature="0"
       sodipodi:nodetypes="zzzzzzzzzz" />
    <path
       style="fill:#de8787;fill-rule:evenodd;stroke:none;stroke-width:1px;stroke-linecap:butt;stroke-linejoin:miter;stroke-opacity:1"
       d="m 574.15639,815.73092 c 4.66156,-3.98865 20.14163,-5.47961 26.52921,-0.96772 6.38758,4.51202 6.643,14.66214 6.86089,19.35327 0.21788,4.69101 0.0516,5.53433 -1.82956,7.25728 -1.88109,1.72308 -5.09071,2.6421 -7.77573,0.96772 -2.68516,-1.67436 -0.43688,-11.24948 -4.11662,-10.64417 -3.67973,0.60519 1.89324,9.70492 -0.91472,12.09563 -2.80807,2.39071 -5.86851,1.28485 -10.06277,-1.45146 -4.19439,-2.73619 -10.12621,-11.92988 -10.97763,-16.93397 -0.85129,-5.00409 -2.37463,-5.68793 2.28693,-9.67658 z"
       id="path4812-2-1"
       inkscape:connector-curvature="0"
       sodipodi:nodetypes="zzzzzzzzzz" />
    <path
       style="opacity:0.1;fill:#1a1a1a;fill-rule:evenodd;stroke:none;stroke-width:1px;stroke-linecap:butt;stroke-linejoin:miter;stroke-opacity:1"
       d="M 269.54395,612.29589 C 179.40785,665.00161 143.63414,730.1981 159.24805,819.25547 154.68329,735.05301 201.7142,673.46374 269.54395,612.29589 Z"
       id="path4850"
       inkscape:connector-curvature="0"
       sodipodi:nodetypes="ccc" />
    <path
       style="opacity:0.1;fill:#1a1a1a;fill-rule:evenodd;stroke:none;stroke-width:1px;stroke-linecap:butt;stroke-linejoin:miter;stroke-opacity:1"
       d="m 268.30461,669.92228 -10.53387,-4.95711 c -34.01087,36.97181 -15.84763,73.94375 -22.92665,110.91557 8.02122,-35.73715 3.03382,-73.20876 33.46052,-105.95846 z"
       id="path4852"
       inkscape:connector-curvature="0"
       sodipodi:nodetypes="cccc" />
    <path
       style="opacity:0.1;fill:#1a1a1a;fill-rule:evenodd;stroke:none;stroke-width:1px;stroke-linecap:butt;stroke-linejoin:miter;stroke-opacity:1"
       d="m 621.49928,683.55437 c -3.6195,41.61694 -11.06031,81.59632 -17.34987,122.06899 3.58368,-44.48868 10.70674,-88.81653 5.88655,-133.68726 z"
       id="path4854"
       inkscape:connector-curvature="0"
       sodipodi:nodetypes="cccc" />
    <path
       style="opacity:0.1;fill:#1a1a1a;fill-rule:evenodd;stroke:none;stroke-width:1px;stroke-linecap:butt;stroke-linejoin:miter;stroke-opacity:1"
       d="m 692.13822,809.34126 28.50341,-263.96653 c 5.23363,107.63528 -15.35811,180.83656 -28.50341,263.96653 z"
       id="path4856"
       inkscape:connector-curvature="0"
       sodipodi:nodetypes="ccc" />
  </g>
</svg>
